<svg xmlns="http://www.w3.org/2000/svg" viewBox="0 0 638.25 236.25" version="1.0"><defs><clipPath id="883f3416cd"><path d="M0 0h608v177H0z"/></clipPath><clipPath id="a96f1ee030"><path d="M181 76h455.867v159.504H181Zm0 0"/></clipPath><clipPath id="ce7419431e"><path d="M395 26h60.867v104H395Zm0 0"/></clipPath><clipPath id="bdc0a1725a"><path d="M0 0h456v160H0z"/></clipPath></defs><g clip-path="url(#883f3416cd)" fill="#562230" transform="translate(3 3)"><path d="M34.592 120.263q-14.08-.357-21.312-6.063-7.221-5.718-5.969-14.453.89-5.87 4.906-10.687c2.676-3.22 5.852-6.133 9.532-8.75a272 272 0 0 1 10.968-7.391c3.625-2.32 6.688-4.61 9.188-6.86q3.75-3.387 4.281-6.78c.352-2.02 1.36-3.383 3.016-4.094q2.498-1.08 4.812-.188c1.551.594 2.149 2.024 1.797 4.281q-1.254 9.094-4.734 15.61c-2.313 4.336-4.809 8.312-7.485 11.937-2.668 3.625-4.953 7.196-6.859 10.703q-2.86 5.25-2.86 11.672 0 4.095 1.688 5.532 1.701 1.423 3.578-.797c1.25-1.489 1.992-4.43 2.235-8.828q.528-6.421 4.53-10.157 4.016-3.748 9.454-5 5.436-1.247 10.156.094c3.157.887 5.414 2.492 6.782 4.813q2.06 3.469-.97 9.171-3.035 5.893-9.093 9.547-6.066 3.659-13.297 5.266c-4.812 1.062-9.476 1.539-13.984 1.422Zm17.657-70.969c-2.743 0-4.977-.945-6.703-2.844-1.72-1.906-2.34-4.226-1.86-6.969q.528-4.09 3.922-7.03 3.388-2.954 7.484-2.954 4.108 0 6.516 2.953 2.403 2.942 1.875 7.031c-.48 2.743-1.793 5.063-3.937 6.97q-3.206 2.844-7.298 2.843m109.82 78.625q1.794-4.809 4.906-6.766 3.125-1.967 6.688-1.609 3.562.362 6.328 2.406 2.766 2.05 3.75 5.078.984 3.034-.984 6.594c-1.899 3.336-4.899 5.89-9 7.672q-6.16 2.67-14.188 2.406c-5.344-.18-10.808-1.515-16.39-4.015a47 47 0 0 1-4.813-2.578 121 121 0 0 0-4.812-2.766q-4.816-3.03-9.72-6.328-4.908-3.294-9.905-5.438a22.35 22.35 0 0 0-10.422-1.781c-3.625.242-7.524 1.727-11.688 4.453q-1.235.72-2.125-.078-.891-.812-.625-2.406.265-1.605 2.75-3.047 2.686-1.593 5.266-2.485 2.59-.902 4.906-1.25-11.408-5.355-17.562-16.5-6.158-11.138-4.375-24.687a48.3 48.3 0 0 1 6.328-17.656 55.6 55.6 0 0 1 12.296-14.344q7.404-6.155 16.672-9.719 9.28-3.576 19.093-3.578c8.914 0 16.703 2.055 23.36 6.156q9.983 6.159 15.062 16.407 5.076 10.254 3.297 22.734c-.836 6.18-2.887 12.031-6.156 17.563q-4.91 8.285-12.39 14.53a59.7 59.7 0 0 1-16.673 9.813q-9.173 3.564-19.155 3.564a67 67 0 0 1 8.016 4.547c2.613 1.718 5.109 3.351 7.484 4.89q8.919 5.533 15.688 5.172 6.778-.356 9.093-6.953m-28.703-91.64q-5.175.002-10.172 5.171-4.985 5.176-8.734 13.906-3.739 8.737-5.344 19.437-1.425 10.69-.172 19.516 1.25 8.83 4.813 14 3.561 5.173 8.734 5.172 5.355 0 10.438-5.172 5.073-5.17 8.906-14c2.562-5.883 4.316-12.391 5.266-19.516q1.606-10.7.171-19.437-1.422-8.732-4.984-13.907c-2.375-3.445-5.352-5.172-8.922-5.172m128.378 22.641q-1.611 5.345-3.391 13.11-1.782 7.75-2.672 16.14-.89 8.378-.094 15.86.812 7.487 4.188 12.484 1.077 1.253.718 2.5-.363 1.252-1.78 1.25h-16.408q-5.878 0-9.094-3.203-3.204-3.217-4.094-7.141-3.39 4.283-8.125 7.313c-3.148 2.023-6.742 3.03-10.78 3.03-5.345 0-10.013-.976-14-2.937q-5.97-2.95-8.641-10.343c-1.782-4.938-2.079-11.805-.891-20.61.476-3.32.422-6.113-.172-8.375q-.892-3.389-5-6.953-1.253-1.06-.625-2.312.622-1.25 1.875-1.25 8.56.002 14.625-2.938 6.062-2.953 10.422-6.156 4.372-3.218 7.766-3.922 3.028-.528 2.312 1.078a75 75 0 0 0-1.422 3.375q-2.688 8.032-4.562 17.219c-1.243 6.117-1.922 11.906-2.047 17.375-.117 5.468.508 9.93 1.875 13.375q2.043 5.173 7.047 5.172c1.906 0 3.804-1.13 5.703-3.391a53 53 0 0 0 5.172-7.312l2.14-14.985q.717-4.981-.172-8.375-.89-3.389-5-6.953-1.253-1.06-.625-2.312.622-1.25 1.875-1.25 8.56.002 14.625-2.938 6.061-2.953 10.422-6.156 4.372-3.218 7.766-3.922 3.029-.528 2.312 1.078a26 26 0 0 0-1.25 3.375m37.625 61.344h-34.765q-1.252.002-1.438-1.344-.175-1.341 1.25-2.406c3.445-2.375 5.766-4.66 6.953-6.86q1.781-3.31 2.5-8.297l2.14-14.984c.477-3.32.423-6.113-.171-8.375q-.892-3.389-5-6.953-1.253-1.06-.625-2.312.622-1.25 1.875-1.25 8.56.002 14.625-2.938 6.062-2.953 10.422-6.156 4.372-3.218 7.766-3.922 3.027-.528 2.218 1.078a20.6 20.6 0 0 0-1.328 3.375q-6.956 23.719-7.672 38.438-.72 14.706 3.75 18.437 1.231 1.08.782 2.781-.44 1.688-3.282 1.688m-14.093-64.735c-3.563 0-6.149-1.273-7.75-3.828q-2.408-3.825-.625-9.187 1.968-5.515 7.218-9.266c3.508-2.5 7.11-3.75 10.797-3.75q5.343 0 7.75 3.75 2.404 3.751.438 9.266c-1.188 3.574-3.54 6.636-7.047 9.187-3.5 2.555-7.094 3.828-10.782 3.828m87.9 44.219q1.606-1.779 3.031-.266 1.436 1.52.36 2.938c-3.68 5.23-8.547 9.512-14.61 12.844q-9.094 5.002-19.437 5-9.815 0-17.297-4.453-7.486-4.465-11.235-11.953c-2.5-5-3.336-10.532-2.5-16.594q1.248-9.075 7.125-16.563 5.89-7.5 14.891-11.953c6.008-2.976 12.578-4.469 19.703-4.469q6.951 0 13.188 2.86 6.248 2.86 9.906 7.672 3.656 4.816 2.766 10.687-.721 5.706-4.829 10.531-4.096 4.815-10.25 7.672c-4.093 1.899-8.46 2.844-13.093 2.844q-3.393 0-6.422-.703a29 29 0 0 1-5.703-1.969c.476 2.969 1.578 5.617 3.297 7.938q2.59 3.47 7.765 5.078 3.2.891 7.484.453c2.852-.3 5.735-1.102 8.641-2.406q4.37-1.968 7.219-5.188m-21.563-40.469c-1.43 0-3.422 1.399-5.984 4.188q-3.831 4.19-5.078 12.75-1.065 7.126 1.156 11.234 2.231 4.095 5.438 4.094c2.382 0 4.554-1.57 6.515-4.719q2.937-4.717 3.828-11.328c.594-4.508.352-8.336-.718-11.484q-1.595-4.734-5.157-4.735m113.578 57.235q1.23 1.064.703 2.406-.534 1.346-1.953 1.344h-35.484q-2.86.001-2.766-1.61.093-1.605 1.687-2.859 3.92-3.03 6.328-9.36 2.422-6.326 3.313-13.812.889-7.483.266-14.344-.626-6.874-2.688-11.328c-1.367-2.976-3.293-4.469-5.781-4.469-1.781 0-3.715 1.165-5.797 3.485-2.086 2.312-4.137 5.195-6.156 8.64q-3.925 16.94-3.657 27.547.264 10.612 3.844 13.641 1.231 1.08.782 2.781-.44 1.688-3.282 1.688h-34.765q-1.252.002-1.438-1.344-.175-1.341 1.25-2.406c3.445-2.375 5.766-4.66 6.953-6.86q1.781-3.31 2.5-8.297l2.14-14.984c.477-3.32.423-6.113-.171-8.375q-.892-3.389-5-6.953-1.253-1.06-.625-2.312.622-1.25 1.875-1.25 8.56.002 14.625-2.938 6.062-2.953 10.422-6.156 4.372-3.218 7.766-3.922 3.027-.528 2.218 1.078a20.6 20.6 0 0 0-1.328 3.375l-1.078 3.75q3.216-3.561 7.047-5.969 3.825-2.42 8.11-2.422c6.413 0 11.765 1.579 16.046 4.735q6.422 4.722 9.188 12.75 2.764 8.018 1.328 17.828l-1.594 11.766q-.72 4.987.172 8.296.889 3.299 5 6.86m70.947-16.766q1.606-1.779 3.031-.266 1.436 1.52.36 2.938c-3.68 5.23-8.547 9.512-14.61 12.844q-9.094 5.002-19.437 5-9.815 0-17.297-4.453-7.486-4.465-11.235-11.953c-2.5-5-3.336-10.532-2.5-16.594q1.248-9.075 7.125-16.563 5.89-7.5 14.891-11.953c6.008-2.976 12.578-4.469 19.703-4.469q6.951 0 13.188 2.86 6.248 2.86 9.906 7.672 3.656 4.816 2.766 10.687-.721 5.706-4.829 10.531-4.096 4.815-10.25 7.672c-4.093 1.899-8.46 2.844-13.093 2.844q-3.393 0-6.422-.703a29 29 0 0 1-5.703-1.969c.476 2.969 1.578 5.617 3.297 7.938q2.59 3.47 7.765 5.078 3.2.891 7.484.453c2.852-.3 5.735-1.102 8.641-2.406q4.37-1.968 7.219-5.188m-21.563-40.469c-1.43 0-3.422 1.399-5.984 4.188q-3.831 4.19-5.078 12.75-1.065 7.126 1.156 11.234 2.231 4.095 5.438 4.094c2.382 0 4.554-1.57 6.515-4.719q2.937-4.717 3.828-11.328c.594-4.508.352-8.336-.718-11.484q-1.595-4.734-5.157-4.735m58.829 4.641q-1.424 4.629.89 8.016 2.326 3.39 6.516 6.25a486 486 0 0 0 8.734 5.797q4.547 2.938 7.75 6.5 3.217 3.563 3.391 8.562.186 4.986-4.094 9.719-4.283 4.721-11.156 7.937-6.862 3.206-14.703 3.375l-.36.188q-5.705.002-11.327-1.157-5.614-1.17-9.797-3.843-4.19-2.672-5.61-6.953-1.44-4.092.797-6.86 2.232-2.763 6.156-3.828a18.7 18.7 0 0 1 7.922-.453q4.014.628 6.422 3.219 2.403 2.578 1.344 7.203-1.079 4.815.61 6.422 1.699 1.612 4.109.547 2.404-1.08 3.484-3.938 1.78-4.622-.547-7.75-2.315-3.124-6.594-5.703a1032 1032 0 0 0-8.906-5.344q-4.643-2.765-7.937-6.422-3.301-3.655-3.125-9.015.186-6.592 4.28-11.485 4.109-4.906 10.876-7.671 6.78-2.766 14.625-2.954h.36q5.7-.17 11.312 1.079 5.625 1.253 9.984 3.843 4.372 2.579 5.625 7.031 1.248 4.095-.984 6.86-2.237 2.766-6.156 3.844-3.926 1.064-7.844.437-3.926-.623-6.328-3.203-2.408-2.59-1.328-7.219 1.061-4.999-.72-6.594c-1.187-1.07-2.616-1.25-4.28-.53q-2.501 1.064-3.391 4.093m0 0"/></g><g clip-path="url(#a96f1ee030)"><g clip-path="url(#bdc0a1725a)" transform="translate(181 76)"><path d="M72.55 84.766c.852-1.804 1.938-3.324 3.254-4.546q2.595-2.41 6-3.067c3.312-.637 6.48-.105 9.508 1.586q4.213 2.366 6.242 6.754a12.5 12.5 0 0 1 1.14 6.219c-.136 1.894-.683 3.742-1.636 5.531q-6.873 12.784-14.977 17.77-8.213 5.055-16.61 5.054a29 29 0 0 1-2.472-.097 39 39 0 0 1-2.254-.258l1.278-8.946-.5 9.024q1.575.087 3.129-.844c1.093-.656 1.875-1.515 2.336-2.566l-8.283-3.625 8.42 3.293q-3.58 9.15-11.755 13.644-7.341 4.039-16.558 4.04-7.101-.001-13.293-3.196-6.361-3.277-10.184-9.113-3.996-6.103-3.996-13.707 0-4.958 1.797-9.188 1.85-4.36 5.477-7.652c4.592-4.172 10.312-6.258 17.148-6.258q5.05.001 11.992 2.54l-3.105 8.487 2.656-8.636c-.516-.16-1.133-.211-1.84-.157q-2.268.171-4.066 1.696a7.76 7.76 0 0 0-2.07 2.75 7.8 7.8 0 0 0-.712 3.511q.06 1.935.926 3.301c-.918-1.488-2.383-3.367-4.387-5.637q-3.427-3.878-9.304-10.148l6.594-6.18-6.391 6.391q.41.406 1.172.789 2.132 1.066 4.617.621 2.682-.474 4.39-2.45.688-.786.958-1.515l-.078.211-.09.203a273 273 0 0 1-4.11 9.11 759 759 0 0 0-3.406 7.273l-.059.13-.062.124q-2.894 5.79-8.371 7.547-5.12 1.649-9.918-.465a12.9 12.9 0 0 1-4.57-3.348c-1.165-1.328-2.047-2.875-2.653-4.628q-1.903-5.515 1.121-11.563 3.129-6.257 4.864-9.988a517 517 0 0 0 2.937-6.395 48 48 0 0 0 1.79-4.586l8.573 2.856-8.636-2.657a1 1 0 0 0 .03-.109 1 1 0 0 0 0 .203l9.005-.754-8.863 1.774a16 16 0 0 1-.305-3.098v-1.195q0-8.543 5.156-13.406c3.29-3.098 7.012-4.649 11.176-4.649q5.7 0 10.129 3.953 4.874 4.355 4.874 11.715 0 1.572-.223 3.137a18.7 18.7 0 0 1-1.015 3.883l-8.461-3.172 8.765 2.191q.165-.655.047-1.48a4.8 4.8 0 0 0-.766-2.012l-7.515 5.016 7.375-5.22q3.468 4.904 6.867 8.477a733 733 0 0 1 7.18 7.653q3.89 4.207 6.633 8.8c2.09 3.508 3.496 7.465 4.207 11.872-.196-1.121-.708-2.114-1.54-2.989-.921-.968-1.984-1.57-3.19-1.797l-1.669 8.883 1.277-8.945q.614.088 1.223.133.61.042 1.215.043.865-.001 1.824-.922c1.582-1.527 3.11-3.86 4.582-7.008Zm16.36 7.68q-3.628 7.753-8.415 12.36-6.206 5.976-14.36 5.976a36 36 0 0 1-4.992-.355l-.195-.028-.191-.035q-3.936-.74-6.578-3.52-2.503-2.637-3.195-6.57-.522-3.205-1.895-5.504-1.77-2.97-4.379-5.793a739 739 0 0 0-7.008-7.464c-2.867-3.016-5.707-6.512-8.523-10.497l-.14-.203a13 13 0 0 1-2.09-5.46q-.386-2.68.312-5.458l.121-.5.184-.48q.04-.118.058-.184a4 4 0 0 0 .027-.492q0-.076-.003-.129l.004.004q.022.165.109.383.317.85 1.05 1.508.716.639 1.91.64a2.6 2.6 0 0 0 1.067-.218q.147-.066.235-.125c-.008.007-.036.027-.078.07.316-.3.52-.586.617-.867q-.101.294-.102 1.12v1.196q.002-.234-.043-.445l.102.508.043.511q.28 3.334-.766 6.727l-.031.098-.031.101a68 68 0 0 1-2.457 6.29 587 587 0 0 1-3.032 6.605q-1.845 3.96-5.086 10.441-.032.066-.05.113h-.004c.035-.101.066-.234.086-.39q.152-1.026-.235-2.133-.24-.715-.828-1.383a5 5 0 0 0-1.754-1.293q-1.478-.65-2.887-.2a4.7 4.7 0 0 0-1.862 1.103q-.323.315-.406.477l8.086 4.043-8.207-3.79a750 750 0 0 1 3.492-7.448 276 276 0 0 0 3.848-8.532l8.293 3.586-8.461-3.171q.868-2.32 2.316-3.989 2.473-2.847 6.082-3.492c2.278-.406 4.488-.074 6.64 1.004q1.86.927 3.528 2.594l.203.21q6.06 6.465 9.664 10.544c2.68 3.039 4.711 5.668 6.09 7.898q1.799 2.823 1.89 5.852a10.04 10.04 0 0 1-.902 4.515 10.1 10.1 0 0 1-2.71 3.57q-2.662 2.251-6.22 2.528-2.358.18-4.859-.59l-.226-.07-.223-.082c-2.62-.957-4.55-1.438-5.781-1.438q-3.276.001-5.004 1.567-.685.627-.988 1.336-.36.844-.36 2.12c0 1.473.348 2.743 1.043 3.801.813 1.239 1.926 2.227 3.348 2.957q2.294 1.184 5.011 1.184 4.577.002 7.847-1.8 2.438-1.336 3.633-4.395l.067-.164.07-.164q1.623-3.704 4.922-5.684 3.21-1.926 7.176-1.707l.386.023.387.055q.667.095 1.2.14.42.036.972.036 3.28-.001 7.137-2.375c2.64-1.625 5.476-5.254 8.5-10.883q-.37.697-.442 1.688a5.3 5.3 0 0 0 .477 2.636q.433.944 1.336 1.446 1.219.687 2.738.394 1.681-.322 2.883-1.441c.39-.364.66-.696.8-1Zm-50.099 13.793q.195.002.32-.02l-.016.008a1.6 1.6 0 0 0-.515.301 6.3 6.3 0 0 0 1.465-1.742l7.898 4.39-8.422-3.277a5.7 5.7 0 0 0-.363 1.875 6.95 6.95 0 0 0 .644 3.133 6.7 6.7 0 0 0 1.782 2.352c.422.355.84.617 1.261.797l3.504-8.329-3.215 8.442a86 86 0 0 0-5.027-1.735q-1.477-.457-2.633-.457-.192 0-.273.012.124-.017.336-.086 1.159-.376 2.113-1.426 1.025-1.125 1.024-2.894 0 .167.007.203a2 2 0 0 0-.156-.453 3.3 3.3 0 0 0-1.2-1.395q.459.3 1.466.301m0 18.074q-6.422 0-11.403-3.28a14.44 14.44 0 0 1-5.277-6.138q-1.51-3.274-1.508-7.312-.002-5.22 3.676-9.262 4.013-4.418 11.195-4.418 3.886 0 7.977 1.266 3.065.948 6.117 2.113l.145.055.144.062c2.992 1.258 5.113 3.239 6.356 5.934q2.01 4.347.152 9.117l-.223.574-.3.54q-2.127 3.825-5.567 6.744-4.717 4.003-11.484 4.004m0 0" fill="#fff"/><path d="M136.578 84.575q1.29-2.578 3.258-4.363a12.7 12.7 0 0 1 5.41-2.93c3.328-.863 6.535-.55 9.625.93 3.16 1.52 5.426 3.898 6.8 7.148q2.256 5.334-.394 11.301-2.442 5.584-7.387 10.945-5.136 5.579-12.425 8.918-7.664 3.522-17.192 3 1.108.076 2.309-.453 1.112-.493 1.808-1.323l-6.941-5.785 7.105 5.581q-4.206 5.351-10.457 8.383-6.246 3.029-14.554 3.027c-6.73 0-12.504-1.746-17.313-5.238q-6.88-4.994-10.379-13.282-3.232-7.653-3.23-16.777-.002-6.956 2.137-13.777c1.453-4.645 3.566-8.832 6.34-12.57q4.605-6.198 11.167-9.29l.145-.066.144-.063c.098-.043.176-.074.227-.101a1 1 0 0 0-.152.094l1.39-.93 5.012 7.52-5.2-7.391c3.95-2.778 8.423-4.164 13.427-4.164q9.322-.002 16.476 5.539 6.387 4.95 10.031 12.504 3.617 7.494 3.618 15.398-.001 3.33-.301 6.653a76 76 0 0 1-.906 6.636q.28-1.405-.211-3.027a6.67 6.67 0 0 0-1.868-3.024q-1.523-1.412-3.503-1.742-.998-.168-1.754-.008l.187-.039.188-.03q2.27-.388 3.406-1.688 2.573-2.935 4.074-5.743l7.965 4.266Zm16.168 8.082-.117.227q-2.48 4.619-6.407 9.109-5.361 6.13-13.968 7.602l-1.52-8.91 1.895 8.835q-2.613.56-5.004.16-3.376-.562-5.824-2.835-2.256-2.098-3.13-4.98a11.04 11.04 0 0 1-.277-5.45q.458-2.521.688-5.035a55 55 0 0 0 .226-5.02q.001-3.773-1.82-7.547c-1.195-2.484-2.805-4.504-4.824-6.07-1.508-1.168-3.313-1.754-5.406-1.754q-1.782.001-3.024.875l-.094.066-1.488.993q-1.29.855-2.976 1.582l-3.563-8.309 3.848 8.18q-2.454 1.154-4.352 3.707-2.339 3.15-3.605 7.2-1.313 4.183-1.313 8.374c0 3.64.606 6.89 1.809 9.746q1.54 3.653 4.347 5.688 2.466 1.793 6.696 1.793 4.16 0 6.668-1.22c1.668-.808 3.047-1.901 4.133-3.288l.082-.102.082-.097q2.02-2.43 4.793-3.649a12.5 12.5 0 0 1 5.957-1.05c3.375.183 6.265-.274 8.671-1.38q3.991-1.828 6.676-4.742 2.884-3.128 4.157-6.035c-.063.145-.11.383-.137.723a4.95 4.95 0 0 0 .402 2.355q.604 1.426 2.024 2.106a3.85 3.85 0 0 0 2.73.27c.84-.216 1.57-.61 2.195-1.173q.541-.493.77-.945m-33.184-2.277q-1.074-.717-2.511-.934a7.04 7.04 0 0 0-4.133.598 6.84 6.84 0 0 0-2.754 2.308q-.784 1.109-1.024 2.317.323-1.729.551-3.625.2-1.648.2-3.488 0-1.83-.868-3.981-.792-1.962-2.023-3.133a1 1 0 0 0-.145-.12c.016.007.035.019.067.03q.134.054.203.055h-.133q2.297.001 4.098-1.012-.035.017-.274.176.529-.344.875-.824l-7.351-5.254 7.515 5.012q-.76 1.141-2.054 2.441l-1.197 1.192c.828-.825 1.352-1.696 1.582-2.606l-.035.145q.04-.25.04-.614c0 .528.312 1.305.94 2.34a29 29 0 0 0 4.106 5.266q2.42 2.472 4.238 3.656Zm-9.933 15.097q-3.491-2.267-7.305-6.164a47.2 47.2 0 0 1-6.64-8.527q-3.565-5.876-3.567-11.723.001-1.775.535-3.914.874-3.492 3.172-5.789l1.195-1.195c.078-.078.13-.133.153-.156a4 4 0 0 0-.352.472l.078-.12.086-.118a14.7 14.7 0 0 1 4.06-3.875c.46-.297.855-.535 1.187-.723q2.325-1.312 4.762-1.312h.133q7.055.002 12.324 5.008 4.073 3.873 6.336 9.468 2.18 5.409 2.18 10.746 0 2.93-.332 5.66-.3 2.484-.77 4.997-.51 2.536-1.922 4.539a10.9 10.9 0 0 1-4.379 3.668 10.6 10.6 0 0 1-6.218.894q-2.537-.381-4.805-1.894Zm-9.52-11.558q0 2.677.95 4.48.973 1.85 2.304 2.782.781.55 1.238.55.312 0 .485-.043l-.004.008q-1.06.576-1.95 1.867c-1.066 1.547-1.492 3.262-1.269 5.14a6.8 6.8 0 0 0 1.344 3.365q.691.908 1.523 1.406l-.183-.109-.18-.121c-3.5-2.328-6.79-5.145-9.875-8.437a56.7 56.7 0 0 1-7.961-10.801l7.86-4.461-7.626 4.851q.539.844 1.622 1.582a7.6 7.6 0 0 0 2.566 1.114 7.9 7.9 0 0 0 3.473.027 7.9 7.9 0 0 0 3.347-1.59 7.6 7.6 0 0 0 1.813-2.094q.58-1.007.699-1.816c-.063.426-.106.824-.137 1.203a16 16 0 0 0-.039 1.098m-18.07 0c0-.848.027-1.676.09-2.48.062-.774.148-1.563.265-2.38q.38-2.665 1.563-4.699a10.3 10.3 0 0 1 2.488-2.914 9.95 9.95 0 0 1 4.195-2q2.203-.469 4.399.04 1.874.432 3.496 1.534 2.011 1.364 3.476 3.672l.125.192.114.199a38.8 38.8 0 0 0 5.433 7.37q3.199 3.417 6.707 5.755l-5.011 7.52 4.648-7.75q2.162 1.294 3.578 3.163 1.854 2.444 2.207 5.454.462 3.943-1.8 7.23-1.556 2.252-4.07 3.625-4.185 2.35-9.34 2.352-6.17.002-11.626-3.829-4.904-3.444-7.91-9.156-3.028-5.754-3.027-12.898m0 0" fill="#fff"/><path d="M256.754 84.575q1.32-2.638 3.336-4.414 2.543-2.243 5.824-2.875 4.899-.939 9.328 1.46 4.231 2.293 6.29 6.747a12.84 12.84 0 0 1 1.19 5.898q-.101 2.764-1.339 5.422-4.364 9.048-9.836 14.18-5.59 5.24-11.504 7.398-5.68 2.075-10.726 2.075-6.424-.001-11.793-2.75-5.308-2.718-9.18-7.918c-4.797-6.434-6.918-14.77-6.356-24.996.157-2.383.192-4.325.102-5.817a14 14 0 0 0-.152-1.469q-.03-.175-.059-.28v-.009l.031.094-.004-.008c.032.059.067.125.114.2q.303.487.812.945 1.717 1.551 4.067 1.55.842 0 1.386-.257-.146.07-.586.457-2.073 1.828-4.03 4.453-2.235 2.999-3.712 5.5l-.078.129-.078.125q.485-.76.484-1.402-.133 8.034-.132 12.535-.001 4.834-.149 7.414-.228 4.055-1.43 6.62c-.945 2.032-2.379 3.763-4.293 5.2l-5.421-7.23 5.644 7.054q-1.785 1.435-3.664 2.137-1.012.38-2.043.637l-2.191-8.766 2.859 8.57a11.9 11.9 0 0 1-3.789.598q-4.167 0-7.402-2.07-3.516-2.244-5.076-6.309-1.598-4.154-1.597-8.883-.001-2.337.25-4.675.147-1.376.148-2.22-.002-2.765.067-5.53.065-2.543.066-4.95c0-2.886-.121-5.535-.355-7.937-.168-1.688-.415-2.895-.747-3.61q.43.927 1.497 1.7c1.02.742 2.128 1.11 3.335 1.11q-.292-.001-1.054.515-2.144 1.442-4.067 3.558a93 93 0 0 0-4.233 4.957l-7.094-5.597 7.403 5.18a2.5 2.5 0 0 0 .37-.739c-.003.012-.003.035-.011.066l-8.957-1.19 9.023.507q-.519 9.222-.582 14.262-.072 5.576-.367 8.96l-9-.785 9.031.313c-.12 3.433-.625 6.496-1.52 9.18q-1.479 4.436-5.28 6.855-3.315 2.104-7.672 2.105-4.46 0-8.328-2.578-2.79-1.859-4.23-4.738-1.472-2.94-1.227-6.34l9.011.64-9.03-.265q.268-9.186.808-17.312.513-7.658.511-14.254v-9.352c0-.12-.004-.226-.007-.304l.003.004q.088.55.415 1.238.786 1.665 2.386 2.789 1.993 1.394 4.383 1.394 2.152.001 3.816-1.035.457-.281.633-.469-.607.639-1.742 2.473-2.959 4.765-8.297 16.332l-.058.13-.063.124q-3.01 6.016-8.652 7.54c-3.473.933-6.793.538-9.969-1.18q-4.782-2.59-6.488-7.899-1.687-5.249.89-10.727a401 401 0 0 1 4.891-9.984q2.807-5.543 6.09-10.242c2.465-3.531 5.16-6.434 8.086-8.719q5.765-4.495 12.59-4.496 4.066 0 7.382 1.332 3.944 1.588 6.504 4.863 3.588 4.6 4.47 10.535l.026.192.02.187q-.076-.738-.465-1.64a7.9 7.9 0 0 0-1.316-2.07 8.3 8.3 0 0 0-3.219-2.274 8.36 8.36 0 0 0-4.098-.555 8 8 0 0 0-2.633.758q-1.018.499-1.656 1.133 4.805-4.804 10.38-7.762 6.363-3.37 12.722-3.37c3.98 0 7.746 1.073 11.308 3.222q5.474 3.31 8.762 10.094l.094.191.082.191q-.323-.756-1.055-1.535-1.886-2.02-4.738-2.379c-1.824-.23-3.488.117-4.988 1.032q-.825.504-1.285 1.054c3.25-4.031 6.718-7.062 10.414-9.097q6.011-3.305 12.046-3.305 10.939-.001 16.504 6.86 4.49 5.53 5.47 13.55.725 5.983.726 12.5.057 3.769.52 6.336.317 1.753.663 2.352.02.04.028.05a1 1 0 0 0-.075-.086 2 2 0 0 0-.441-.34 2 2 0 0 0-.633-.238h.055q.291.001.742-.355 1.909-1.517 3.426-3.656 1.798-2.538 2.652-4.348Zm16.25 7.91c-1.023 2.153-2.433 4.504-4.242 7.055q-2.998 4.234-6.922 7.355c-3.59 2.856-7.59 4.286-11.992 4.286q-4.682 0-8.469-2.192-3.788-2.19-6.125-6.246-3.428-5.946-3.594-17.71 0-5.421-.597-10.313c-.235-1.907-.754-3.356-1.563-4.356a1 1 0 0 0 .2.195l.011.008a1 1 0 0 0-.133-.058q-.848-.317-2.547-.317c-.925 0-2.039.36-3.335 1.07q-2.42 1.33-5.239 4.833c-.969 1.164-2.027 2.093-3.176 2.796q-3.146 1.922-6.68 1.48-3.644-.455-6.23-3.226c-.949-1.015-1.734-2.242-2.347-3.672l8.308-3.562-8.133 3.945q-.956-1.973-1.847-2.511-1.03-.621-1.961-.622-1.863.002-4.254 1.27c-2.121 1.125-4.14 2.648-6.066 4.574q-1.5 1.502-3.2 2.328a9.9 9.9 0 0 1-3.27.957 9.4 9.4 0 0 1-4.636-.62q-3.714-1.483-5.348-5.274-.702-1.63-.914-3.63l8.985-.948-8.938 1.324c-.12-.813-.398-1.504-.836-2.063q.433.557 1 .786l.012.015a4 4 0 0 0-.652-.043q-.611-.002-1.473.676-2.243 1.747-4.387 4.813c-1.699 2.437-3.297 5.125-4.785 8.062a390 390 0 0 0-4.66 9.512c.07-.149.125-.375.156-.676q.103-.904-.191-1.824-.515-1.594-2.113-2.461-1.578-.857-3.336-.383c-.946.254-1.735.695-2.375 1.316q-.357.352-.438.516l8.082 4.043-8.207-3.79c3.871-8.381 6.984-14.475 9.348-18.283q2.11-3.406 3.992-5.387 3.92-4.125 8.66-4.125 3.32 0 6.008 1.887 2.297 1.611 3.55 4.254 1.337 2.818 1.337 6.808v9.352q0 7.196-.551 15.457a452 452 0 0 0-.781 16.64l-.004.192-.016.187q.111-1.54-.633-3.027c-.469-.941-1.105-1.684-1.906-2.215q-.685-.456-1.7-.457c-.6 0-1.28.238-2.03.715q-1.613 1.027-2.165 2.68.517-1.548.606-4.09l.008-.234.02-.235c.155-1.812.257-4.351.296-7.621q.07-5.44.613-15.05l.02-.348.043-.34q.558-4.174 2.75-7.305l.148-.21.16-.208a114 114 0 0 1 5.051-5.918q3.386-3.72 7.34-6.387 5.339-3.599 11.152-3.601 4.061.002 7.278 2.336 2.765 2.006 4.316 5.383 1.76 3.831 2.305 9.386c.297 2.992.441 6.227.441 9.707q0 2.632-.07 5.399a221 221 0 0 0-.062 5.082q0 1.806-.25 4.144a26 26 0 0 0-.149 2.75q.001 1.376.395 2.395-.57-1.475-2.059-2.43c-.809-.515-1.586-.777-2.332-.777a6.1 6.1 0 0 0-1.926.332l.328-.11.336-.085.078-.024q-.814.306-1.277.676l.11-.09.113-.086q-.745.563-1.239 1.617c-.18.38-.285.676-.324.895q.052-.288.086-.902.117-2.064.117-6.383.002-4.654.133-12.535 0-4.622 2.344-8.301l7.621 4.851-7.777-4.597q1.97-3.334 4.777-7.102 3.084-4.137 6.578-7.219c3.563-3.136 7.281-4.707 11.145-4.707 3.074 0 5.754 1.035 8.05 3.11q2.468 2.232 3.84 5.812c1.266 3.309 1.684 8.29 1.246 14.934q-.485 8.801 2.797 13.207 1.366 1.828 2.926 2.629 1.495.762 3.559.761 1.85.001 4.527-.976 2.443-.89 5.344-3.61 3.016-2.824 5.816-8.632-.312.666-.344 1.574-.044 1.225.461 2.316.463 1.007 1.512 1.575 1.248.674 2.695.398 1.56-.301 2.707-1.316.626-.552.883-1.063Zm0 0" fill="#fff"/><path d="M320.687 84.575q1.29-2.578 3.258-4.363a12.7 12.7 0 0 1 5.41-2.93c3.328-.863 6.535-.55 9.625.93 3.16 1.52 5.426 3.898 6.8 7.148q2.256 5.334-.394 11.301-2.442 5.584-7.387 10.945-5.136 5.579-12.425 8.918-7.664 3.522-17.192 3 1.108.076 2.309-.453 1.112-.493 1.808-1.323l-6.941-5.785 7.105 5.581q-4.205 5.351-10.457 8.383-6.246 3.029-14.554 3.027c-6.73 0-12.504-1.746-17.313-5.238q-6.88-4.994-10.379-13.282-3.232-7.653-3.23-16.777-.002-6.956 2.137-13.777c1.453-4.645 3.566-8.832 6.34-12.57q4.605-6.198 11.167-9.29l.145-.066.144-.063c.098-.043.176-.074.227-.101a1 1 0 0 0-.152.094l1.39-.93 5.012 7.52-5.2-7.391c3.95-2.778 8.423-4.164 13.427-4.164q9.322-.002 16.476 5.539 6.387 4.95 10.031 12.504 3.617 7.494 3.618 15.398-.001 3.33-.301 6.653a76 76 0 0 1-.906 6.636q.28-1.405-.211-3.027a6.67 6.67 0 0 0-1.868-3.024q-1.523-1.412-3.503-1.742-.998-.168-1.754-.008l.187-.039.188-.03q2.27-.388 3.406-1.688 2.573-2.935 4.074-5.743l7.965 4.266Zm16.168 8.082-.117.227q-2.48 4.619-6.407 9.109-5.361 6.13-13.968 7.602l-1.52-8.91 1.895 8.835q-2.613.56-5.004.16-3.376-.562-5.824-2.835-2.256-2.098-3.13-4.98a11.04 11.04 0 0 1-.277-5.45q.458-2.521.688-5.035a55 55 0 0 0 .226-5.02q.001-3.773-1.82-7.547c-1.195-2.484-2.805-4.504-4.824-6.07-1.508-1.168-3.313-1.754-5.406-1.754q-1.782.001-3.024.875l-.094.066-1.488.993q-1.29.855-2.976 1.582l-3.563-8.309 3.848 8.18q-2.454 1.154-4.352 3.707-2.339 3.15-3.605 7.2-1.313 4.183-1.313 8.374c0 3.64.606 6.89 1.809 9.746q1.54 3.653 4.347 5.688 2.466 1.793 6.696 1.793 4.16 0 6.668-1.22c1.668-.808 3.047-1.901 4.133-3.288l.082-.102.082-.097q2.02-2.43 4.793-3.649a12.5 12.5 0 0 1 5.957-1.05c3.375.183 6.265-.274 8.671-1.38q3.991-1.828 6.676-4.742 2.884-3.128 4.157-6.035c-.063.145-.11.383-.137.723a4.95 4.95 0 0 0 .402 2.355q.604 1.426 2.024 2.106a3.85 3.85 0 0 0 2.73.27c.84-.216 1.57-.61 2.195-1.173q.541-.493.77-.945m-33.184-2.277q-1.074-.717-2.511-.934a7.04 7.04 0 0 0-4.133.598 6.84 6.84 0 0 0-2.754 2.308q-.784 1.109-1.024 2.317.323-1.729.551-3.625.2-1.648.2-3.488 0-1.83-.868-3.981-.792-1.962-2.023-3.133a1 1 0 0 0-.145-.12c.016.007.035.019.067.03q.134.054.203.055h-.133q2.297.001 4.098-1.012-.035.017-.274.176.529-.344.875-.824l-7.351-5.254 7.515 5.012q-.76 1.141-2.054 2.441l-1.197 1.192c.828-.825 1.352-1.696 1.582-2.606l-.035.145q.04-.25.04-.614c0 .528.312 1.305.94 2.34a29 29 0 0 0 4.106 5.266q2.42 2.472 4.238 3.656Zm-9.933 15.097q-3.491-2.267-7.305-6.164a47.2 47.2 0 0 1-6.64-8.527q-3.565-5.876-3.567-11.723.001-1.775.535-3.914.874-3.492 3.172-5.789l1.195-1.195c.078-.078.13-.133.153-.156a4 4 0 0 0-.352.472l.078-.12.086-.118a14.7 14.7 0 0 1 4.06-3.875c.46-.297.855-.535 1.187-.723q2.325-1.312 4.762-1.312h.133q7.055.002 12.324 5.008 4.073 3.873 6.336 9.468 2.18 5.409 2.18 10.746 0 2.93-.332 5.66-.3 2.484-.77 4.997-.51 2.536-1.922 4.539a10.9 10.9 0 0 1-4.379 3.668 10.6 10.6 0 0 1-6.218.894q-2.537-.381-4.805-1.894Zm-9.52-11.558q0 2.677.95 4.48.973 1.85 2.304 2.782.781.55 1.238.55.312 0 .485-.043l-.004.008q-1.06.576-1.95 1.867c-1.066 1.547-1.492 3.262-1.269 5.14a6.8 6.8 0 0 0 1.344 3.365q.691.908 1.523 1.406l-.183-.109-.18-.121c-3.5-2.328-6.79-5.145-9.875-8.437a56.7 56.7 0 0 1-7.961-10.801l7.86-4.461-7.626 4.851q.539.844 1.622 1.582a7.6 7.6 0 0 0 2.566 1.114 7.9 7.9 0 0 0 3.473.027 7.9 7.9 0 0 0 3.347-1.59 7.6 7.6 0 0 0 1.813-2.094q.58-1.007.699-1.816c-.063.426-.106.824-.137 1.203a16 16 0 0 0-.039 1.098m-18.07 0c0-.848.027-1.676.09-2.48.062-.774.148-1.563.265-2.38q.38-2.665 1.563-4.699a10.3 10.3 0 0 1 2.488-2.914 9.95 9.95 0 0 1 4.195-2q2.203-.469 4.399.04 1.874.432 3.496 1.534 2.011 1.364 3.476 3.672l.125.192.114.199a38.8 38.8 0 0 0 5.433 7.37q3.199 3.417 6.707 5.755l-5.011 7.52 4.648-7.75q2.162 1.294 3.578 3.163 1.854 2.444 2.207 5.454.462 3.943-1.8 7.23-1.556 2.252-4.07 3.625-4.185 2.35-9.34 2.352-6.17.002-11.626-3.829-4.904-3.444-7.91-9.156-3.028-5.754-3.027-12.898m0 0" fill="#fff"/><path d="M388.242 84.766c.852-1.804 1.938-3.324 3.254-4.546q2.595-2.41 6-3.067c3.312-.637 6.48-.105 9.508 1.586q4.213 2.366 6.242 6.754a12.5 12.5 0 0 1 1.14 6.219c-.136 1.894-.683 3.742-1.636 5.531q-6.873 12.784-14.977 17.77-8.213 5.055-16.61 5.054a29 29 0 0 1-2.472-.097 39 39 0 0 1-2.254-.258l1.278-8.946-.5 9.024q1.575.087 3.129-.844c1.093-.656 1.875-1.515 2.336-2.566l-8.283-3.625 8.42 3.293q-3.58 9.15-11.755 13.644-7.341 4.039-16.558 4.04-7.101-.001-13.293-3.196c-4.242-2.184-7.634-5.223-10.184-9.113q-3.996-6.103-3.996-13.707 0-4.958 1.797-9.188 1.85-4.36 5.477-7.652c4.592-4.172 10.312-6.258 17.148-6.258q5.05.001 11.992 2.54l-3.105 8.487 2.656-8.636c-.516-.16-1.133-.211-1.84-.157q-2.268.171-4.066 1.696a7.76 7.76 0 0 0-2.07 2.75 7.8 7.8 0 0 0-.712 3.511q.06 1.935.926 3.301-1.379-2.232-4.387-5.637-3.427-3.878-9.304-10.148l6.594-6.18-6.391 6.391q.41.406 1.172.789 2.132 1.066 4.617.621 2.682-.474 4.39-2.45.688-.786.958-1.515l-.078.211-.09.203a273 273 0 0 1-4.11 9.11 759 759 0 0 0-3.406 7.273l-.059.13-.062.124q-2.894 5.79-8.371 7.547-5.12 1.649-9.918-.465a12.9 12.9 0 0 1-4.57-3.348c-1.165-1.328-2.047-2.875-2.653-4.628q-1.903-5.515 1.121-11.563 3.129-6.257 4.864-9.988a517 517 0 0 0 2.937-6.395 48 48 0 0 0 1.79-4.586l8.573 2.856-8.636-2.657a1 1 0 0 0 .03-.109 1 1 0 0 0 0 .203l9.005-.754-8.863 1.774a16 16 0 0 1-.305-3.098v-1.195q0-8.543 5.156-13.406c3.29-3.098 7.012-4.649 11.176-4.649q5.7 0 10.129 3.953 4.874 4.355 4.874 11.715 0 1.572-.223 3.137a18.7 18.7 0 0 1-1.015 3.883l-8.461-3.172 8.765 2.191q.165-.655.047-1.48a4.8 4.8 0 0 0-.766-2.012l-7.515 5.016 7.375-5.22q3.468 4.904 6.867 8.477a733 733 0 0 1 7.18 7.653q3.89 4.207 6.633 8.8c2.09 3.508 3.496 7.465 4.207 11.872-.196-1.121-.708-2.114-1.54-2.989-.921-.968-1.984-1.57-3.19-1.797l-1.669 8.883 1.277-8.945q.614.088 1.223.133.61.042 1.215.043.865-.001 1.824-.922c1.582-1.527 3.11-3.86 4.582-7.008Zm16.36 7.68q-3.628 7.753-8.415 12.36-6.206 5.976-14.36 5.976a36 36 0 0 1-4.992-.355l-.195-.028-.191-.035q-3.936-.74-6.578-3.52-2.503-2.637-3.195-6.57-.522-3.205-1.895-5.504-1.77-2.97-4.379-5.793a739 739 0 0 0-7.008-7.464c-2.867-3.016-5.707-6.512-8.523-10.497l-.14-.203a13 13 0 0 1-2.09-5.46q-.386-2.68.312-5.458l.121-.5.184-.48q.04-.118.058-.184a4 4 0 0 0 .027-.492q0-.076-.003-.129l.004.004q.022.165.109.383.317.85 1.05 1.508.716.639 1.91.64a2.6 2.6 0 0 0 1.067-.218q.147-.066.235-.125c-.008.007-.036.027-.078.07.316-.3.52-.586.617-.867q-.101.294-.102 1.12v1.196q.002-.234-.043-.445l.102.508.043.511q.28 3.334-.766 6.727l-.031.098-.031.101a68 68 0 0 1-2.457 6.29 587 587 0 0 1-3.032 6.605q-1.845 3.96-5.086 10.441-.032.066-.05.113h-.004c.035-.101.066-.234.086-.39q.152-1.026-.235-2.133-.24-.715-.828-1.383a5 5 0 0 0-1.754-1.293c-.984-.433-1.949-.5-2.887-.2a4.7 4.7 0 0 0-1.862 1.103q-.323.315-.406.477l8.086 4.043-8.207-3.79a750 750 0 0 1 3.492-7.448 276 276 0 0 0 3.848-8.532l8.293 3.586-8.461-3.171q.868-2.32 2.316-3.989 2.473-2.847 6.082-3.492c2.278-.406 4.488-.074 6.64 1.004q1.86.927 3.528 2.594l.203.21q6.06 6.465 9.664 10.544c2.68 3.039 4.711 5.668 6.09 7.898q1.799 2.823 1.89 5.852a10.04 10.04 0 0 1-.902 4.515 10.1 10.1 0 0 1-2.71 3.57q-2.662 2.251-6.22 2.528-2.358.18-4.859-.59l-.226-.07-.223-.082c-2.62-.957-4.55-1.438-5.781-1.438q-3.276.001-5.004 1.567-.685.627-.988 1.336-.36.844-.36 2.12c0 1.473.348 2.743 1.043 3.801.813 1.239 1.926 2.227 3.348 2.957q2.294 1.184 5.011 1.184 4.577.002 7.847-1.8 2.438-1.336 3.633-4.395l.067-.164.07-.164q1.623-3.704 4.922-5.684 3.21-1.926 7.176-1.707l.386.023.387.055q.667.095 1.2.14.42.036.972.036 3.28-.001 7.137-2.375c2.64-1.625 5.476-5.254 8.5-10.883q-.37.697-.442 1.688a5.3 5.3 0 0 0 .477 2.636q.433.944 1.336 1.446 1.219.687 2.738.394 1.681-.322 2.883-1.441c.39-.364.66-.696.8-1Zm-50.099 13.793q.195.002.32-.02l-.016.008a1.6 1.6 0 0 0-.515.301 6.3 6.3 0 0 0 1.465-1.742l7.898 4.39-8.422-3.277a5.7 5.7 0 0 0-.363 1.875 6.95 6.95 0 0 0 .644 3.133 6.7 6.7 0 0 0 1.782 2.352c.422.355.84.617 1.261.797l3.504-8.329-3.215 8.442a86 86 0 0 0-5.027-1.735q-1.477-.457-2.633-.457-.192 0-.273.012.124-.017.336-.086 1.159-.376 2.113-1.426 1.025-1.125 1.024-2.894 0 .167.007.203a2 2 0 0 0-.156-.453 3.3 3.3 0 0 0-1.2-1.395q.459.3 1.466.301m0 18.074q-6.422 0-11.403-3.28a14.44 14.44 0 0 1-5.277-6.138c-1.008-2.183-1.508-4.62-1.508-7.312q-.002-5.22 3.676-9.262 4.013-4.418 11.195-4.418 3.886 0 7.977 1.266 3.065.948 6.117 2.113l.145.055.144.062c2.992 1.258 5.113 3.239 6.356 5.934q2.01 4.347.152 9.117l-.223.574-.3.54q-2.127 3.825-5.567 6.744-4.717 4.003-11.484 4.004m0 0" fill="#fff"/><g clip-path="url(#ce7419431e)"><path d="M436.23 87.423c0-1.157-.32-2.242-.961-3.266q-.814-1.299-2.004-1.969 1.776.997 3.55 2.059 2.903 1.747 4.493 4.605 1.551 2.796 1.55 6.13 0 2.927-1.1 5.488a13 13 0 0 1-3.485 4.734q-4.008 3.457-8.43 3.457v-9.035l1 8.98q-5.707.634-10.125-2.37a43 43 0 0 0-2.918-1.817q-5.14-2.907-7.765-7.403-2.625-4.499-2.625-9.46.001-6.81 4-12.915 3.054-4.657 7.46-8.988a226 226 0 0 1 7.801-7.316q3.272-2.929 5.36-5.453c.308-.38.507-.66.59-.852q-.141.323-.141.902 0 .439.285 1.082.462 1.052 1.367 1.739a1 1 0 0 0 .086.058c-.004 0-.012-.008-.031-.011a3 3 0 0 0-.656-.149q-.909-.129-1.36-.187l.059.007q-.052-.004-.13-.003h-1.194q-1.97 0-3.266.609c-1.336.625-2.617 1.465-3.852 2.523l-.117.098-.12.098q-.113.088-.224.37c-.753 1.915-1.789 3.567-3.097 4.962a13.75 13.75 0 0 1-5.25 3.5l-3.176-8.462 3.672 8.258a15.1 15.1 0 0 1-6.191 1.308q-3.234-.001-5.98-1.402c-1.919-.977-3.497-2.383-4.743-4.211q-2.69-3.96-2.692-8.863c0-3.582.903-6.817 2.7-9.696l7.664 4.79-7.914-4.36q5.056-9.182 15.55-13.793 9.434-4.149 19.82-4.148 6.54 0 12.513 2.226 6.8 2.542 11.152 8.028 4.739 5.982 4.738 14.964 0 7.348-3.812 13.899-3.2 5.491-7.91 10.12-4.114 4.049-8.32 7.54-3.546 2.942-5.802 5.258-.456.468-.515.578.494-.893.496-2.242m-18.074 0q0-5.668 5.152-10.953c1.945-1.997 4.344-4.176 7.195-6.547a115 115 0 0 0 7.2-6.524c1.988-1.953 3.64-4.058 4.957-6.324.906-1.555 1.359-3.16 1.359-4.805q.002-2.69-.828-3.738-1.224-1.54-3.309-2.32c-1.941-.727-4.008-1.086-6.191-1.086-4.395 0-8.574.87-12.547 2.617q-4.893 2.15-6.996 5.969l-.121.218-.13.211a.7.7 0 0 0 .067-.144q-.021.07-.02.262.001-.657-.437-1.301-.739-1.084-1.988-1.723-1.123-.574-2.234-.574-.593-.001-1.149.25l.246-.11.25-.093a4.1 4.1 0 0 0-1.57 1.043q-.405.434-.547.781 1.88-4.753 5.746-7.848l5.645 7.055-5.88-6.86q3.72-3.188 7.954-5.171 4.935-2.31 10.926-2.309h1.195q1.224-.001 2.312.133c.407.05.926.125 1.559.215 3.516.476 6.543 1.683 9.082 3.61a13.45 13.45 0 0 1 4.254 5.39q1.247 2.831 1.246 6.187 0 5.902-4.59 11.457-2.954 3.579-7.242 7.414a209 209 0 0 0-7.187 6.743q-3.023 2.964-5.008 6-1.044 1.588-1.043 3.008 0 .075.16.351c.11.188.484.457 1.125.82a62 62 0 0 1 4.11 2.563 3.8 3.8 0 0 0-1.356-.586 2.4 2.4 0 0 0-.676-.063l.496-.054h.5q-1.6.001-2.879.64a2.7 2.7 0 0 0-.504.297 4.84 4.84 0 0 0-1.297 1.785q-.375.869-.375 1.672-.002 1.349.723 2.649.762 1.369 2.004 2.117a114 114 0 0 0-3.082-1.79q-2.848-1.595-4.488-4.222c-1.196-1.906-1.79-4.012-1.79-6.312m8.504 41.664q-5.374-.001-9.805-3.664-4.863-4.031-5.438-11.149a28.5 28.5 0 0 1 .004-4.656q.662-6.611 5.254-10.246c2.703-2.14 5.813-3.215 9.324-3.215 3.868 0 7.38 1.254 10.528 3.754q2.712 2.155 4.207 5.184 1.44 2.917 1.586 6.34l-9.028.394 8.996-.871q.365 3.779-.566 6.988-1.137 3.913-4.031 6.637-4.799 4.505-11.031 4.504m0-18.07q-.51-.001-.993.203-.275.116-.351.191-.71.662-.95 1.496-.045.158-.05.227c.008-.102 0-.246-.016-.438l-.023-.238-.011-.237q.017.375.262.867.3.608.758.976l-.008-.011q.076.04.175.082.274.098.547.097 1.021 0 1.895-.691.854-.676 1.293-1.602c.14-.293.219-.566.246-.82a10.5 10.5 0 0 0 0 1.715q.011.142.027.195c-.02-.07-.05-.16-.101-.273q-.312-.702-.98-1.258a2 2 0 0 0-.481-.254q-.584-.228-1.238-.227m0 0" fill="#fff"/></g><path d="M80.722 88.618q1.06-2.25 2.781-2.578 1.733-.342 3.39.594a5.7 5.7 0 0 1 2.454 2.656q.796 1.723-.266 3.703-5.705 10.612-11.75 14.328-6.034 3.703-11.86 3.703-.923 0-1.718-.062-.797-.06-1.734-.188-2.392-.138-3.313 1.985c-1.593 4.062-4.164 7.066-7.703 9.015q-5.297 2.92-12.187 2.922-4.91 0-9.157-2.187-4.253-2.191-6.764-6.032-2.52-3.855-2.517-8.765-.002-6.233 4.297-10.14 4.311-3.922 11.078-3.923 3.452.001 8.89 2 1.734.535 2.595-.203.857-.734-.079-2.187c-1.148-1.852-2.89-4.11-5.234-6.766q-3.518-3.983-9.484-10.344-2.52-2.514-3.703.657a289 289 0 0 1-3.985 8.828 662 662 0 0 0-3.453 7.359q-1.19 2.392-3.047 2.984c-1.242.399-2.41.356-3.516-.125q-1.653-.733-2.312-2.656-.668-1.92.656-4.578 3.188-6.375 4.969-10.219a464 464 0 0 0 2.984-6.5 56 56 0 0 0 2.125-5.437q.53-1.718.391-3.313a7 7 0 0 1-.125-1.311v-1.203q0-4.64 2.313-6.828 2.324-2.204 4.984-2.204c1.5 0 2.867.559 4.11 1.672q1.858 1.659 1.859 4.969c0 .617-.047 1.234-.141 1.86a9 9 0 0 1-.531 1.984q-.535 2.126.531 3.718 3.857 5.44 7.703 9.485 3.843 4.049 7.094 7.562 3.248 3.517 5.5 7.297 2.262 3.768 3.047 8.672.404 2.27 2.531 2.656.919.142 1.844.204c.625.042 1.242.062 1.86.062q4.511 0 8.093-3.437 3.575-3.453 6.5-9.688m-41.907 26.655c2.289 0 4.164-.617 5.625-1.86q2.202-1.855 3.515-4.233.937-2.39-1.578-3.454a96 96 0 0 0-5.578-1.921c-1.855-.57-3.625-.86-5.312-.86q-3.177 0-4.5 1.453-1.33 1.453-1.329 3.188 0 4.113 2.72 5.906 2.717 1.781 6.437 1.781m0 0" fill="#562230"/><path d="M144.668 88.618q1.043-2.12 2.843-2.578a4.9 4.9 0 0 1 3.454.328q1.653.783 2.375 2.516.732 1.72-.329 4.109-1.863 4.253-5.765 8.5-3.91 4.238-9.547 6.828-5.643 2.58-12.937 2.188-1.988-.141-3.313 1.453-2.925 3.72-7.297 5.828-4.376 2.123-10.61 2.125-7.16 0-12-3.516-4.844-3.514-7.358-9.484-2.53-5.967-2.53-13.267 0-5.56 1.733-11.062c1.149-3.676 2.801-6.973 4.97-9.89q3.246-4.373 7.765-6.5a9.5 9.5 0 0 0 1.515-.782q.594-.404 1.391-.938 3.593-2.514 8.235-2.515 6.233.001 10.937 3.64c3.133 2.43 5.61 5.524 7.422 9.282q2.718 5.642 2.719 11.484-.001 2.909-.266 5.828a68 68 0 0 1-.797 5.844q-.269 1.313.656 2.187.936.863 2.797.453 5.437-.92 8.688-4.625 3.246-3.716 5.25-7.437m-30.11 9.281q1.187.8 2.172.344.996-.467 1.266-1.797.404-2.12.672-4.312a38 38 0 0 0 .265-4.578q0-3.574-1.53-7.36-1.535-3.779-4.188-6.297-2.643-2.53-6.094-2.531h-.125q-.14 0-1.078.61a5.8 5.8 0 0 0-1.578 1.515q-.27.408-.938 1.063l-1.187 1.187q-.534.533-.797 1.594c-.18.71-.266 1.289-.266 1.734q0 3.317 2.25 7.031a38.8 38.8 0 0 0 5.375 6.891q3.122 3.189 5.781 4.906m-23.485-3.983q-.001 4.909 1.984 8.687c1.332 2.524 3.036 4.516 5.11 5.985q3.122 2.188 6.437 2.187c1.852 0 3.489-.398 4.907-1.203q1.452-.797 1.312-1.922-.129-1.125-1.453-1.922c-2.918-1.945-5.684-4.312-8.297-7.093a47.7 47.7 0 0 1-6.687-9.094c-.618-.969-1.235-1.383-1.86-1.25q-.925.188-1.187 2.047a23 23 0 0 0-.203 1.797 24 24 0 0 0-.063 1.78m0 0" fill="#562230"/><path d="M264.836 88.618q1.06-2.123 2.781-2.453 1.718-.327 3.313.531 1.594.86 2.39 2.594.797 1.723-.124 3.703-3.597 7.423-7.844 11.406-4.237 3.985-8.422 5.516-4.173 1.517-7.61 1.516-8.501 0-13.734-7.032-5.237-7.03-4.578-19.093.529-8.093-.672-11.204-1.188-3.124-3.437-3.125-2.392.002-5.172 2.453-2.782 2.456-5.313 5.844c-1.68 2.25-3.09 4.352-4.234 6.297q-.938 1.455-.938 3.438a813 813 0 0 0-.125 12.547q0 4.564-.14 6.89-.127 2.332-.594 3.328-.47.985-1.531 1.782-.659.534-1.188.734-.533.187-1.062.328-.394.127-.922.125c-2.031 0-3.383-.86-4.047-2.578-.668-1.727-1-3.61-1-5.64q-.001-1.857.203-3.72.201-1.857.203-3.187 0-2.637.063-5.297.06-2.654.062-5.172 0-4.78-.406-8.828-.392-4.044-1.516-6.5-1.125-2.451-3.375-2.453-3.063 0-6.109 2.063-3.048 2.05-5.703 4.968-2.66 2.925-4.64 5.438-.925 1.33-1.188 3.312-.534 9.423-.61 14.672-.064 5.236-.328 8.281c-.086 2.563-.437 4.778-1.062 6.641q-.924 2.78-4.375 2.781c-1.149 0-2.25-.355-3.313-1.062-1.062-.711-1.554-1.68-1.468-2.922q.262-9.012.796-16.969.53-7.968.532-14.86v-9.343c0-2.613-.618-3.922-1.844-3.922q-1.736.001-4.985 5.234-3.25 5.238-8.812 17.314-1.206 2.39-2.922 2.86-1.72.455-3.312-.407-1.593-.855-2.188-2.719-.608-1.858.453-4.109a426 426 0 0 1 4.781-9.751q2.514-4.969 5.438-9.14 2.918-4.186 6.234-6.766 3.31-2.592 7.032-2.594 4.639 0 6.765 2.719c1.414 1.812 2.301 3.914 2.657 6.297q.261 2.52 1.984.797 3.842-3.844 8.219-6.157 4.373-2.326 8.5-2.328 3.436 0 6.625 1.922c2.125 1.281 3.894 3.383 5.312 6.297q1.185 2.782 3.172.39 3.844-4.762 7.828-6.953 3.984-2.186 7.688-2.187 6.637 0 9.484 3.516 2.859 3.515 3.516 8.953c.445 3.625.671 7.43.671 11.406q.125 9.282 2.376 13.203 2.262 3.907 6.78 3.906 3.435 0 6.36-2.312a26.7 26.7 0 0 0 5.172-5.516c1.5-2.125 2.648-4.023 3.453-5.703m0 0" fill="#562230"/><path d="M328.777 88.618q1.043-2.12 2.843-2.578a4.9 4.9 0 0 1 3.454.328q1.653.783 2.375 2.516.733 1.72-.329 4.109-1.863 4.253-5.765 8.5-3.91 4.238-9.547 6.828-5.643 2.58-12.937 2.188-1.988-.141-3.313 1.453-2.925 3.72-7.297 5.828-4.376 2.123-10.61 2.125-7.16 0-12-3.516-4.844-3.514-7.358-9.484-2.53-5.967-2.53-13.267 0-5.56 1.733-11.062c1.149-3.676 2.801-6.973 4.97-9.89q3.246-4.373 7.765-6.5a9.5 9.5 0 0 0 1.515-.782q.594-.404 1.391-.938 3.593-2.514 8.235-2.515 6.233.001 10.937 3.64c3.133 2.43 5.61 5.524 7.422 9.282q2.718 5.642 2.719 11.484-.001 2.909-.266 5.828a68 68 0 0 1-.797 5.844q-.269 1.313.656 2.187.936.863 2.797.453 5.437-.92 8.688-4.625 3.246-3.716 5.25-7.437m-30.11 9.281q1.187.8 2.172.344.996-.467 1.266-1.797.404-2.12.672-4.312a38 38 0 0 0 .265-4.578q0-3.574-1.53-7.36-1.535-3.779-4.188-6.297-2.643-2.53-6.094-2.531h-.125q-.14 0-1.078.61a5.8 5.8 0 0 0-1.578 1.515q-.27.408-.938 1.063l-1.187 1.187q-.534.533-.797 1.594-.268 1.066-.266 1.734 0 3.317 2.25 7.031a38.8 38.8 0 0 0 5.375 6.891q3.122 3.189 5.781 4.906m-23.485-3.983q-.001 4.909 1.984 8.687c1.332 2.524 3.036 4.516 5.11 5.985q3.122 2.188 6.437 2.187c1.852 0 3.489-.398 4.907-1.203q1.452-.797 1.312-1.922-.129-1.125-1.453-1.922c-2.918-1.945-5.684-4.312-8.297-7.093a47.7 47.7 0 0 1-6.687-9.094c-.618-.969-1.235-1.383-1.86-1.25q-.925.188-1.187 2.047a23 23 0 0 0-.203 1.797 24 24 0 0 0-.063 1.78m0 0" fill="#562230"/><path d="M396.414 88.618q1.06-2.25 2.781-2.578 1.733-.342 3.39.594a5.7 5.7 0 0 1 2.454 2.656q.796 1.723-.266 3.703-5.705 10.612-11.75 14.328-6.034 3.703-11.86 3.703-.923 0-1.718-.062-.797-.06-1.734-.188-2.392-.138-3.313 1.985c-1.593 4.062-4.164 7.066-7.703 9.015q-5.297 2.92-12.187 2.922-4.91 0-9.157-2.187-4.253-2.191-6.764-6.032-2.52-3.855-2.517-8.765-.002-6.233 4.297-10.14 4.311-3.922 11.078-3.923 3.452.001 8.89 2 1.734.535 2.595-.203.857-.734-.079-2.187c-1.148-1.852-2.89-4.11-5.234-6.766q-3.518-3.983-9.484-10.344-2.52-2.514-3.703.657a289 289 0 0 1-3.985 8.828 662 662 0 0 0-3.453 7.359q-1.19 2.392-3.047 2.984c-1.242.399-2.41.356-3.516-.125q-1.653-.733-2.312-2.656-.668-1.92.656-4.578 3.188-6.375 4.969-10.219a464 464 0 0 0 2.984-6.5 56 56 0 0 0 2.125-5.437c.352-1.145.485-2.25.391-3.313a7 7 0 0 1-.125-1.311v-1.203q0-4.64 2.313-6.828 2.324-2.204 4.984-2.204c1.5 0 2.867.559 4.11 1.672q1.858 1.659 1.859 4.969c0 .617-.047 1.234-.141 1.86a9 9 0 0 1-.531 1.984q-.535 2.126.531 3.718 3.857 5.44 7.703 9.485 3.843 4.049 7.094 7.562 3.248 3.517 5.5 7.297 2.262 3.768 3.047 8.672.404 2.27 2.531 2.656.919.142 1.844.204c.625.042 1.242.062 1.86.062q4.511 0 8.093-3.437 3.575-3.453 6.5-9.688m-41.907 26.655c2.289 0 4.164-.617 5.625-1.86q2.202-1.855 3.515-4.233.937-2.39-1.578-3.454a96 96 0 0 0-5.578-1.921c-1.855-.57-3.625-.86-5.312-.86q-3.177 0-4.5 1.453-1.33 1.453-1.329 3.188 0 4.113 2.72 5.906 2.717 1.781 6.437 1.781m72.68-27.859q-.002 1.734 1.656 2.672 1.654.926 3.313 1.922 1.67.986 1.672 2.968c0 1.418-.493 2.547-1.47 3.391q-1.453 1.252-2.515 1.25c-1.594.18-2.945-.11-4.047-.86a55 55 0 0 0-3.515-2.187q-3.049-1.717-4.438-4.11c-.93-1.593-1.39-3.226-1.39-4.905 0-2.739.835-5.391 2.515-7.954q2.514-3.855 6.235-7.5a230 230 0 0 1 7.484-7.015c2.52-2.258 4.617-4.407 6.297-6.438q2.53-3.059 2.531-5.718 0-2.907-1.922-4.36-1.923-1.464-4.844-1.875-.925-.123-1.453-.187a9 9 0 0 0-1.203-.079h-1.187c-2.657 0-5.028.493-7.11 1.47q-3.112 1.453-5.89 3.843-1.987 1.595-2.985 4.11c-.668 1.68-1.703 2.78-3.11 3.312a6.2 6.2 0 0 1-2.53.531q-2.126.002-3.25-1.656-1.126-1.653-1.126-3.782-.001-2.779 1.328-4.907 3.576-6.499 11.265-9.875c5.133-2.257 10.532-3.39 16.188-3.39q4.904.001 9.344 1.656 4.452 1.657 7.234 5.172 2.796 3.517 2.797 9.36-.002 4.908-2.594 9.359-2.58 4.44-6.437 8.218a122 122 0 0 1-7.765 7.033q-3.909 3.252-6.5 5.906-2.578 2.644-2.578 4.625m-.531 32.64q-2.126 0-4.047-1.593-1.924-1.594-2.188-4.906a20 20 0 0 1 0-3.188q.265-2.654 1.86-3.906 1.592-1.266 3.718-1.266c1.77 0 3.407.602 4.907 1.797q2.25 1.782 2.39 4.828.388 4.126-1.797 6.172-2.19 2.063-4.843 2.063m0 0" fill="#562230"/></g></g></svg>