<svg xmlns="http://www.w3.org/2000/svg" viewBox="0 0 283.5 283.5" version="1.0"><defs><clipPath id="dde18628ea"><path d="M0 0h283v283H0Zm0 0"/></clipPath><clipPath id="60fce7a7ba"><path d="M0 0h55v71H0z"/></clipPath><clipPath id="8fd3a74d49"><path d="M124 69h34v32h-34Zm0 0"/></clipPath><clipPath id="6239e8ecd0"><path d="m118.129 84.547 26.77-22.117 18.933 22.922-26.77 22.117Zm0 0"/></clipPath><clipPath id="87fe267099"><path d="M131.477 73.52c-7.372 6.09-9.11 16.16-3.883 22.488 5.23 6.328 15.445 6.523 22.82.43 7.371-6.09 9.11-16.16 3.879-22.489-5.227-6.328-15.441-6.523-22.816-.43m0 0"/></clipPath><clipPath id="14b897c863"><path d="M0 0h34v32H0Zm0 0"/></clipPath><clipPath id="16f55658ae"><path d="M-5.871 15.547 20.899-6.57l18.933 22.922-26.77 22.117Zm0 0"/></clipPath><clipPath id="6e129d37d7"><path d="M7.477 4.52c-7.372 6.09-9.11 16.16-3.883 22.488 5.23 6.328 15.445 6.523 22.82.43 7.371-6.09 9.11-16.16 3.879-22.489-5.227-6.328-15.441-6.523-22.816-.43m0 0"/></clipPath><clipPath id="1be49af019"><path d="M0 0h34v32H0z"/></clipPath><clipPath id="fe85e27952"><path d="M6 74h36v18H6Zm0 0"/></clipPath><clipPath id="44dc88346a"><path d="m10.297 66.45 40.45 7.734-6.61 34.566-40.45-7.734Zm0 0"/></clipPath><clipPath id="f40f650141"><path d="m10.297 66.45 40.45 7.734-6.61 34.566-40.45-7.734Zm0 0"/></clipPath><clipPath id="d4ea0b54b7"><path d="M28 79h18v27H28Zm0 0"/></clipPath><clipPath id="16e1e52857"><path d="m10.297 66.45 40.45 7.734-6.61 34.566-40.45-7.734Zm0 0"/></clipPath><clipPath id="659e07ecf1"><path d="m10.297 66.45 40.45 7.734-6.61 34.566-40.45-7.734Zm0 0"/></clipPath><clipPath id="806f8bb6f4"><path d="M38 73h13v11H38Zm0 0"/></clipPath><clipPath id="a9568a9426"><path d="m10.297 66.45 40.45 7.734-6.61 34.566-40.45-7.734Zm0 0"/></clipPath><clipPath id="a6179ca7ea"><path d="m10.297 66.45 40.45 7.734-6.61 34.566-40.45-7.734Zm0 0"/></clipPath><clipPath id="ce1e098499"><path d="M71 70h33v36H71Zm0 0"/></clipPath><clipPath id="93d41b6432"><path d="m80.48 64.094 28.149 17.12-18.285 30.067-28.149-17.117Zm0 0"/></clipPath><clipPath id="93413f777e"><path d="m80.48 64.094 28.149 17.12-18.285 30.067-28.149-17.117Zm0 0"/></clipPath><clipPath id="548c51f3f4"><path d="M183.79 70.031H205V89h-21.21Zm0 0"/></clipPath><clipPath id="948667c705"><path d="M197 71h14.496v9H197Zm0 0"/></clipPath><clipPath id="ce17fb2c1d"><path d="M242 70h33v36h-33Zm0 0"/></clipPath><clipPath id="2061837561"><path d="m236.848 74.031 35.949-7.332 7.031 34.48-35.95 7.333Zm0 0"/></clipPath><clipPath id="ecd51db8a0"><path d="m236.848 74.031 35.949-7.332 7.332 35.95-35.95 7.331Zm0 0"/></clipPath><clipPath id="690837b9d8"><path d="M12 146h28v15H12Zm0 0"/></clipPath><clipPath id="7c6a013a19"><path d="m6.832 128.426 29.41-5.664 6.656 34.558-29.414 5.664Zm0 0"/></clipPath><clipPath id="1401d79aaa"><path d="m6.832 128.426 29.41-5.664 6.656 34.558-29.414 5.664Zm0 0"/></clipPath><clipPath id="1fd3c10914"><path d="M20 124h20v28H20Zm0 0"/></clipPath><clipPath id="70a4789d81"><path d="m6.832 128.426 29.41-5.664 6.656 34.558-29.414 5.664Zm0 0"/></clipPath><clipPath id="9d192dab4d"><path d="m6.832 128.426 29.41-5.664 6.656 34.558-29.414 5.664Zm0 0"/></clipPath><clipPath id="f8964f3559"><path d="M65 126h33v34H65Zm0 0"/></clipPath><clipPath id="22ba2302b1"><path d="m69.613 121.207 35.457 9.426-9.043 34.012-35.457-9.426Zm0 0"/></clipPath><clipPath id="5cfb99a664"><path d="m69.613 121.207 35.457 9.426-9.425 35.46-35.457-9.429Zm0 0"/></clipPath><clipPath id="3c2467dbf1"><path d="M118.18 128H152v21h-33.82Zm0 0"/></clipPath><clipPath id="4839d1218a"><path d="M142 132h15v28.5h-15Zm0 0"/></clipPath><clipPath id="42f54503f6"><path d="M148 125.309h11.363V136H148Zm0 0"/></clipPath><clipPath id="d816e86b9a"><path d="M178.742 125.309h32.946V160.5h-32.946Zm0 0"/></clipPath><clipPath id="3f45a2dd18"><path d="M0 0h49v67H0z"/></clipPath><clipPath id="0e8881d5f9"><path d="M238 124h33v33h-33Zm0 0"/></clipPath><clipPath id="d8d0d84ba7"><path d="m232.074 142 24.61-24.5 20.972 21.074-24.61 24.496Zm0 0"/></clipPath><clipPath id="2158e52c02"><path d="M244.348 129.781c-6.778 6.75-7.578 16.934-1.786 22.754 5.79 5.817 15.981 5.067 22.758-1.683 6.778-6.747 7.578-16.934 1.785-22.75-5.789-5.82-15.98-5.067-22.757 1.68m0 0"/></clipPath><clipPath id="6d9dccbaa3"><path d="M0 0h33v33H0Zm0 0"/></clipPath><clipPath id="ea6f23f935"><path d="m-5.926 18 24.61-24.5 20.972 21.074-24.61 24.496Zm0 0"/></clipPath><clipPath id="c33a6010f7"><path d="M6.348 5.781C-.43 12.531-1.23 22.715 4.563 28.535c5.789 5.817 15.98 5.067 22.757-1.683 6.778-6.747 7.578-16.934 1.785-22.75-5.789-5.82-15.98-5.067-22.757 1.68m0 0"/></clipPath><clipPath id="d7380a9e7a"><path d="M0 0h33v33H0z"/></clipPath><clipPath id="f0e64dcf10"><path d="M64 19h22v18H64Zm0 0"/></clipPath><clipPath id="e641ec514f"><path d="m64 26.215 22.422-16.27L107.09 38.43 84.668 54.7Zm0 0"/></clipPath><clipPath id="2e0ee26c01"><path d="m64 26.215 22.422-16.27L107.09 38.43 84.668 54.7Zm0 0"/></clipPath><clipPath id="154e40ea47"><path d="M77 11h12v15H77Zm0 0"/></clipPath><clipPath id="67b49cbb1e"><path d="m64 26.215 22.422-16.27L107.09 38.43 84.668 54.7Zm0 0"/></clipPath><clipPath id="91aa3fa6f5"><path d="m64 26.215 22.422-16.27L107.09 38.43 84.668 54.7Zm0 0"/></clipPath><clipPath id="9b3a661ef6"><path d="M80 18h23v28H80Zm0 0"/></clipPath><clipPath id="3cdc85c689"><path d="m64 26.215 22.422-16.27L107.09 38.43 84.668 54.7Zm0 0"/></clipPath><clipPath id="89d0d2c27c"><path d="m64 26.215 22.422-16.27L107.09 38.43 84.668 54.7Zm0 0"/></clipPath><clipPath id="a5c5f624a7"><path d="M126 16h35v35h-35Zm0 0"/></clipPath><clipPath id="33e4277c8d"><path d="m119.809 22.438 30.375-12.762 13.632 32.441-30.375 12.766Zm0 0"/></clipPath><clipPath id="1ddacefe92"><path d="m119.809 22.438 30.375-12.762 13.632 32.441-30.375 12.766Zm0 0"/></clipPath><clipPath id="500dadf42b"><path d="M239 16h29v28h-29Zm0 0"/></clipPath><clipPath id="b950b7ab0d"><path d="m233.633 21.023 39.644-11.156 9.536 33.875-39.645 11.156Zm0 0"/></clipPath><clipPath id="c827f0660e"><path d="m233.633 21.023 39.644-11.156 9.536 33.875-39.645 11.156Zm0 0"/></clipPath><clipPath id="beed3758e7"><path d="M261 19h16v29h-16Zm0 0"/></clipPath><clipPath id="448ab978f8"><path d="m233.633 21.023 39.644-11.156 9.536 33.875-39.645 11.156Zm0 0"/></clipPath><clipPath id="dc71779c47"><path d="m233.633 21.023 39.644-11.156 9.536 33.875-39.645 11.156Zm0 0"/></clipPath><clipPath id="514b131a66"><path d="M263 10h12v13h-12Zm0 0"/></clipPath><clipPath id="1ae9138cb3"><path d="m233.633 21.023 39.644-11.156 9.536 33.875-39.645 11.156Zm0 0"/></clipPath><clipPath id="0b6618a1ec"><path d="m233.633 21.023 39.644-11.156 9.536 33.875-39.645 11.156Zm0 0"/></clipPath><clipPath id="ff78f786aa"><path d="M180 33h30v18h-30Zm0 0"/></clipPath><clipPath id="e94b2d109d"><path d="m186.98 12 29.266 6.375-7.488 34.387-29.266-6.375Zm0 0"/></clipPath><clipPath id="62b4ae9039"><path d="m186.98 12 29.266 6.375-7.488 34.387-29.266-6.375Zm0 0"/></clipPath><clipPath id="3a031495f6"><path d="M196 16h16v29h-16Zm0 0"/></clipPath><clipPath id="2072be7f8c"><path d="m186.98 12 29.266 6.375-7.488 34.387-29.266-6.375Zm0 0"/></clipPath><clipPath id="cb84ed299c"><path d="m186.98 12 29.266 6.375-7.488 34.387-29.266-6.375Zm0 0"/></clipPath><clipPath id="0143635e8f"><path d="M0 0h51v68H0z"/></clipPath><clipPath id="c549c57843"><path d="M10 13h32v35H10Zm0 0"/></clipPath><clipPath id="f267c55e3f"><path d="M5.113 39.89 19.371 8.228l27.11 12.207-14.258 31.664Zm0 0"/></clipPath><clipPath id="8d36e2d782"><path d="M12.223 24.102c-3.926 8.718-1.04 18.52 6.445 21.89 7.488 3.371 16.738-.965 20.664-9.683 3.926-8.723 1.043-18.524-6.445-21.895-7.485-3.371-16.735.965-20.664 9.688m0 0"/></clipPath><clipPath id="87150d1ab3"><path d="M0 0h32v35H0Zm0 0"/></clipPath><clipPath id="971924f6ba"><path d="M-4.887 26.89 9.371-4.772l27.11 12.207-14.258 31.664Zm0 0"/></clipPath><clipPath id="88877cbbf7"><path d="M2.223 11.102c-3.926 8.718-1.04 18.52 6.445 21.89 7.488 3.371 16.738-.965 20.664-9.683 3.926-8.723 1.043-18.524-6.445-21.895-7.485-3.371-16.735.965-20.664 9.688m0 0"/></clipPath><clipPath id="429539f0e0"><path d="M0 0h32v35H0z"/></clipPath><clipPath id="4e00ce8fad"><path d="M244 180h22v19h-22Zm0 0"/></clipPath><clipPath id="dd1110f1dd"><path d="m244.145 180.473 27.59-2.504 3.183 35.05-27.594 2.504Zm0 0"/></clipPath><clipPath id="4c0dc24a48"><path d="m244.145 180.473 27.59-2.504 3.183 35.05-27.594 2.504Zm0 0"/></clipPath><clipPath id="04d00fdef8"><path d="M258 179h14v10h-14Zm0 0"/></clipPath><clipPath id="7393a2b3b6"><path d="m244.145 180.473 27.59-2.504 3.183 35.05-27.594 2.504Zm0 0"/></clipPath><clipPath id="d929345624"><path d="m244.145 180.473 27.59-2.504 3.183 35.05-27.594 2.504Zm0 0"/></clipPath><clipPath id="68e04a0819"><path d="M256 183h16v31h-16Zm0 0"/></clipPath><clipPath id="db062f6fa0"><path d="m244.145 180.473 27.59-2.504 3.183 35.05-27.594 2.504Zm0 0"/></clipPath><clipPath id="085d4a8781"><path d="m244.145 180.473 27.59-2.504 3.183 35.05-27.594 2.504Zm0 0"/></clipPath><clipPath id="e581a2e627"><path d="M15 179h33v36H15Zm0 0"/></clipPath><clipPath id="eb2dda2648"><path d="m7.86 187.191 34.054-13.652 13.094 32.668-34.055 13.652Zm0 0"/></clipPath><clipPath id="1f46579483"><path d="m7.86 187.191 34.054-13.652 13.652 34.059-34.058 13.652Zm0 0"/></clipPath><clipPath id="4b906b17a7"><path d="M125 197h30v18h-30Zm0 0"/></clipPath><clipPath id="4ee53b2844"><path d="m133.867 175.523 28.586 8.938-10.5 33.586-28.586-8.934Zm0 0"/></clipPath><clipPath id="dc899567d6"><path d="m133.867 175.523 28.586 8.938-10.5 33.586-28.586-8.934Zm0 0"/></clipPath><clipPath id="bfe585a6e0"><path d="M142 181h15v29h-15Zm0 0"/></clipPath><clipPath id="a155709942"><path d="m133.867 175.523 28.586 8.938-10.5 33.586-28.586-8.934Zm0 0"/></clipPath><clipPath id="0aaaa8c269"><path d="m133.867 175.523 28.586 8.938-10.5 33.586-28.586-8.934Zm0 0"/></clipPath><clipPath id="6aad4de923"><path d="M0 0h56v71H0z"/></clipPath><clipPath id="fb30ba89c8"><path d="M69 179h32v35H69Zm0 0"/></clipPath><clipPath id="b669abf6ba"><path d="m64.613 207.348 12.922-32.23 27.594 11.062-12.918 32.23Zm0 0"/></clipPath><clipPath id="9f17ecd3f4"><path d="M71.059 191.277c-3.559 8.875-.27 18.547 7.351 21.602s16.684-1.664 20.242-10.543c3.559-8.875.266-18.547-7.355-21.602s-16.684 1.664-20.238 10.543m0 0"/></clipPath><clipPath id="97085d68c0"><path d="M0 0h32v35H0Zm0 0"/></clipPath><clipPath id="631ef052bc"><path d="M-4.387 28.348 8.535-3.882 36.13 7.18 23.21 39.41Zm0 0"/></clipPath><clipPath id="ca30ee9183"><path d="M2.059 12.277C-1.5 21.152 1.789 30.824 9.41 33.88s16.684-1.664 20.242-10.543c3.559-8.875.266-18.547-7.355-21.602S5.613 3.398 2.059 12.277m0 0"/></clipPath><clipPath id="7b36c5f60b"><path d="M0 0h32v35H0z"/></clipPath><clipPath id="dc3e3bdb04"><path d="M178 185h38v15h-38Zm0 0"/></clipPath><clipPath id="dc9503fc09"><path d="m190.11 170.988 35.35 21.121-18.046 30.211-35.355-21.12Zm0 0"/></clipPath><clipPath id="54c7a7d1b9"><path d="m190.11 170.988 35.35 21.121-18.046 30.211-35.355-21.12Zm0 0"/></clipPath><clipPath id="f5cecffbc6"><path d="M193 192h24v23h-24Zm0 0"/></clipPath><clipPath id="05d7a9e853"><path d="m190.11 170.988 35.35 21.121-18.046 30.211-35.355-21.12Zm0 0"/></clipPath><clipPath id="204178251c"><path d="m190.11 170.988 35.35 21.121-18.046 30.211-35.355-21.12Zm0 0"/></clipPath><clipPath id="571730433a"><path d="M212 189h13v9h-13Zm0 0"/></clipPath><clipPath id="c4d67bcf3c"><path d="m190.11 170.988 35.35 21.121-18.046 30.211-35.355-21.12Zm0 0"/></clipPath><clipPath id="900ecccd1e"><path d="M0 0h53v67H0z"/></clipPath><clipPath id="5933203694"><path d="M186 232h33v33h-33Zm0 0"/></clipPath><clipPath id="c984c3b2cd"><path d="m179.52 249.21 25.992-23.026 19.715 22.254-25.989 23.027Zm0 0"/></clipPath><clipPath id="38348ee98f"><path d="M192.48 237.73c-7.156 6.34-8.546 16.465-3.101 22.61s15.66 5.984 22.82-.36c7.156-6.343 8.547-16.464 3.102-22.609-5.446-6.144-15.66-5.984-22.82.36m0 0"/></clipPath><clipPath id="3c310ab9d0"><path d="M0 0h33v33H0Zm0 0"/></clipPath><clipPath id="7c4e8021d7"><path d="M-6.48 17.21 19.512-5.815l19.715 22.254-25.989 23.027Zm0 0"/></clipPath><clipPath id="460449872d"><path d="M6.48 5.73c-7.156 6.34-8.546 16.465-3.1 22.61s15.66 5.984 22.82-.36c7.156-6.343 8.547-16.464 3.102-22.609-5.446-6.144-15.66-5.984-22.82.36m0 0"/></clipPath><clipPath id="8ca1b5e145"><path d="M0 0h33v33H0z"/></clipPath><clipPath id="f5a3cb51cd"><path d="M242 236h35v35h-35Zm0 0"/></clipPath><clipPath id="512f8705f3"><path d="M266.355 227.55 282.973 256l-30.387 17.754-16.617-28.45Zm0 0"/></clipPath><clipPath id="f69d4dea9d"><path d="M266.355 227.55 282.973 256l-30.387 17.754-16.617-28.45Zm0 0"/></clipPath><clipPath id="bf49bd4563"><path d="M11 236h23v18H11Zm0 0"/></clipPath><clipPath id="126a5db0ee"><path d="m11.254 241.035 24.992-11.96 15.188 31.745-24.989 11.961Zm0 0"/></clipPath><clipPath id="749d67ad1d"><path d="m11.254 241.035 24.992-11.96 15.188 31.745-24.989 11.961Zm0 0"/></clipPath><clipPath id="3356ec7c4d"><path d="M25 230h13v14H25Zm0 0"/></clipPath><clipPath id="a6a70566cb"><path d="m11.254 241.035 24.992-11.96 15.188 31.745-24.989 11.961Zm0 0"/></clipPath><clipPath id="5fc882e8b3"><path d="m11.254 241.035 24.992-11.96 15.188 31.745-24.989 11.961Zm0 0"/></clipPath><clipPath id="4265e6319a"><path d="M28 237h18v28H28Zm0 0"/></clipPath><clipPath id="63c77f90c8"><path d="m11.254 241.035 24.992-11.96 15.188 31.745-24.989 11.961Zm0 0"/></clipPath><clipPath id="067630062c"><path d="m11.254 241.035 24.992-11.96 15.188 31.745-24.989 11.961Zm0 0"/></clipPath><clipPath id="810b1f470e"><path d="M67 253h29v16H67Zm0 0"/></clipPath><clipPath id="9a5c741166"><path d="m69.414 231.844 29.852 2.445-2.875 35.074-29.848-2.445Zm0 0"/></clipPath><clipPath id="f23c48eb55"><path d="m69.414 231.844 29.852 2.445-2.875 35.074-29.848-2.445Zm0 0"/></clipPath><clipPath id="fd9761c93d"><path d="M80 233h18v29H80Zm0 0"/></clipPath><clipPath id="e995ebfa49"><path d="m69.414 231.844 29.852 2.445-2.875 35.074-29.848-2.445Zm0 0"/></clipPath><clipPath id="2c9c17cd64"><path d="m69.414 231.844 29.852 2.445-2.875 35.074-29.848-2.445Zm0 0"/></clipPath><clipPath id="9b2b97a654"><path d="M0 0h21v33H0z"/></clipPath><clipPath id="7696c7224b"><path d="M0 0h19v33H0z"/></clipPath><clipPath id="9bc71e8221"><path d="M0 0h21v33H0z"/></clipPath><clipPath id="35971fdf49"><path d="M0 0h23v34H0z"/></clipPath><clipPath id="8024962bc1"><path d="M0 0h20v33H0z"/></clipPath><clipPath id="55713317b1"><path d="M0 0h283v283H0z"/></clipPath></defs><path fill="#fff" d="M0 0h283v283H0Zm0 0"/><g clip-path="url(#55713317b1)"><g clip-path="url(#dde18628ea)"><path fill="#fff" d="M-62.37-62.37h408.24v408.24H-62.37z"/></g><g clip-path="url(#60fce7a7ba)" transform="translate(111 51)"><path d="M46.3 38.111q-2.005 4.705-5.642 7.765a19.66 19.66 0 0 1-8.282 4.157q-4.641 1.09-9.718-.094-5.035-1.173-8-4.063-2.955-2.872-3.547-6.921-.597-4.044 1.39-8.766 2.063-4.687 5.688-7.75 3.638-3.06 8.313-4.172 4.686-1.123 9.718.063 5.046 1.19 7.969 4.062 2.936 2.86 3.563 6.922.622 4.063-1.454 8.797m-31.641-3.469q-.691 5.595 1.64 9.344 2.327 3.75 6.97 4.828.981.234 2.046.328 1.06.105 2.219.047 4.435-.142 7.984-2.14a16.76 16.76 0 0 0 5.844-5.454q2.28-3.45 2.812-7.922.687-5.59-1.656-9.36-2.344-3.78-6.969-4.858a15.5 15.5 0 0 0-4.234-.36q-4.424.13-7.984 2.156-3.55 2.017-5.828 5.47-2.269 3.456-2.844 7.921m0 0" fill="#f4611e"/></g><g clip-path="url(#8fd3a74d49)"><g clip-path="url(#6239e8ecd0)"><g clip-path="url(#87fe267099)"><g clip-path="url(#1be49af019)" transform="translate(124 69)"><g clip-path="url(#14b897c863)"><g clip-path="url(#16f55658ae)"><g clip-path="url(#6e129d37d7)"><path fill="#f4611e" d="m-5.871 15.547 26.68-22.043 18.933 22.922-26.68 22.043Zm0 0"/></g></g></g></g></g></g></g><g clip-path="url(#fe85e27952)"><g clip-path="url(#44dc88346a)"><g clip-path="url(#f40f650141)"><path fill="#f7a5c0" d="m35.613 74.762-.816-.14-.848-.09a14 14 0 0 0-1.781-.028q-1.846.075-3.926.566-4.2 1.026-8.32 3.34c-2.442 1.32-4.43 2.453-5.961 3.39a10.5 10.5 0 0 0-1.356 1.02q-1.75 1.57-1.949 3.504a.53.53 0 0 1-.289.078c-.68-.125-1.16-.175-1.449-.152q-.124-.072-.64.324-.371.339-.946 1.246-.194.178-1.008.582-.343.939.848 1.086 1.347.212 3.785-.343.767.07 2.758-1.477a1.84 1.84 0 0 1 1.035-.129c.36.043.582.152.68.332l.515 2.07c.043.063.364.196.957.387q1.015.868 1.168.832a.57.57 0 0 0 .422-.324q.288-.45.938-2.59a.5.5 0 0 1 .336-.348q.273-.047.754.016l4.84.684q.994.089 2.035.054c3.601-.187 5.968-.566 7.105-1.129l.367-.218 7-8.645a11 11 0 0 0-2.453-2.3 10 10 0 0 0-1.422-.81 11 11 0 0 0-1.55-.581z"/></g></g></g><g clip-path="url(#d4ea0b54b7)"><g clip-path="url(#16e1e52857)"><g clip-path="url(#659e07ecf1)"><path fill="#f7a5c0" d="m40.195 79.574-.593-.094q-2.383-.279-4.848 1.223l-1.125 6.188a5 5 0 0 1-.047 1.328c-.121.566-.207.906-.27 1.023-.28.742-.523 1.242-.718 1.496q-.576.886-2.024 2.61-.293.451-.468 1.136a7.4 7.4 0 0 0-.176 1.13q.017 3.027-.266 4.34-.17.942-1.195 3.679a5 5 0 0 0-.16.8q-.016.967.472.977c1.114-.187 2.16-.738 3.145-1.644a13 13 0 0 0 1.5-1.625l.742-1.008c.496-.719.984-1.528 1.473-2.422q.514-.962 1.398-3.172.48-1.261.836-2.504.61-2.239.688-2.96l.359-3.759q.133-.727.672-1.25.808-.32 1.09 1.258.044.335.004.57-.541 2.103-.543 2.348-.06.768.21 2.028.264.915 1.094 2.867c.242 1.453.38 2.21.407 2.285l.214.566q.275.569.45.598.305.066.535-.473.188-.505.21-.687.47-2.713.81-4.153.403-1.821.937-3.902c.113-.676.172-1.32.168-1.922q-.043-1.106-.102-1.293-.575-2.806-1.672-3.945-1.32-1.223-3.207-1.637"/></g></g></g><g clip-path="url(#806f8bb6f4)"><g clip-path="url(#a9568a9426)"><g clip-path="url(#a6179ca7ea)"><path fill="#f7a5c0" d="m47.383 73.563-.2-.036q-.995-.221-2.25.23c-.156.052-.406.192-.757.43q-.685.575-1.735 1.626a5.4 5.4 0 0 1-.867.605q-.603.456-2.883.66l1.97 6.055q3.369-.198 5.784-1.235l.782-.37q.753-.393 1.402-.88.726-.632.926-.984.3-.444.5-.965l.601-2.789q.052-.405-.093-.758-.178-.439-.907-.797c-1.058-.453-1.816-.714-2.273-.793"/></g></g></g><g clip-path="url(#ce1e098499)"><g clip-path="url(#93d41b6432)"><g clip-path="url(#93413f777e)"><path fill="#f7a5c0" d="M94.188 103.645a18 18 0 0 0 .214-2.254q.012-.856.012-1.72c-.004-1.296-.016-2.597-.02-3.898a22 22 0 0 1 .008-.949 6.3 6.3 0 0 1 .282-1.691 2.6 2.6 0 0 1 .324-.668c.23-.34.555-.559.933-.692.22-.078.45-.14.676-.191 1.582-.375 3.074-.988 4.492-1.77q.282-.156.551-.32c.578-.363 1.13-.762 1.582-1.273.274-.305.516-.637.645-1.031.23-.676.101-1.282-.395-1.793a3.3 3.3 0 0 0-.492-.403c-.375-.258-.797-.426-1.227-.57-.613-.207-1.246-.32-1.878-.402-1.27-.16-2.52-.41-3.758-.727-.684-.18-1.375-.348-2.059-.531-.3-.078-.594-.18-.879-.293-.36-.153-.418-.25-.422-.64 0-.27.012-.544.024-.817.047-.86.086-1.719.058-2.578-.046-1.422-.168-2.836-.3-4.25-.067-.676-.157-1.352-.325-2.012a6 6 0 0 0-.218-.664 1.35 1.35 0 0 0-.293-.457.92.92 0 0 0-.801-.293 1.6 1.6 0 0 0-.535.176 4 4 0 0 0-.633.433 21 21 0 0 0-2.375 2.262c-.723.793-1.41 1.613-2.113 2.426a57 57 0 0 1-1.84 2.054 9.8 9.8 0 0 1-2.14 1.696c-.49.285-1 .496-1.552.625a3.26 3.26 0 0 1-1.656-.043 8 8 0 0 1-1.238-.5c-.606-.305-1.207-.621-1.813-.934a10 10 0 0 0-1.328-.582 3.8 3.8 0 0 0-.855-.207c-.18-.02-.36-.016-.54.023a.79.79 0 0 0-.597.563 1.6 1.6 0 0 0-.066.355c-.028.227-.004.454.03.676.063.371.165.739.298 1.09a15.6 15.6 0 0 0 1.367 2.781q.521.826 1.117 1.594c.563.73 1.168 1.426 1.77 2.121.257.301.515.594.765.895a.9.9 0 0 1 .192.277c.047.129.199.14.246.305-.082.199-.176.41-.258.633-.191.511-.426.996-.766 1.433-.023.031-.05.074-.074.11-.324.492-.648.988-.973 1.476q-.469.708-.945 1.414c-.168.25-.347.492-.512.746a39 39 0 0 0-1.73 2.926 4 4 0 0 0-.242.582 1.4 1.4 0 0 0-.082.578c.047.68.367 1.172 1.004 1.438.316.132.656.164.996.164a6 6 0 0 0 1.55-.203c.57-.157 1.149-.32 1.715-.508.86-.285 1.688-.649 2.496-1.063.801-.406 1.61-.804 2.438-1.152.48-.203.98-.356 1.492-.445.18-.035.363-.063.543-.067a2.2 2.2 0 0 1 1.445.5c.305.254.559.555.786.875q.473.676.918 1.375c.671 1.059 1.335 2.121 2.003 3.18.399.633.856 1.227 1.36 1.781.25.274.508.535.805.762.226.168.468.293.742.379.398.125.761.05 1.09-.2.28-.21.5-.476.64-.804a4.6 4.6 0 0 0 .32-1.11"/></g></g></g><g clip-path="url(#548c51f3f4)"><path fill="#f7a5c0" d="m185.25 70.113-.082.004q-1.1.145-1.352 1.531c-.015.262.02.54.114.829l.18.449.62 1.004c.836.785 2.282 1.976 4.325 3.582q1.18.815 2.863 1.437L193.332 80q.79.66 1.082 1.305.376.82.219 1.379l-1.086 2.586-.606.714q-.24.739-.609 1.266-.201.543-.195.594-.216.703.57.691 1.32-.28 3.113-2.617c.614-.723 1.32-2.148 2.118-4.29l6.433-3.128c-.996-1.504-2.039-2.785-3.137-3.84q-.822-.79-1.68-1.418l-.87-.582a12 12 0 0 0-1.793-.918q-1.694-.684-2.196-.742a9 9 0 0 0-1.195-.02 60 60 0 0 1-3 .278 3.2 3.2 0 0 1-.902-.063 3 3 0 0 1-.559-.117 27 27 0 0 0-2.363-.77q-.958-.252-1.426-.195"/></g><g clip-path="url(#948667c705)"><path fill="#f7a5c0" d="M202.61 71.73h-.008q-.024.002-.012.016l-1.203.356q-.223.04-1.09.023a1.4 1.4 0 0 0-.39.094q-.205.075-.368.18l-1.59 1.081.875 6.184q1.578-.985 2.399-1.602 3.192-2.625 5.066-3.832a4.5 4.5 0 0 1 1.156-.394q2.825-.387 3.243-.504.581-.21.718-.504.048-.039.09-.336a1.4 1.4 0 0 0-.297-.39l-.203-.168c-.437-.313-1.121-.512-2.043-.606q-.403-.058-1.613.293c-.813-.05-1.274-.07-1.38-.05-.081.03-.425.136-1.03.304q-.605.163-.63.145a2 2 0 0 1-.437-.024q-.966-.247-1.254-.266"/></g><path fill="#f7a5c0" d="m200.695 74.441-4.03 8.094q4.586 2.74 5.898 4.438 1.3 1.798 1.62 2.992l.204.71q.175.729.246 1.509.07.778.035 1.609c-.176.945-.445 1.598-.797 1.953q-.566.738-1.52 1.406-.69.464-1.187.63-3.486 1.018-4.781 1.609-1.707.757-2.54 1.906.206.294 5.04-.344c.887 0 1.875.117 2.96.36q1.817.52 3.329 3.367.357.215.586-.207c.12-.266.207-.766.246-1.504q-.112-2.965-.055-3.414a12.4 12.4 0 0 1 .336-2.227c.086-.363.25-.851.5-1.46 1.352-2.778 2.098-4.403 2.242-4.884q.4-1.03.61-2.265c.23-1.278.207-2.727-.059-4.344l-.351-1.875-.512-1.684-.668-1.488-.828-1.297-.989-1.101q-2.13-2.015-5.535-2.489"/><g clip-path="url(#ce17fb2c1d)"><g clip-path="url(#2061837561)"><g clip-path="url(#ecd51db8a0)"><path fill="#f7a5c0" d="M260.93 96.629s1.941 7.355 8.32 3.633c6.375-3.727 5.102-11.262 3.3-13.403 0 0-2.413 6.528-7.03 5.926 0 0-1.114.578 4.613-4.816 5.726-5.399-.164-7.723-.528-9.5 0 0-3.378 11.308-5.734 10.554-2.355-.75 6.059-9.386 4.738-11.761a8 8 0 0 0-3.586-3.32s.47 9.863-3.793 11.433c0 0-2.496-.582 2.04-7.066 4.535-6.485-4.684-7.813-6.157-7.907-1.664-.113-6.61 3.414-6.61 3.414s-.288 1.602 5.708 9.41c0 0-3.902 1.372-8.102-9.05l-2.55 4.344s.605 2.968 5.289 6.058c4.683 3.094 6.578 3.945 5.922 4.613s-3.907 1.149-7.586-2.418c-3.68-3.566-5.188-5.816-5.188-5.816s-2.582 4.453-1.39 5.973c1.19 1.52 2.703 2.664 7.703 4.507 5.004 1.844 3.496 1.973 3.496 1.973s-.711 1.906-6.313-1.137c-5.597-3.043-4.902-3.05-4.902-3.05s-1.356 6.312 1.937 7.136c3.297.825 9.407-.55 9.985.563.582 1.117-7.04 3.285-9.907 1.758 0 0 1.833 3.37 3.2 4.457s8.375 4.547 11.816-.825c0 0 1.637-2.14 1.309-5.683m0 0"/></g></g></g><g clip-path="url(#690837b9d8)"><g clip-path="url(#7c6a013a19)"><g clip-path="url(#1401d79aaa)"><path fill="#f7a5c0" d="m27.637 146.844-.297.027c-.715.055-1.64.328-2.785.82q-1.043.51-3.168 2.344-.269.183-.532.23c-.242.055-.535.028-.87-.085-1.188-.668-1.797-.965-1.837-.89q-.316.03-.511.148c-.64.562-1 .824-1.086.777l-1.176-1.504q-.355-.252-.805.164-.263.14-.75 2.723c-.597.808-.941 1.379-1.027 1.703q-.679 2.531-.414 3.746.072.264.394.48.112.076.918.024l.579.472.722-.222q.118.655.606.707.648-.013 1.46-.383c.817-.383 1.52-.8 2.114-1.262q.271-.135.414-.062.508.438.043 1.176-.083.1-.27.218a8.5 8.5 0 0 0-1.527.746q-.75.538-.914.93.029.16.11.156l1.245.278q.118.028.329.007 1.271-.414 5.316-1.328c.332-.148.648-.343.957-.593q1.758-1.888 2.555-2.352c.457-.226 1.394-.57 2.816-1.023q.632-.213 1.305.004.775.256 1.996 1.105.042.095-.05.172-1.875 1.126-2.032 1.558-.06.178.457.372l.094.593q.03.049.164.09.215.093.652-.125c.352-.176.895-.52 1.625-1.023l1.5-.668q.761-.464.906-.735c.117-2.12.227-3.355.32-3.699a20.9 20.9 0 0 1 2.164-6.59l-3.824 2.762-.425-.32a6.4 6.4 0 0 0-1.137-.563 12 12 0 0 0-1.5-.469q-3.484-.719-4.824-.636" fill-opacity=".996"/></g></g></g><g clip-path="url(#1fd3c10914)"><g clip-path="url(#70a4789d81)"><g clip-path="url(#9d192dab4d)"><path fill="#f7a5c0" d="m27.43 124.586-.25.023a5.7 5.7 0 0 0-1.946.606c-1.183.832-1.98 1.426-2.386 1.773-.313.285-.516.516-.618.696-.304.46-.832 1.375-1.574 2.746q-1.025 3.105-.011 6.164.896 2.332 1.828 3.465 1.3 1.494 2.343 2.18 1.137.878 3.047 1.898.381.19.75.343c1.137.325 2.38.743 3.719 1.247.922.394 1.402.687 1.45.886q.887 1.003.452 2.973l.766 1.773q2.67-2.777 4.105-4.086.423-.487.563-.816.287-.698.246-2.144-.14-1.59-.277-1.91c-.383-1.43-.914-2.587-1.606-3.47a4 4 0 0 0-.297-.335c-1.488-1.133-2.664-2.082-3.523-2.856q-1.284-1.154-1.625-1.773-.738-1.478-.809-2.61-.093-.644.012-1.054l.477-2.368q.123-.333-.47-1.417-.522-.825-1.483-1.375-1.794-.71-2.883-.56" fill-opacity=".996"/></g></g></g><g clip-path="url(#f8964f3559)"><g clip-path="url(#22ba2302b1)"><g clip-path="url(#5cfb99a664)"><path fill="#f7a5c0" d="M81.129 152.16s-1.535 7.453 5.832 6.953c7.371-.5 9.582-7.812 8.922-10.535 0 0-5.067 4.774-8.934 2.18 0 0-1.258.023 6.274-2.262 7.53-2.285 3.289-6.984 3.754-8.738 0 0-8.055 8.62-9.832 6.902-1.774-1.722 9.605-5.71 9.476-8.426a8 8 0 0 0-1.734-4.57s-3.965 9.04-8.485 8.555c0 0-1.976-1.633 4.973-5.426 6.95-3.79-.723-9.078-2-9.82-1.437-.84-7.434.12-7.434.12s-.972 1.305.922 10.966c0 0-4.101-.512-3.226-11.711l-4.219 2.757s-.777 2.926 2.043 7.778 4.133 6.46 3.25 6.765c-.887.305-4.012-.71-5.719-5.539-1.707-4.832-2.058-7.515-2.058-7.515s-4.293 2.836-3.903 4.726 1.235 3.586 4.895 7.465c3.66 3.875 2.25 3.32 2.25 3.32s-1.485 1.395-5.145-3.824-3.035-4.914-3.035-4.914-4.023 5.051-1.437 7.254 8.668 3.688 8.691 4.95c.023 1.257-7.766-.192-9.652-2.837 0 0 .14 3.832.882 5.414.739 1.582 5.473 7.801 10.946 4.52 0 0 2.418-1.188 3.703-4.508m0 0"/></g></g></g><g clip-path="url(#3c2467dbf1)"><path fill="#f7a5c0" d="m144.61 128.723-.833.011-.847.07c-.575.063-1.16.169-1.758.31q-1.793.42-3.746 1.292-3.937 1.799-7.547 4.844c-2.149 1.758-3.89 3.238-5.219 4.453q-.661.621-1.137 1.254-1.428 1.87-1.257 3.805a.5.5 0 0 1-.27.133c-.691.003-1.176.046-1.453.12q-.134-.043-.566.438-.304.406-.696 1.402c-.105.145-.398.395-.883.762q-.157.985 1.04.91 1.36-.047 3.652-1.05.769-.076 2.433-1.97.424-.296.993-.32.538-.035.726.2l.895 1.933q.085.087 1.015.203 1.156.663 1.305.598.264-.103.352-.398.193-.498.433-2.72a.5.5 0 0 1 .266-.405q.263-.102.742-.125l4.883-.239a17 17 0 0 0 2.012-.328q5.249-1.294 6.765-2.441l.32-.285 5.25-9.805a11.1 11.1 0 0 0-2.84-1.8c-.5-.216-1.019-.391-1.546-.528a11 11 0 0 0-1.637-.277z"/></g><g clip-path="url(#4839d1218a)"><path fill="#f7a5c0" d="m150.012 132.586-.602.02q-2.391.174-4.531 2.113l.059 6.285q.182.633.203 1.316-.017.867-.075 1.055-.206 1.171-.425 1.605-.397.974-1.496 2.942a3.9 3.9 0 0 0-.247 1.203c-.02.32-.003.703.04 1.145q.585 2.964.55 4.312.012.957-.48 3.836a5 5 0 0 0-.008.816q.167.954.648.871 1.589-.59 2.778-2.203.614-.814 1.172-1.879l.539-1.132q.525-1.195.992-2.653.322-1.041.777-3.379.235-1.324.352-2.613c.117-1.543.156-2.559.117-3.039l-.352-3.758a2.26 2.26 0 0 1 .426-1.355q.731-.47 1.305 1.031.11.322.113.563-.14 2.161-.094 2.402.088.769.586 1.953.435.849 1.614 2.613.768 2.07.828 2.168l.32.516q.376.505.55.5.316.006.438-.563.088-.532.082-.714-.05-2.755.008-4.231.058-1.863.192-4.008a11.7 11.7 0 0 0-.196-1.922q-.25-1.078-.343-1.25-1.095-2.648-2.383-3.562-1.524-.953-3.457-1.004"/></g><g clip-path="url(#42f54503f6)"><path fill="#f7a5c0" d="M155.941 125.332h-.203c-.68-.02-1.398.2-2.164.652q-.217.118-.664.563-.568.69-1.398 1.922-.404.493-.742.758-.505.561-2.704 1.191l3.07 5.574q3.27-.825 5.454-2.3l.695-.508q.667-.528 1.211-1.125c.399-.504.637-.887.723-1.141q.215-.492.312-1.043l.067-2.852a1.43 1.43 0 0 0-.235-.726q-.26-.401-1.039-.613-1.686-.37-2.383-.352"/></g><g clip-path="url(#d816e86b9a)"><path fill="#f7a5c0" d="M211.004 151.98a17 17 0 0 0-.988-2.039 64 64 0 0 0-.883-1.472q-1.02-1.664-2.04-3.32a22 22 0 0 1-.488-.82 6.3 6.3 0 0 1-.64-1.59 2.8 2.8 0 0 1-.067-.739c.02-.41.18-.766.438-1.074.148-.18.309-.356.476-.516 1.16-1.14 2.114-2.441 2.922-3.847q.154-.282.301-.56c.305-.608.57-1.233.692-1.91.074-.402.109-.812.015-1.214-.156-.695-.582-1.152-1.273-1.328a2.8 2.8 0 0 0-.625-.086c-.457-.028-.903.05-1.348.148-.629.14-1.226.375-1.812.633a31 31 0 0 1-3.586 1.332c-.68.203-1.356.414-2.04.617a8 8 0 0 1-.902.203c-.386.059-.484.004-.691-.328q-.21-.347-.403-.707c-.41-.758-.824-1.511-1.292-2.234-.778-1.191-1.618-2.336-2.465-3.477-.407-.539-.836-1.07-1.325-1.547a6 6 0 0 0-.53-.457 1.3 1.3 0 0 0-.49-.234.9.9 0 0 0-.831.164 1.5 1.5 0 0 0-.367.426c-.133.223-.23.46-.317.7a22 22 0 0 0-.855 3.167c-.203 1.055-.367 2.11-.543 3.172a59 59 0 0 1-.504 2.71c-.2.9-.512 1.75-.95 2.563a5.7 5.7 0 0 1-1 1.34 3.2 3.2 0 0 1-1.437.82 7.6 7.6 0 0 1-1.316.22c-.676.054-1.356.093-2.035.14-.48.031-.961.09-1.434.195a3.5 3.5 0 0 0-.84.27c-.164.074-.32.172-.449.297a.79.79 0 0 0-.219.793 2 2 0 0 0 .125.34c.098.203.23.386.38.558q.375.427.82.777c.82.641 1.687 1.2 2.613 1.664.582.293 1.176.551 1.785.786.86.332 1.738.609 2.613.886.375.125.746.243 1.117.371.11.032.227.067.309.137.105.086.242.016.367.13.035.214.063.448.11.679.101.535.156 1.07.09 1.62-.005.04-.005.09-.008.13l-.059 1.77-.074 1.698c-.016.301-.043.602-.051.903a39 39 0 0 0 .043 3.398c.008.211.05.418.094.63.039.19.117.374.23.534.395.555.922.809 1.602.703.344-.05.648-.199.941-.375.445-.277.86-.597 1.215-.98.41-.43.816-.871 1.203-1.324a18 18 0 0 0 1.582-2.207c.473-.762.957-1.524 1.485-2.25a7 7 0 0 1 1.042-1.156c.133-.125.274-.243.43-.34a2.23 2.23 0 0 1 1.496-.32c.39.054.762.183 1.125.335.504.223 1.004.453 1.496.7 1.125.554 2.243 1.117 3.364 1.675a13 13 0 0 0 2.086.813c.355.105.714.195 1.086.234.28.028.554.008.832-.058.406-.102.675-.356.828-.739.129-.328.175-.668.129-1.02a4.4 4.4 0 0 0-.305-1.113"/></g><g clip-path="url(#3f45a2dd18)" transform="translate(228 109)"><path d="M43.507 33.934c-1.031 3.242-2.664 5.992-4.89 8.25a19.8 19.8 0 0 1-7.876 4.89q-4.533 1.53-9.687.813-5.127-.705-8.344-3.297Q9.505 42 8.538 38.027q-.954-3.984.594-8.859c1.07-3.25 2.719-6.004 4.937-8.266q3.343-3.386 7.891-4.922 4.56-1.53 9.688-.828 5.137.721 8.312 3.313 3.188 2.578 4.172 6.562.997 3.985-.625 8.907m-31.844-.547q-.159 5.627 2.5 9.156 2.654 3.514 7.375 4.156a17 17 0 0 0 2.094.156 14 14 0 0 0 2.219-.156q4.405-.579 7.75-2.875 3.356-2.31 5.312-5.968 1.951-3.657 2.047-8.157c.125-3.75-.71-6.804-2.5-9.172q-2.69-3.543-7.39-4.187a14.6 14.6 0 0 0-4.25.031q-4.395.533-7.735 2.875-3.345 2.344-5.297 6c-1.305 2.43-2.012 5.14-2.125 8.14m0 0" fill="#f4611e"/></g><g clip-path="url(#0e8881d5f9)"><g clip-path="url(#d8d0d84ba7)"><g clip-path="url(#2158e52c02)"><g clip-path="url(#d7380a9e7a)" transform="translate(238 124)"><g clip-path="url(#6d9dccbaa3)"><g clip-path="url(#ea6f23f935)"><g clip-path="url(#c33a6010f7)"><path fill="#f4611e" d="M-5.926 18 18.602-6.418l20.972 21.07L15.047 39.07Zm0 0"/></g></g></g></g></g></g></g><g clip-path="url(#f0e64dcf10)"><g clip-path="url(#e641ec514f)"><g clip-path="url(#2e0ee26c01)"><path fill="#f7a5c0" d="m65.227 25.426-.059.05q-.81.761-.195 2.032.204.335.574.605l.41.258 1.094.45q1.705.212 5.601.355 1.436-.03 3.164-.516l1.762.02q1.025.071 1.64.418.786.449.985.992l.645 2.73-.075.934q.246.738.25 1.383.157.556.192.597.24.693.87.22c.599-.669.927-1.981.981-3.946q.112-1.415-.808-4.715l3.37-6.309q-2.53-.947-4.792-1.27a16.5 16.5 0 0 0-2.191-.16l-1.047.04a12 12 0 0 0-1.993.312q-1.771.44-2.21.692a8 8 0 0 0-.977.683 57 57 0 0 1-2.27 1.985 3.2 3.2 0 0 1-.765.48q-.286.153-.52.234-1.102.296-2.363.766-.927.357-1.273.68"/></g></g></g><g clip-path="url(#154e40ea47)"><g clip-path="url(#67b49cbb1e)"><g clip-path="url(#91aa3fa6f5)"><path fill="#f7a5c0" d="m80.227 16.54-.004.003c-.012.012-.012.016 0 .02l-.766.996q-.157.164-.871.656-.111.093-.258.305a1.8 1.8 0 0 0-.191.363l-.653 1.808 4.34 4.493q.697-1.724 1-2.704 1.044-4.002 1.852-6.082a4.3 4.3 0 0 1 .703-.996c1.375-1.316 2.148-2.086 2.328-2.312.23-.34.328-.617.285-.828q.017-.065-.125-.328a1.5 1.5 0 0 0-.469-.141l-.261-.016c-.54.004-1.207.243-2.012.711q-.358.188-1.133 1.184c-.687.433-1.07.691-1.144.765q-.072.118-.653.856-.399.485-.43.484a2 2 0 0 1-.367.239c-.617.246-1.003.418-1.171.523"/></g></g></g><g clip-path="url(#9b3a661ef6)"><g clip-path="url(#3cdc85c689)"><g clip-path="url(#89d0d2c27c)"><path fill="#f7a5c0" d="m80.27 19.855 1.492 8.918q5.324-.474 7.379.13 2.11.69 3.07 1.468l.582.457q.57.485 1.086 1.074c.344.395.668.82.973 1.285.414.868.578 1.551.5 2.047q-.023.93-.403 2.032-.285.78-.59 1.207c-1.484 1.914-2.46 3.28-2.925 4.109q-.939 1.617-.934 3.035.335.118 3.875-3.238 1.074-.78 2.605-1.45 1.78-.644 4.672.774.416-.038.356-.512-.087-.43-.684-1.363-1.834-2.333-2.05-2.73a12 12 0 0 1-1.036-2.004q-.217-.512-.457-1.469-.803-4.564-1.05-5.273a12 12 0 0 0-.836-2.192q-.85-1.752-2.602-3.48l-1.387-1.313-1.398-1.058-1.418-.813-1.43-.562-1.45-.317q-2.905-.374-5.94 1.238"/></g></g></g><g clip-path="url(#a5c5f624a7)"><g clip-path="url(#33e4277c8d)"><g clip-path="url(#1ddacefe92)"><path fill="#f7a5c0" d="M159.883 34.527a17 17 0 0 0-1.7-1.496c-.456-.343-.917-.68-1.382-1.02-1.059-.757-2.113-1.507-3.172-2.269q-.389-.271-.766-.566a6.2 6.2 0 0 1-1.207-1.215 2.8 2.8 0 0 1-.347-.656 1.78 1.78 0 0 1-.012-1.157q.101-.34.238-.664c.63-1.5 1.004-3.07 1.203-4.68q.037-.315.063-.632c.047-.68.047-1.36-.102-2.024-.09-.402-.215-.793-.457-1.128-.414-.582-.98-.836-1.687-.73a2.8 2.8 0 0 0-.61.16c-.433.152-.816.398-1.183.66-.528.374-.989.82-1.43 1.285a31 31 0 0 1-2.789 2.617c-.547.453-1.09.91-1.64 1.36a7 7 0 0 1-.755.538c-.332.203-.445.192-.761-.035q-.333-.242-.649-.496c-.668-.543-1.343-1.078-2.058-1.559-1.176-.797-2.39-1.527-3.618-2.25-.585-.34-1.187-.664-1.82-.914a5 5 0 0 0-.664-.215 1.4 1.4 0 0 0-.543-.03.9.9 0 0 0-.703.476 1.5 1.5 0 0 0-.176.535 4.6 4.6 0 0 0-.02.77 21 21 0 0 0 .442 3.25c.219 1.05.477 2.085.723 3.132.215.899.422 1.79.586 2.696.168.906.21 1.812.12 2.73a5.6 5.6 0 0 1-.402 1.621 3.25 3.25 0 0 1-1.007 1.316c-.356.27-.735.504-1.13.711-.6.313-1.214.614-1.82.918a10 10 0 0 0-1.25.735c-.238.172-.472.347-.668.574a1.6 1.6 0 0 0-.296.45.78.78 0 0 0 .101.812q.113.15.25.265c.168.153.363.266.567.368q.509.25 1.058.398c1 .273 2.016.453 3.055.523a18 18 0 0 0 1.945.032c.922-.028 1.84-.11 2.754-.192.395-.031.781-.066 1.176-.093a.9.9 0 0 1 .336.007c.129.035.23-.078.39-.023.114.183.23.387.36.582.304.453.558.93.715 1.46.011.04.027.087.043.126q.316.825.629 1.652.297.797.59 1.594c.1.285.195.574.304.855.41 1.059.856 2.098 1.356 3.114.09.191.21.367.328.543.109.16.254.3.422.402.578.36 1.16.39 1.75.031.296-.18.519-.437.718-.71.305-.43.563-.883.746-1.376.207-.554.41-1.117.594-1.687.274-.863.465-1.75.602-2.649.14-.882.293-1.773.496-2.648q.174-.764.511-1.469c.079-.164.165-.332.266-.476a2.23 2.23 0 0 1 1.254-.88 4.4 4.4 0 0 1 1.168-.124q.826.014 1.652.062c1.25.078 2.5.164 3.75.246q1.125.063 2.239-.062c.37-.04.734-.094 1.09-.203.269-.086.515-.207.742-.38.336-.25.488-.585.48-.995a2 2 0 0 0-.273-.996 4.5 4.5 0 0 0-.715-.907"/></g></g></g><g clip-path="url(#500dadf42b)"><g clip-path="url(#b950b7ab0d)"><g clip-path="url(#c827f0660e)"><path fill="#f7a5c0" d="m260 17.148-.797.239-.797.297a15 15 0 0 0-1.61.773q-1.61.892-3.257 2.258c-2.2 1.867-4.184 4.101-5.95 6.71q-2.39 3.405-3.816 5.696a11 11 0 0 0-.757 1.516q-.866 2.189-.18 4.004a.5.5 0 0 1-.223.203q-.995.286-1.363.508-.141-.007-.43.578-.179.467-.289 1.539-.094.247-.64.968.11.991 1.246.594c.863-.277 1.941-.941 3.23-2q.72-.281 1.809-2.554.329-.398.867-.575c.34-.12.59-.125.754-.007l1.387 1.62q.105.06 1.03-.081 1.296.322 1.419.222a.58.58 0 0 0 .234-.48q.048-.53-.32-2.735a.49.49 0 0 1 .144-.46c.149-.11.375-.22.68-.32l4.637-1.556a17 17 0 0 0 1.847-.859q4.705-2.666 5.848-4.184l.235-.359 2.394-10.863a11 11 0 0 0-3.219-.961 10 10 0 0 0-1.633-.09 11 11 0 0 0-1.652.176z"/></g></g></g><g clip-path="url(#beed3758e7)"><g clip-path="url(#448ab978f8)"><g clip-path="url(#dc71779c47)"><path fill="#f7a5c0" d="m266.246 19.406-.574.18c-1.504.543-2.766 1.633-3.79 3.262l1.763 6.035q.346.555.55 1.21.219.841.22 1.036c.073.793.081 1.344.019 1.664q-.119 1.043-.641 3.234-.06.535.086 1.227.106.468.348 1.09c.914 1.797 1.48 3.133 1.703 4q.269.918.574 3.824.06.35.215.789.417.874.86.664c.91-.668 1.605-1.625 2.077-2.879q.37-.944.617-2.12l.215-1.24q.176-1.291.235-2.82c.02-.726-.04-1.882-.168-3.464a31 31 0 0 0-.371-2.61q-.457-2.279-.707-2.957l-1.36-3.523a2.27 2.27 0 0 1 .043-1.422q.58-.644 1.535.64.193.28.262.512.451 2.116.559 2.34.297.715 1.097 1.719.646.7 2.258 2.078 1.3 1.782 1.387 1.863l.445.41q.498.387.668.332c.203-.05.293-.273.27-.66q-.06-.534-.118-.71-.796-2.635-1.136-4.075-.451-1.812-.903-3.91a11.3 11.3 0 0 0-.707-1.797c-.355-.648-.582-1.015-.672-1.11q-1.77-2.254-3.257-2.78-1.725-.508-3.602-.032"/></g></g></g><g clip-path="url(#514b131a66)"><g clip-path="url(#1ae9138cb3)"><g clip-path="url(#0b6618a1ec)"><path fill="#f7a5c0" d="m269.992 10.816-.195.055q-.99.247-1.91 1.215-.175.168-.485.719-.356.822-.824 2.23c-.172.387-.34.7-.508.93-.226.453-.984 1.078-2.285 1.879l4.469 4.535q2.925-1.682 4.625-3.692l.531-.675q.499-.69.863-1.414c.243-.594.375-1.024.387-1.293q.073-.535.016-1.09l-.707-2.762a1.5 1.5 0 0 0-.422-.637q-.358-.315-1.168-.308-1.724.104-2.387.308"/></g></g></g><g clip-path="url(#ff78f786aa)"><g clip-path="url(#e94b2d109d)"><g clip-path="url(#62b4ae9039)"><path fill="#f7a5c0" d="m198.855 37.121-.285-.094q-1.013-.345-2.882-.34-1.16.058-3.833.907a1.4 1.4 0 0 1-.582.004q-.368-.07-.765-.422-1.242-1.624-1.336-1.543a1.3 1.3 0 0 0-.531-.067q-1.213.404-1.305.286l-.492-1.84q-.223-.374-.797-.168-.304.022-1.762 2.207-1.306.761-1.617 1.16-1.622 2.063-1.856 3.281-.036.27.172.598.075.112.836.383l.344.66.754.082c-.102.433-.008.726.277.89q.6.24 1.496.223 1.342-.045 2.438-.332.304-.016.402.11c.2.402.055.765-.422 1.097a1.2 1.2 0 0 1-.336.094 9 9 0 0 0-1.695.082q-.903.2-1.203.496-.041.158.035.188l1.04.746q.098.07.296.136 1.331.119 5.41.871a4 4 0 0 0 1.11-.168q2.365-1.044 3.277-1.156c.508-.031 1.508.028 2.992.168q.661.053 1.2.516.608.545 1.398 1.804 0 .107-.117.137c-1.442.2-2.266.41-2.48.633q-.124.136.276.523l-.148.579q.007.059.113.152.165.165.653.14.586-.034 1.894-.304l1.645-.02q.88-.128 1.117-.32 1.418-2.852 1.754-3.273.627-1.006 1.347-1.918a20.5 20.5 0 0 1 3.239-3.29l-4.602 1.036-.27-.465a6.5 6.5 0 0 0-.82-.961 12 12 0 0 0-1.199-1.024q-2.913-2.032-4.18-2.484" fill-opacity=".996"/></g></g></g><g clip-path="url(#3a031495f6)"><g clip-path="url(#2072be7f8c)"><g clip-path="url(#cb84ed299c)"><path fill="#f7a5c0" d="m207.426 16.578-.238-.074a5.6 5.6 0 0 0-2.028-.211q-2.122.45-2.89.691-.598.207-.844.395c-.461.305-1.301.937-2.528 1.906q-2.162 2.45-2.433 5.66-.099 2.502.312 3.907.611 1.881 1.297 2.925.703 1.253 2.055 2.946.276.322.55.609c.919.75 1.895 1.617 2.934 2.61.688.722 1.016 1.187.98 1.386q.424 1.273-.753 2.91l.004 1.934q3.55-1.507 5.383-2.14.58-.288.84-.528.537-.528 1.07-1.875.496-1.514.5-1.867.315-2.198-.114-3.82a4 4 0 0 0-.14-.426c-.922-1.625-1.63-2.961-2.113-4.008q-.727-1.57-.797-2.274-.096-1.651.285-2.718.169-.627.426-.961l1.367-1.989q.246-.262.129-1.492c-.102-.64-.375-1.258-.825-1.844q-1.367-1.364-2.43-1.652" fill-opacity=".996"/></g></g></g><g clip-path="url(#0143635e8f)"><path d="M42.299 26.694c.176 3.399-.375 6.547-1.656 9.453a19.64 19.64 0 0 1-5.594 7.39q-3.691 3.034-8.765 4.204-5.033 1.172-8.97-.094c-2.616-.851-4.697-2.406-6.249-4.656q-2.313-3.387-2.577-8.484-.253-5.12 1.656-9.47 1.921-4.356 5.624-7.421 3.702-3.059 8.734-4.219 5.063-1.17 8.953.11 3.89 1.282 6.235 4.656 2.356 3.363 2.61 8.531M12.362 37.538q1.84 5.314 5.578 7.656 3.733 2.346 8.375 1.281.997-.234 2-.609a17 17 0 0 0 2.015-.953q3.92-2.092 6.235-5.438 2.31-3.356 2.828-7.468.527-4.107-.984-8.36-1.83-5.327-5.61-7.672-3.784-2.343-8.406-1.265a15.3 15.3 0 0 0-3.953 1.531q-3.908 2.08-6.203 5.453a16.96 16.96 0 0 0-2.828 7.485q-.517 4.094.953 8.359m0 0" fill="#f4611e"/></g><g clip-path="url(#c549c57843)"><g clip-path="url(#f267c55e3f)"><g clip-path="url(#8d36e2d782)"><g clip-path="url(#429539f0e0)" transform="translate(10 13)"><g clip-path="url(#87150d1ab3)"><g clip-path="url(#971924f6ba)"><g clip-path="url(#88877cbbf7)"><path fill="#f4611e" d="M-4.887 26.89 9.324-4.663 36.434 7.54 22.223 39.099Zm0 0"/></g></g></g></g></g></g></g><g clip-path="url(#4e00ce8fad)"><g clip-path="url(#dd1110f1dd)"><g clip-path="url(#4c0dc24a48)"><path fill="#f7a5c0" d="m245.602 180.422-.079.016q-1.083.242-1.207 1.644.007.394.184.816l.223.43.707.945c.906.704 2.453 1.762 4.632 3.172.833.473 1.829.868 2.981 1.176l1.504.918q.848.587 1.2 1.203.446.785.335 1.352l-.844 2.676-.543.765c-.11.504-.273.945-.488 1.313q-.152.561-.144.613-.148.719.636.637c.856-.27 1.809-1.23 2.86-2.891q.82-1.158 1.718-4.46l6.125-3.7q-1.687-2.109-3.468-3.54a16 16 0 0 0-1.801-1.26l-.918-.5a12 12 0 0 0-1.871-.75q-1.745-.533-2.254-.544a8.5 8.5 0 0 0-1.188.09q-1.898.389-2.964.543-.399.076-.903.023a4 4 0 0 1-.57-.066q-1.097-.31-2.422-.55-.979-.165-1.441-.071"/></g></g></g><g clip-path="url(#04d00fdef8)"><g clip-path="url(#7393a2b3b6)"><g clip-path="url(#d929345624)"><path fill="#f7a5c0" d="M263.04 180.465h-.009q-.024.007-.008.02l-1.168.46c-.148.043-.507.082-1.085.121a1.5 1.5 0 0 0-.38.13 2 2 0 0 0-.35.214l-1.485 1.219 1.43 6.078c.988-.746 1.738-1.352 2.245-1.809q2.942-2.9 4.7-4.277a4.5 4.5 0 0 1 1.113-.496q2.783-.638 3.187-.797.558-.258.668-.562c.032-.032.051-.145.059-.348a1.5 1.5 0 0 0-.328-.36l-.219-.148q-.696-.406-2.09-.418-.406-.023-1.578.438-1.225.029-1.379.074-.116.059-1 .398-.59.211-.613.2c-.21.02-.36.027-.441.015q-.979-.158-1.27-.152"/></g></g></g><g clip-path="url(#68e04a0819)"><g clip-path="url(#db062f6fa0)"><g clip-path="url(#085d4a8781)"><path fill="#f7a5c0" d="m261.375 183.336-3.277 8.426q4.812 2.316 6.273 3.886 1.454 1.672 1.883 2.832l.27.692q.24.71.378 1.476.14.774.18 1.606-.136 1.435-.617 2.016-.497.785-1.387 1.535-.645.526-1.125.738-3.381 1.324-4.617 2.031-1.63.91-2.352 2.13.225.275 4.985-.802 1.322-.116 2.984.09 1.857.361 3.613 3.055.38.182.567-.258.15-.41.113-1.52-.386-2.941-.367-3.394-.029-1.2.137-2.25.075-.554.363-1.496 1.64-4.334 1.793-5.066.301-1.066.402-2.313.166-1.94-.453-4.324l-.52-1.832-.66-1.63-.8-1.421-.942-1.219-1.082-1.008q-2.308-1.815-5.742-1.98"/></g></g></g><g clip-path="url(#e581a2e627)"><g clip-path="url(#eb2dda2648)"><g clip-path="url(#1f46579483)"><path fill="#f7a5c0" d="M35.598 205.113s3.226 6.89 8.836 2.082c5.605-4.804 3.004-11.992.847-13.777 0 0-1.207 6.855-5.855 7.09 0 0-.992.773 3.676-5.563 4.668-6.34-1.543-7.566-2.22-9.25 0 0-1.3 11.727-3.75 11.41-2.452-.32 4.278-10.32 2.556-12.421a8 8 0 0 0-4.126-2.625s2.231 9.62-1.683 11.93c0 0-2.559-.126.742-7.317 3.3-7.195-6.008-6.848-7.476-6.68-1.657.188-5.887 4.543-5.887 4.543s0 1.63 7.3 8.238c0 0-3.597 2.047-9.593-7.457l-1.73 4.735s1.128 2.812 6.288 5.012c5.16 2.203 7.176 2.703 6.649 3.476s-3.637 1.832-7.895-1.02c-4.257-2.847-6.144-4.792-6.144-4.792s-1.742 4.843-.301 6.125c1.445 1.28 3.137 2.136 8.387 3.054 5.254.918 3.793 1.317 3.793 1.317s-.36 2.004-6.414.011c-6.055-1.992-5.371-2.125-5.371-2.125s-.204 6.453 3.187 6.676c3.39.219 9.152-2.226 9.922-1.234.773.996-6.336 4.492-9.43 3.504 0 0 2.407 2.988 3.946 3.812s9.05 2.973 11.476-2.926c0 0 1.227-2.398.27-5.828m0 0"/></g></g></g><g clip-path="url(#4b906b17a7)"><g clip-path="url(#4ee53b2844)"><g clip-path="url(#dc899567d6)"><path fill="#f7a5c0" d="m143.473 201.594-.274-.114c-.656-.292-1.601-.488-2.84-.597-.777-.028-2.074.16-3.902.566a1.4 1.4 0 0 1-.574-.05q-.363-.101-.73-.489-1.09-1.723-1.196-1.652a1.2 1.2 0 0 0-.52-.113q-1.242.293-1.324.171l-.328-1.882q-.189-.387-.781-.235c-.203-.004-.852.68-1.95 2.043q-1.37.644-1.71 1.012-1.803 1.91-2.14 3.105-.06.264.12.61.06.117.797.457l.285.687.742.149c-.136.422-.07.722.2.91.382.195.875.316 1.468.355a11.3 11.3 0 0 0 2.457-.117c.204.008.332.055.395.145q.238.627-.52 1.054a1.1 1.1 0 0 1-.34.067 8.5 8.5 0 0 0-1.699-.067q-.913.117-1.242.387-.058.155.02.191l.968.833q.091.08.286.16 1.312.24 5.308 1.347.543.044 1.121-.066 2.448-.834 3.368-.863.761.02 2.964.43.656.11 1.149.62c.37.399.785 1.036 1.234 1.918-.004.075-.047.114-.129.13q-2.178.104-2.527.41-.134.126.23.546l-.199.563q0 .06.102.16.145.182.636.2c.391.01 1.032-.036 1.915-.134l1.636.125q.892-.053 1.145-.222 1.666-2.72 2.035-3.106.714-.943 1.512-1.793a20.5 20.5 0 0 1 3.515-2.988l-4.676.621-.226-.48a6.4 6.4 0 0 0-.73-1.036 12 12 0 0 0-1.106-1.12q-2.722-2.286-3.945-2.848" fill-opacity=".996"/></g></g></g><g clip-path="url(#bfe585a6e0)"><g clip-path="url(#a155709942)"><g clip-path="url(#0aaaa8c269)"><path fill="#f7a5c0" d="m153.828 181.89-.23-.097a5.7 5.7 0 0 0-2-.387q-2.156.258-2.946.434-.608.151-.87.32-.733.391-2.688 1.672-2.371 2.25-2.926 5.426-.318 2.477-.031 3.918c.293 1.285.636 2.297 1.031 3.027q.59 1.313 1.785 3.117.245.346.496.657a48 48 0 0 1 2.692 2.855q.93 1.176.855 1.469.304 1.306-1.008 2.832l-.168 1.926q3.67-1.183 5.551-1.657.602-.229.883-.453.582-.474 1.234-1.77.626-1.464.66-1.816.51-2.156.227-3.816a5 5 0 0 0-.102-.434q-1.167-2.554-1.753-4.183c-.391-1.086-.586-1.864-.594-2.332q.053-1.653.523-2.684c.153-.406.32-.71.512-.922l1.539-1.86c.18-.155.266-.648.262-1.468q-.07-.977-.66-1.914-1.243-1.477-2.274-1.86" fill-opacity=".996"/></g></g></g><g clip-path="url(#6aad4de923)" transform="translate(55 164)"><path d="M46.197 28.61q.499 5.098-1.234 9.516a19.74 19.74 0 0 1-5.282 7.625q-3.55 3.19-8.578 4.562-4.985 1.378-8.968.266-3.972-1.106-6.438-4.375-2.455-3.28-2.953-8.375c-.29-3.406.133-6.582 1.281-9.531q1.717-4.435 5.297-7.657 3.575-3.216 8.563-4.593 4.999-1.373 8.937-.25 3.951 1.126 6.438 4.39 2.497 3.268 2.937 8.422M16.76 40.704q2.06 5.237 5.89 7.422 3.844 2.174 8.438.906a18 18 0 0 0 1.968-.687 15 15 0 0 0 1.97-1.032q3.826-2.262 5.984-5.703 2.154-3.451 2.515-7.578.359-4.125-1.328-8.312-2.063-5.232-5.937-7.422-3.862-2.187-8.438-.922a16 16 0 0 0-3.906 1.703c-2.531 1.492-4.516 3.39-5.953 5.703a16.8 16.8 0 0 0-2.5 7.594q-.344 4.126 1.297 8.328m0 0" fill="#f4611e"/></g><g clip-path="url(#fb30ba89c8)"><g clip-path="url(#b669abf6ba)"><g clip-path="url(#9f17ecd3f4)"><g clip-path="url(#7b36c5f60b)" transform="translate(69 179)"><g clip-path="url(#97085d68c0)"><g clip-path="url(#631ef052bc)"><g clip-path="url(#ca30ee9183)"><path fill="#f4611e" d="M-4.387 28.348 8.493-3.773 36.085 7.289 23.21 39.41Zm0 0"/></g></g></g></g></g></g></g><g clip-path="url(#dc3e3bdb04)"><g clip-path="url(#dc9503fc09)"><g clip-path="url(#54c7a7d1b9)"><path fill="#f7a5c0" d="m211.047 187.473-.719-.414-.766-.38a16 16 0 0 0-1.667-.636q-1.758-.555-3.88-.813c-2.867-.312-5.855-.218-8.964.293q-4.119.606-6.762 1.145-.887.2-1.621.492-2.18.874-3.031 2.621a.5.5 0 0 1-.301-.023q-.89-.526-1.305-.64-.093-.108-.715.085-.463.192-1.312.848-.246.1-1.149.199-.646.768.426 1.313c.793.44 2.02.765 3.672.972q.7.327 3.098-.441.516-.036 1.015.234c.325.16.496.344.524.543l-.223 2.121q.029.117.766.692.656 1.16.816 1.183a.58.58 0 0 0 .508-.16q.416-.33 1.766-2.113a.48.48 0 0 1 .433-.211q.276.045.703.273l4.317 2.297c.597.285 1.23.535 1.89.754 3.45 1.055 5.801 1.512 7.063 1.371l.418-.082 9.539-5.723a11.2 11.2 0 0 0-1.516-3q-.48-.666-1.058-1.25a11 11 0 0 0-1.262-1.078z"/></g></g></g><g clip-path="url(#f5cecffbc6)"><g clip-path="url(#05d7a9e853)"><g clip-path="url(#204178251c)"><path fill="#f7a5c0" d="m213.7 193.559-.524-.293c-1.43-.715-3.086-.887-4.973-.508l-3.176 5.426a5.2 5.2 0 0 1-.5 1.234c-.304.488-.507.781-.601.871q-.78.898-1.192 1.156-.842.633-2.793 1.758c-.285.215-.562.52-.828.906q-.269.4-.554 1.004-1.019 2.848-1.739 3.985-.48.825-2.379 3.047a5 5 0 0 0-.425.695q-.347.907.109 1.082c1.11.203 2.285.047 3.516-.469q.944-.38 1.968-1.012l1.043-.695a26 26 0 0 0 2.211-1.77q.814-.728 2.403-2.5a30 30 0 0 0 1.64-2.066q1.344-1.894 1.66-2.547l1.625-3.406q.376-.64 1.063-.945.866-.023.59 1.554a1.8 1.8 0 0 1-.192.54q-1.224 1.786-1.312 2.015c-.211.473-.38 1.133-.496 1.98q-.064.95.043 3.07-.405 2.169-.399 2.286l.008.606q.063.626.215.714c.18.11.398.024.668-.261q.345-.412.434-.57 1.365-2.393 2.18-3.626 1-1.574 2.218-3.347.51-.896.816-1.75.34-1.051.344-1.25.423-2.83-.215-4.278-.821-1.6-2.457-2.636"/></g></g></g><g clip-path="url(#571730433a)"><g clip-path="url(#6001e76381)"><g clip-path="url(#c4d67bcf3c)"><path fill="#f7a5c0" d="m222.512 190.375-.172-.105q-.86-.546-2.195-.551c-.16-.008-.45.039-.856.144q-.841.306-2.187.934a5.4 5.4 0 0 1-1.024.27q-.725.22-2.933-.368l-.223 6.363q3.228.967 5.86.82l.859-.077a10.3 10.3 0 0 0 1.617-.348q.896-.34 1.207-.61.433-.31.8-.734l1.52-2.414a1.45 1.45 0 0 0 .172-.742c-.012-.316-.203-.672-.582-1.059q-1.254-1.183-1.863-1.523"/></g></g></g><g clip-path="url(#900ecccd1e)" transform="translate(173 216)"><path d="M45.825 36.424c-1.219 3.18-3.008 5.828-5.36 7.953a19.7 19.7 0 0 1-8.14 4.438q-4.596 1.247-9.719.25-5.082-1.02-8.14-3.797-3.049-2.764-3.782-6.781c-.48-2.688-.11-5.617 1.11-8.797q1.874-4.782 5.406-7.969a19.8 19.8 0 0 1 8.156-4.453c3.094-.844 6.332-.93 9.719-.266q5.074 1.018 8.11 3.782 3.028 2.753 3.796 6.797.764 4.032-1.156 8.843m-31.735-2.39c-.336 3.742.313 6.836 1.938 9.28q2.451 3.67 7.14 4.61.985.186 2.063.25 1.077.076 2.219-.047 4.435-.28 7.922-2.39a16.6 16.6 0 0 0 5.64-5.64q2.157-3.545 2.532-8.032.515-5.623-1.97-9.313-2.485-3.684-7.14-4.609a15.2 15.2 0 0 0-4.25-.219c-2.937.2-5.57 1.012-7.89 2.438-2.313 1.418-4.196 3.308-5.641 5.672q-2.157 3.534-2.563 8m0 0" fill="#f4611e"/></g><g clip-path="url(#5933203694)"><g clip-path="url(#c984c3b2cd)"><g clip-path="url(#38348ee98f)"><g clip-path="url(#8ca1b5e145)" transform="translate(186 232)"><g clip-path="url(#3c310ab9d0)"><g clip-path="url(#7c4e8021d7)"><g clip-path="url(#460449872d)"><path fill="#f4611e" d="M-6.48 17.21 19.422-5.737l19.719 22.25-25.903 22.953Zm0 0"/></g></g></g></g></g></g></g><g clip-path="url(#f5a3cb51cd)"><g clip-path="url(#512f8705f3)"><g clip-path="url(#f69d4dea9d)"><path fill="#f7a5c0" d="M259.598 268.86c.457-.594.886-1.22 1.261-1.88.282-.496.555-1 .829-1.503.613-1.145 1.222-2.293 1.84-3.438.144-.281.296-.562.46-.832.29-.492.63-.957 1.047-1.355a2.6 2.6 0 0 1 .606-.434c.363-.188.75-.227 1.144-.164q.352.059.692.152c1.57.426 3.171.594 4.793.582q.32-.006.636-.023c.68-.043 1.352-.13 1.996-.363.387-.141.758-.317 1.059-.602.52-.484.7-1.082.504-1.77a2.8 2.8 0 0 0-.242-.582c-.207-.406-.5-.753-.809-1.086-.437-.472-.941-.875-1.46-1.25a30 30 0 0 1-2.958-2.425c-.52-.48-1.043-.957-1.562-1.446a8 8 0 0 1-.63-.675c-.245-.305-.25-.418-.07-.766.13-.238.27-.473.41-.703.45-.734.891-1.473 1.278-2.246.637-1.27 1.203-2.57 1.758-3.88.261-.624.504-1.265.668-1.925.058-.226.097-.457.125-.687a1.3 1.3 0 0 0-.04-.54.91.91 0 0 0-.562-.636 1.5 1.5 0 0 0-.555-.102c-.257 0-.511.031-.765.078a22 22 0 0 0-3.164.86c-1.012.355-2.008.75-3.012 1.129-.863.328-1.719.652-2.598.933a9.6 9.6 0 0 1-2.687.473 5.5 5.5 0 0 1-1.66-.184 3.27 3.27 0 0 1-1.438-.828 7.6 7.6 0 0 1-.851-1.027c-.391-.559-.766-1.125-1.149-1.684a10 10 0 0 0-.894-1.144 3.7 3.7 0 0 0-.653-.586 1.6 1.6 0 0 0-.488-.238.79.79 0 0 0-.793.207c-.086.085-.16.183-.226.285a2.5 2.5 0 0 0-.293.605q-.183.54-.258 1.102a16 16 0 0 0-.121 3.097c.043.649.12 1.293.222 1.934.149.91.356 1.809.555 2.707.078.387.168.766.246 1.152.024.11.055.227.035.332-.02.137.106.22.074.387-.168.137-.355.277-.53.434-.411.36-.848.675-1.356.898-.035.016-.078.04-.117.059l-1.555.84-1.508.793c-.266.136-.539.265-.805.41a40 40 0 0 0-2.91 1.75 5 5 0 0 0-.496.398 1.4 1.4 0 0 0-.344.469c-.28.621-.234 1.203.2 1.742.214.27.5.457.796.621.465.246.95.442 1.461.559a38 38 0 0 0 1.75.367c.891.16 1.793.234 2.703.254a34 34 0 0 1 2.692.144 7 7 0 0 1 1.523.317c.176.054.352.117.508.199q.72.383 1.035 1.129c.149.367.227.754.278 1.144q.093.82.152 1.645c.09 1.25.164 2.5.246 3.75.055.746.176 1.484.352 2.21.09.36.191.716.347 1.056q.176.381.47.687c.292.3.647.406 1.054.344.347-.05.668-.184.949-.402.309-.235.57-.52.805-.829"/></g></g></g><g clip-path="url(#bf49bd4563)"><g clip-path="url(#126a5db0ee)"><g clip-path="url(#749d67ad1d)"><path fill="#f7a5c0" d="m12.605 240.477-.07.039q-.93.604-.558 1.964c.097.247.25.477.457.7l.355.328.996.637q1.642.52 5.445 1.363 1.42.227 3.204.062l1.73.336c.664.172 1.18.406 1.54.711q.695.58.788 1.153l.14 2.8-.241.907c.074.511.07.98 0 1.402.035.383.062.594.078.621q.112.727.816.375 1.067-.82 1.676-3.703c.246-.914.262-2.508.059-4.781l4.453-5.602q-2.319-1.389-4.485-2.11a16 16 0 0 0-2.129-.554l-1.035-.148a12.5 12.5 0 0 0-2.015-.055c-1.211.074-1.98.168-2.297.281a8 8 0 0 0-1.086.496q-1.647 1.027-2.59 1.543-.343.206-.84.336-.309.099-.555.137-1.135.089-2.464.324-.973.187-1.372.438"/></g></g></g><g clip-path="url(#3356ec7c4d)"><g clip-path="url(#a6a70566cb)"><g clip-path="url(#5fc882e8b3)"><path fill="#f7a5c0" d="m28.96 234.441-.003.004c-.012.012-.016.016-.004.02l-.933.844q-.183.13-.973.488a1.5 1.5 0 0 0-.313.254q-.146.153-.254.32l-.968 1.664 3.46 5.2c.665-1.048 1.157-1.872 1.473-2.481q1.746-3.745 2.918-5.645.313-.422.871-.851c1.586-1.047 2.493-1.668 2.707-1.856q.435-.44.43-.761c.02-.04-.004-.157-.062-.348a1.6 1.6 0 0 0-.434-.223l-.258-.062q-.794-.14-2.105.336-.389.117-1.328.96-1.137.452-1.266.548c-.059.066-.324.304-.797.722q-.479.404-.508.403a2.3 2.3 0 0 1-.406.168q-.971.191-1.246.296"/></g></g></g><g clip-path="url(#4265e6319a)"><g clip-path="url(#63c77f90c8)"><g clip-path="url(#067630062c)"><path fill="#f7a5c0" d="m28.406 237.715-.14 9.039q5.32.496 7.234 1.46 1.946 1.058 2.754 1.997l.492.555q.472.579.871 1.254c.266.449.508.925.727 1.437.246.93.289 1.633.12 2.106-.124.605-.382 1.246-.765 1.921-.277.48-.547.84-.797 1.086-1.804 1.614-3.007 2.782-3.617 3.512q-1.212 1.424-1.465 2.816.305.178 4.395-2.488c.797-.379 1.742-.7 2.828-.953q1.863-.31 4.453 1.602.414.041.441-.438-.006-.44-.43-1.465c-.921-1.75-1.429-2.765-1.523-3.054a12.5 12.5 0 0 1-.656-2.157q-.122-.543-.18-1.527.031-4.636-.086-5.375-.085-1.101-.43-2.309-.513-1.874-1.929-3.894l-1.125-1.54-1.183-1.292-1.247-1.055-1.308-.812-1.367-.57q-2.79-.898-6.067.144"/></g></g></g><g clip-path="url(#810b1f470e)"><g clip-path="url(#9a5c741166)"><g clip-path="url(#f23c48eb55)"><path fill="#f7a5c0" d="m84.508 255.172-.293-.055q-1.055-.207-2.903.043-1.142.211-3.68 1.406-.31.106-.573.079-.376-.02-.82-.313-1.444-1.446-1.528-1.352a1.2 1.2 0 0 0-.535.004q-1.149.557-1.254.457l-.73-1.761c-.18-.227-.454-.246-.813-.059q-.299.061-1.457 2.418-1.191.93-1.445 1.363-1.337 2.263-1.407 3.5-.001.27.25.57.088.1.88.27l.429.61.758-.02q-.065.662.39.844.627.165 1.512.023a11 11 0 0 0 2.371-.652c.2-.035.34-.02.418.055q.37.556-.273 1.144-.111.074-.32.137a8.7 8.7 0 0 0-1.672.308q-.867.316-1.13.649-.018.166.063.183l1.129.602q.106.052.313.094 1.334-.059 5.476.148.54-.077 1.078-.312 2.203-1.348 3.094-1.582c.504-.098 1.5-.172 2.988-.23q.668-.031 1.258.355.675.458 1.625 1.601.016.105-.098.153-2.101.58-2.375.957-.1.151.344.48l-.07.594q.017.057.133.133.181.147.664.054.58-.11 1.84-.55l1.625-.239c.57-.164.925-.316 1.066-.465q1.03-3.017 1.305-3.476.488-1.08 1.082-2.082a20.6 20.6 0 0 1 2.773-3.688l-4.426 1.633-.324-.422a6.6 6.6 0 0 0-.941-.847q-.569-.424-1.325-.852-3.159-1.63-4.472-1.91" fill-opacity=".996"/></g></g></g><g clip-path="url(#fd9761c93d)"><g clip-path="url(#e995ebfa49)"><g clip-path="url(#2c9c17cd64)"><path fill="#f7a5c0" d="m90.285 233.676-.246-.043a5.6 5.6 0 0 0-2.039.058q-2.04.73-2.773 1.07-.564.282-.782.505c-.418.359-1.168 1.101-2.254 2.218q-1.822 2.718-1.664 5.938c.157 1.66.43 2.933.828 3.828q.853 1.787 1.672 2.73.862 1.149 2.426 2.649.314.28.629.531a50 50 0 0 1 3.25 2.195c.777.63 1.164 1.043 1.156 1.247q.586 1.204-.363 2.984l.262 1.914c2.21-1.309 3.898-2.254 5.05-2.832q.54-.362.762-.637.464-.592.817-2 .286-1.566.246-1.914.022-2.22-.617-3.773a4 4 0 0 0-.196-.403q-1.7-2.234-2.625-3.695-.93-1.459-1.094-2.144-.311-1.629-.078-2.735.088-.643.297-1.012l1.094-2.148q.21-.293-.07-1.496c-.188-.625-.54-1.195-1.059-1.719q-1.54-1.171-2.629-1.316" fill-opacity=".996"/></g></g></g><path fill="#f7a5c0" d="M142.336 259.95s.434 7.597 7.426 5.222 7.25-10.016 5.914-12.473c0 0-3.668 5.914-8.074 4.403 0 0-1.207.347 5.484-3.797 6.687-4.145 1.383-7.598 1.383-9.414 0 0-5.57 10.406-7.73 9.195-2.157-1.207 7.812-7.984 6.995-10.574a8.04 8.04 0 0 0-2.851-3.973s-1.512 9.758-6 10.445c0 0-2.332-1.066 3.41-6.515 5.738-5.45-3.031-8.59-4.457-8.98-1.606-.442-7.156 2.027-7.156 2.027s-.602 1.511 3.715 10.359c0 0-4.102.563-6.133-10.488l-3.367 3.75s0 3.027 3.972 6.992 5.656 5.18 4.88 5.703c-.778.52-4.06.344-6.95-3.887-2.89-4.226-3.918-6.734-3.918-6.734s-3.422 3.848-2.559 5.574c.864 1.727 2.114 3.149 6.649 5.953 4.531 2.809 3.027 2.637 3.027 2.637s-1.078 1.727-5.957-2.375c-4.875-4.102-4.191-3.973-4.191-3.973s-2.594 5.914.472 7.383c3.067 1.465 9.325 1.336 9.668 2.547.348 1.211-7.554 1.813-10.054-.262 0 0 1.12 3.672 2.242 5.008 1.125 1.34 7.297 6.133 11.742 1.555 0 0 2.031-1.77 2.418-5.309m0 0"/><g clip-path="url(#9b2b97a654)" transform="translate(130 71)"><path d="M15.287 19.164q.233-.2.437-.094.216.111.157.344l-.594 2.563q-.205.842-1.047.656L3.209 20.039c-.125-.031-.196-.117-.204-.265q-.002-.235.265-.376.872-.42 1.235-.906.358-.497.547-1.328l2.063-8.797q.187-.81.094-1.437-.094-.62-.703-1.36-.176-.234-.063-.422c.07-.132.172-.187.297-.156l8.313 1.953q.778.189 1.515.547.75.364 1.172.89.435.533.266 1.282-.188.816-.735 1.156-.534.33-1.203.22-.674-.106-1.234-.61c-.375-.344-.649-.79-.813-1.344q-.315-1.06-.75-1.406-.422-.341-1.125-.547-.28.814-.797 2.406a57 57 0 0 0-1.03 3.781l.593.141q.92.204 1.344.11.42-.106.703-.422.279-.33.781-.75.233-.189.438-.094c.144.062.195.195.156.39l-.89 3.797q-.065.282-.298.282-.234-.013-.375-.266a9 9 0 0 1-.36-1.031 1.43 1.43 0 0 0-.452-.703q-.33-.295-1.25-.5l-.594-.141q-.3 1.44-.594 3.047a38 38 0 0 0-.468 3.343l2.203.516q.92.223 1.64-.094.716-.31 1.297-.843.591-.527 1.094-.938m0 0" fill="#fff"/></g><g clip-path="url(#7696c7224b)" transform="translate(245 126)"><path d="M14.639 19.076q.199-.232.422-.125.217.094.187.328l-.36 2.625q-.126.846-.968.719L2.701 21.076q-.205-.031-.234-.266-.035-.233.219-.375.842-.515 1.14-1.03.31-.53.438-1.376l1.234-8.953c.07-.55.063-1.031-.031-1.437q-.142-.61-.828-1.282-.204-.217-.11-.406.093-.2.297-.172l8.453 1.156a7.2 7.2 0 0 1 1.547.407q.78.282 1.266.78c.32.325.453.735.39 1.235q-.126.844-.64 1.219-.517.375-1.188.328-.656-.046-1.265-.484-.61-.452-.938-1.25c-.281-.688-.578-1.133-.89-1.344q-.456-.31-1.157-.437a48 48 0 0 0-.562 2.468 69 69 0 0 0-.688 3.86l.594.078c.625.086 1.078.078 1.36-.016q.421-.14.656-.484.248-.342.719-.813.217-.2.421-.125.219.064.172.375l-.531 3.86c-.023.187-.11.289-.266.297q-.222.016-.375-.22a9 9 0 0 1-.468-1 1.3 1.3 0 0 0-.5-.655c-.243-.165-.672-.29-1.297-.376l-.594-.078q-.176 1.455-.328 3.079a37 37 0 0 0-.172 3.375l2.25.312c.625.094 1.164.016 1.625-.234a4.8 4.8 0 0 0 1.234-.97q.528-.59.985-1.046m0 0" fill="#fff"/></g><g clip-path="url(#9bc71e8221)" transform="translate(16 16)"><path d="M15.966 16.937q.107-.279.344-.265.247 0 .297.234l.593 2.562q.186.845-.64 1.032L5.528 23.062q-.2.047-.312-.156-.106-.218.062-.453.612-.762.72-1.36.093-.59-.095-1.421l-2.03-8.813c-.126-.54-.306-.984-.548-1.328q-.356-.529-1.234-.922-.263-.122-.25-.344.019-.217.219-.265l8.297-1.922a7 7 0 0 1 1.609-.188q.825 0 1.453.282.621.28.797 1.03c.125.555.07 1.009-.156 1.36q-.345.535-1 .735-.645.204-1.36 0-.72-.217-1.328-.844-.75-.81-1.297-.922-.531-.123-1.234 0 .092.845.344 2.5a65 65 0 0 0 .75 3.844l.593-.141c.602-.133 1.02-.297 1.25-.484.227-.188.375-.414.438-.688.07-.281.203-.617.39-1.015q.105-.264.329-.282c.156-.008.257.09.312.297l.875 3.781q.059.3-.14.407-.205.092-.438-.094a7.4 7.4 0 0 1-.781-.766 1.2 1.2 0 0 0-.703-.422q-.441-.105-1.344.094l-.594.14q.357 1.443.797 3 .436 1.564 1.047 3.204l2.203-.5q.938-.216 1.453-.813.516-.59.797-1.328c.188-.488.367-.93.547-1.328m0 0" fill="#fff"/></g><g clip-path="url(#35971fdf49)" transform="translate(74 182)"><path d="M17.158 17.295q.094-.296.328-.297.247.001.312.218l.703 2.547q.218.832-.609 1.047L6.97 23.827c-.125.031-.226-.016-.312-.14q-.123-.202.046-.438.598-.796.672-1.391.064-.608-.171-1.422l-2.391-8.734q-.232-.795-.594-1.297-.374-.497-1.281-.86-.265-.105-.266-.328 0-.234.188-.28l8.234-2.267a6.8 6.8 0 0 1 1.578-.25q.826-.045 1.469.22.656.25.86.984.217.813-.11 1.375-.314.549-.953.78-.626.224-1.375.048-.736-.186-1.344-.782-.797-.78-1.344-.875-.55-.105-1.234.047.124.861.453 2.5.329 1.628.89 3.813l.596-.173c.593-.164 1.003-.344 1.234-.531q.34-.296.422-.719a7.5 7.5 0 0 1 .328-1.031q.106-.28.328-.297.232-.013.313.297l1.046 3.75c.051.187.004.32-.14.39-.137.063-.278.04-.422-.078a9 9 0 0 1-.828-.719 1.33 1.33 0 0 0-.719-.406q-.438-.091-1.328.156l-.594.172q.42 1.407.922 2.954a52 52 0 0 0 1.188 3.171l2.185-.609q.92-.247 1.406-.875a4.7 4.7 0 0 0 .735-1.36q.264-.748.5-1.328m0 0" fill="#fff"/></g><g clip-path="url(#8024962bc1)" transform="translate(192 235)"><path d="M14.859 18.887q.198-.216.422-.11.234.111.187.344l-.516 2.579q-.174.844-1.015.687l-11.11-2.203c-.136-.031-.21-.117-.218-.267q-.018-.233.234-.39.89-.435 1.219-.938c.219-.344.383-.789.5-1.344l1.75-8.875q.152-.81.047-1.421-.095-.622-.75-1.36-.189-.2-.079-.406c.07-.133.176-.188.313-.156l8.36 1.656a7.2 7.2 0 0 1 1.53.5q.749.328 1.204.844.466.515.312 1.265-.159.832-.687 1.188-.535.346-1.203.265a2.43 2.43 0 0 1-1.25-.578q-.58-.499-.86-1.312-.345-1.031-.797-1.375-.438-.34-1.14-.516-.269.832-.719 2.438a71 71 0 0 0-.906 3.812l.593.11q.922.188 1.344.078c.29-.07.524-.22.703-.438q.264-.34.75-.797.234-.17.438-.094.215.082.156.376l-.75 3.812q-.063.3-.297.313-.222.002-.375-.266a8 8 0 0 1-.39-1q-.111-.405-.47-.688-.344-.28-1.265-.468l-.594-.11c-.18.969-.343 1.992-.5 3.063a46 46 0 0 0-.359 3.36l2.219.437q.938.188 1.64-.141a4.7 4.7 0 0 0 1.282-.89q.561-.564 1.047-.985m0 0" fill="#fff"/></g></g></svg>