<svg xmlns="http://www.w3.org/2000/svg" viewBox="0 0 638.25 236.25" version="1.0"><defs><clipPath id="25f4113314"><path d="M.637 1H578v177H.637Zm0 0"/></clipPath><clipPath id="0dd2f9973e"><path d="M0 0h578v177H0z"/></clipPath><clipPath id="0427a70d50"><path d="M42 76h594.867v159.504H42Zm0 0"/></clipPath><clipPath id="4cff94b352"><path d="M1 20h82v139.504H1Zm0 0"/></clipPath><clipPath id="3821032a43"><path d="M506 42h88.867v93H506Zm0 0"/></clipPath><clipPath id="045b787f6e"><path d="M515 51h79.867v75H515Zm0 0"/></clipPath><clipPath id="d6212f6e48"><path d="M0 0h595v160H0z"/></clipPath></defs><g clip-path="url(#25f4113314)"><g clip-path="url(#0dd2f9973e)" fill="#562230" transform="translate(0 1)"><path d="M97.375 33.23a286 286 0 0 1-5.172 3.469q-1.784 1.159-2.5 2.594-.705 1.424-1.25 4.812l-8.547 61.688q-.55 3.205-.188 4.718.358 1.517 1.781 2.688 1.438 1.16 4.11 3.469 1.417 1.064.797 2.406-.628 1.346-2.047 1.344H64.39q-7.313.002-11.422-3.032-4.096-3.03-6.406-9.453L24.984 43.919l-8.563 61.875q-.534 3.205-.172 4.718.358 1.517 1.782 2.688c.945.773 2.312 1.93 4.093 3.469q1.436 1.064.891 2.406-.534 1.346-1.953 1.344H2.702q-1.251.002-1.437-1.344-.175-1.341 1.25-2.406 3.563-2.31 5.25-3.469 1.7-1.171 2.422-2.687.716-1.513 1.25-4.72L20 44.106q.528-3.388.171-4.812-.362-1.434-1.703-2.594-1.328-1.155-4.187-3.469c-.824-.719-1.032-1.492-.625-2.328q.621-1.249 1.875-1.25H35.5q7.499 0 11.5 2.953c2.675 1.961 4.785 5.078 6.328 9.36l21.406 64 8.734-61.86q.529-3.388.172-4.812-.363-1.434-1.781-2.594-1.424-1.155-4.094-3.469c-.836-.719-1.074-1.492-.719-2.328q.528-1.249 1.97-1.25h18.186q1.417.001 1.593 1.25.186 1.252-1.421 2.328m80.768 25.843q-1.611 5.345-3.391 13.11-1.782 7.75-2.672 16.14-.89 8.378-.094 15.86.812 7.487 4.188 12.484 1.077 1.253.718 2.5-.363 1.252-1.78 1.25h-16.408q-5.878 0-9.094-3.203-3.204-3.217-4.094-7.141-3.39 4.283-8.125 7.313c-3.148 2.023-6.742 3.03-10.78 3.03-5.345 0-10.013-.976-14-2.937q-5.97-2.95-8.641-10.343c-1.782-4.938-2.079-11.805-.891-20.61.476-3.32.422-6.113-.172-8.375q-.892-3.389-5-6.953-1.253-1.06-.625-2.312.622-1.25 1.875-1.25 8.56.002 14.625-2.938 6.062-2.953 10.422-6.156 4.372-3.218 7.766-3.922 3.028-.528 2.312 1.078a75 75 0 0 0-1.422 3.375q-2.688 8.032-4.562 17.219c-1.243 6.117-1.922 11.906-2.047 17.375-.117 5.468.508 9.93 1.875 13.375q2.043 5.173 7.047 5.172c1.906 0 3.804-1.13 5.703-3.391a53 53 0 0 0 5.172-7.312l2.14-14.985q.717-4.981-.172-8.375-.89-3.389-5-6.953-1.253-1.06-.625-2.312.622-1.25 1.875-1.25 8.56.002 14.625-2.938 6.061-2.953 10.422-6.156 4.372-3.218 7.766-3.922 3.029-.528 2.312 1.078a26 26 0 0 0-1.25 3.375m67.391 40.828q1.606-1.779 3.031-.266 1.436 1.52.36 2.938c-3.68 5.23-8.547 9.512-14.61 12.844q-9.094 5.002-19.437 5-9.815 0-17.297-4.453-7.486-4.465-11.235-11.953c-2.5-5-3.336-10.532-2.5-16.594q1.248-9.075 7.125-16.563 5.89-7.5 14.891-11.953c6.008-2.976 12.578-4.469 19.703-4.469q6.951 0 13.188 2.86 6.248 2.86 9.906 7.672 3.656 4.816 2.766 10.687-.721 5.706-4.829 10.531-4.096 4.815-10.25 7.672c-4.093 1.899-8.46 2.844-13.093 2.844q-3.393 0-6.422-.703a29 29 0 0 1-5.703-1.969c.476 2.969 1.578 5.617 3.297 7.938q2.59 3.47 7.765 5.078 3.2.891 7.484.453c2.852-.3 5.735-1.102 8.641-2.406q4.37-1.968 7.219-5.188m-21.563-40.469c-1.43 0-3.422 1.399-5.984 4.188q-3.831 4.19-5.078 12.75-1.065 7.126 1.156 11.234 2.231 4.095 5.438 4.094c2.382 0 4.554-1.57 6.515-4.719q2.937-4.717 3.828-11.328.889-6.762-.718-11.484-1.595-4.734-5.157-4.735m58.828 4.641q-1.424 4.629.89 8.016 2.326 3.39 6.516 6.25a486 486 0 0 0 8.734 5.797q4.547 2.938 7.75 6.5 3.217 3.563 3.391 8.562.186 4.986-4.094 9.719-4.283 4.721-11.156 7.937-6.862 3.206-14.703 3.375l-.36.188q-5.705.002-11.327-1.157-5.614-1.17-9.797-3.843-4.19-2.672-5.61-6.953-1.44-4.092.797-6.86 2.232-2.763 6.156-3.828a18.7 18.7 0 0 1 7.922-.453q4.014.628 6.422 3.219 2.403 2.578 1.344 7.203-1.079 4.815.61 6.422 1.699 1.612 4.109.547 2.404-1.08 3.484-3.938 1.78-4.622-.547-7.75-2.315-3.124-6.594-5.703a1032 1032 0 0 0-8.906-5.344q-4.643-2.765-7.937-6.422-3.301-3.655-3.125-9.015.186-6.592 4.28-11.485 4.109-4.906 10.876-7.671 6.78-2.766 14.625-2.954h.36q5.7-.17 11.312 1.079 5.625 1.253 9.984 3.843 4.372 2.579 5.625 7.031 1.248 4.095-.984 6.86-2.237 2.766-6.156 3.844-3.926 1.064-7.844.437-3.926-.623-6.328-3.203-2.408-2.59-1.328-7.219 1.061-4.999-.72-6.594c-1.187-1.07-2.616-1.25-4.28-.53q-2.501 1.064-3.391 4.093m80.068-1.781q1.78.001 2.219 1.25.451 1.235.265 3.015c-.117 1.188-.468 2.2-1.062 3.032q-.891 1.252-2.672 1.25h-8.734q-2.144 11.425-2.688 21.046-.532 9.628.36 15.876c.593 4.156 1.6 6.886 3.03 8.187q1.078 1.08.72 2.781-.364 1.688-3.391 1.688h-36.016q-1.782.001-1.61-1.61.189-1.605 1.782-2.859 3.388-2.841 5.172-7.656a63 63 0 0 0 2.765-9.985c.657-3.445 1.16-6.422 1.516-8.922q.358-3.561.985-8.812.62-5.263-.797-9.734h-3.922q-1.8.002-2.156-1.25-.348-1.249-.172-3.032.187-1.78.984-3.015.796-1.249 2.578-1.25h1.078q6.42.002 11.047-2.938a38.5 38.5 0 0 0 8.203-6.969q3.576-4.014 6.688-7.484 3.123-3.48 6.328-4.547c1.906-.719 3.18-.57 3.828.438q.982 1.518.453 3.312a310 310 0 0 0-2.672 9.172 260 260 0 0 0-2.312 9.016Zm61.507-7.86q5.168 0 10.25 2.766 5.076 2.767 5.266 8.469.341 5.174-2.516 8.75-2.847 3.563-7.125 5.531-4.267 1.956-8.469 2.14-4.19.177-6.5-1.78-2.315-1.968-1.25-6.079 1.08-3.03 1.875-5.25c.532-1.488-.039-2.234-1.703-2.234q-3.203 0-7.75 4.11-4.549 4.095-7.75 8.906c-1.906 9.867-2.742 17.89-2.5 24.078q.358 9.268 3.75 12.109 1.231 1.08.782 2.781-.44 1.688-3.282 1.688h-34.765q-1.252.002-1.438-1.344-.175-1.341 1.25-2.406c3.445-2.375 5.766-4.66 6.953-6.86q1.781-3.31 2.5-8.297l2.14-14.984c.477-3.32.423-6.113-.171-8.375q-.892-3.389-5-6.953-1.253-1.06-.625-2.312.622-1.25 1.875-1.25 8.56.002 14.625-2.938 6.062-2.953 10.422-6.156 4.372-3.218 7.766-3.922 3.027-.528 2.218 1.078a20.6 20.6 0 0 0-1.328 3.375l-3.031 11.594q2.483-3.029 6.312-6.86a46.2 46.2 0 0 1 8.297-6.609q4.467-2.766 8.922-2.766m56.16 0c6.54 0 12.274 1.493 17.203 4.47q7.405 4.452 11.141 11.952 3.749 7.487 2.5 16.563-1.253 9.093-7.047 16.594-5.784 7.488-14.531 11.953-8.735 4.452-18.531 4.453-9.815 0-17.297-4.453-7.486-4.465-11.235-11.953c-2.5-5-3.336-10.532-2.5-16.594q1.248-9.075 7.125-16.563 5.889-7.5 14.625-11.953c5.832-2.976 12.016-4.469 18.547-4.469m-8.561 60.986q2.859.002 5.625-3.828 2.764-3.844 5.078-10.172c1.539-4.219 2.672-8.883 3.39-14q1.06-7.842.532-14.172c-.356-4.219-1.102-7.57-2.235-10.063q-1.688-3.75-4.53-3.75-2.86 0-5.72 3.75c-1.898 2.493-3.62 5.844-5.172 10.063q-2.313 6.33-3.374 14.172-1.08 7.674-.547 14 .545 6.328 2.328 10.172 1.778 3.83 4.625 3.828m71.852-51.345q-1.424 4.629.89 8.016 2.326 3.39 6.516 6.25a486 486 0 0 0 8.734 5.797q4.547 2.938 7.75 6.5 3.217 3.563 3.391 8.562.186 4.986-4.094 9.719-4.283 4.721-11.156 7.937-6.862 3.206-14.703 3.375l-.36.188q-5.705.002-11.327-1.157-5.614-1.17-9.797-3.843-4.19-2.672-5.61-6.953-1.44-4.092.797-6.86 2.232-2.763 6.156-3.828a18.7 18.7 0 0 1 7.922-.453q4.014.628 6.422 3.219 2.403 2.578 1.344 7.203-1.079 4.815.61 6.422 1.699 1.612 4.109.547 2.404-1.08 3.484-3.938 1.78-4.622-.547-7.75-2.315-3.124-6.594-5.703a1032 1032 0 0 0-8.906-5.344q-4.643-2.765-7.937-6.422-3.301-3.655-3.125-9.015.186-6.592 4.28-11.485 4.109-4.906 10.876-7.671 6.78-2.766 14.625-2.954h.36q5.7-.17 11.312 1.079 5.625 1.253 9.984 3.843 4.372 2.579 5.625 7.031 1.248 4.095-.984 6.86-2.237 2.766-6.156 3.844-3.926 1.064-7.844.437-3.926-.623-6.328-3.203-2.408-2.59-1.328-7.219 1.061-4.999-.72-6.594c-1.187-1.07-2.616-1.25-4.28-.53q-2.501 1.064-3.391 4.093m0 0"/></g></g><g clip-path="url(#0427a70d50)"><g clip-path="url(#d6212f6e48)" transform="translate(42 76)"><g clip-path="url(#4cff94b352)"><path d="M25.782 161.557h-.664q-2.53 0-4.703-1.086l4.043-8.082-1.864 8.84q-6.264-1.32-9.433-6.347-2.105-3.346-2.797-7.614-.346-2.14-.805-4.086a28 28 0 0 1-.742-4.504 192 192 0 0 1-.422-7.445c-.094-2.5-.137-4.996-.137-7.496q0-7.371.34-14.742c.219-4.695.367-9.344.457-13.945l9.035.167-8.945 1.278q.112.8.488 1.637a7.5 7.5 0 0 0 1.977 2.62c-.23-.199-.527-.44-.89-.734-2.669-2.058-4.696-4.152-6.09-6.281-1.829-2.785-2.739-5.652-2.739-8.602q0-2.806 1.078-5.293a12.9 12.9 0 0 1 3.239-4.472q3.902-3.514 8.964-3.512c2.028 0 3.934.406 5.707 1.227a13.3 13.3 0 0 1 4.684 3.613l-6.945 5.785-8.875-1.695q1.74-9.1 3.547-17.73 1.979-9.463 5.734-18.075c2.7-6.191 6.601-11.89 11.71-17.105l.306-.309.328-.277q7.565-6.37 15.77-6.371 8.783.002 15.01 6.226 5.914 5.917 6.595 13.844l-9.004.773 8.687-2.484q.614 2.144.614 4.406v2.055q.001 11.76-5.149 22.383-4.938 10.18-13.305 18.32A84 84 0 0 1 32.54 99.811l-4.372-7.91 6.391-6.39a87 87 0 0 0 6.242 5.644q2.982 2.443 5.977 3.996 1.898.979 3.012.98-.135-.002-.399.16a1 1 0 0 0-.098.067l.012-.012q.14-.147.328-.453 2.498-4.108 5.457-10.636 2.76-5.878 8.223-7.696 5.426-1.81 10.477.82 4.605 2.393 6.585 7.258 2.144 5.262-.37 11.227a80 80 0 0 1-5.458 11.11q-3.74 6.321-9.367 10.406-6.485 4.709-15.655 4.707-9.674 0-17.66-4.809-7.087-4.267-11.22-9.09l6.863-5.879 8.992.867c-.253 2.637-.468 5.34-.636 8.11q-.251 4.03-.25 8.531.001 2.71.125 5.348.124 2.671.37 5.543l-9 .78 2.192-8.765c2.524.63 4.649 1.64 6.364 3.024q3.707 2.987 4.468 7.574.523 3.124.524 6.523 0 .78.047 1.559.081 1.344.082 2.687 0 1.724-.192 3.375-.343 2.901-1.87 5.657l-7.903-4.39 8.719 2.378a11.9 11.9 0 0 1-2.7 4.95q-1.791 1.974-4.34 3.081a16.7 16.7 0 0 1-6.718 1.414m0-18.074q-.287.002-.485.086-1.024.445-1.851 1.36a5.85 5.85 0 0 0-1.34 2.43l.285-1.056.531-.957q-.2.366-.277 1.012.07-.603.07-1.266.001-.78-.05-1.558a44 44 0 0 1-.082-2.688q-.001-1.904-.278-3.554.369 2.197 2.016 3.527a3.5 3.5 0 0 0 .781.492 3 3 0 0 0-.184-.054l-6.253-1.563-.56-6.422a155 155 0 0 1-.42-6.265q-.143-3.06-.143-6.188 0-5.055.282-9.64.273-4.472.687-8.739l2.044-21.125 13.813 16.113q2.232 2.607 6.82 5.372 3.684 2.216 8.336 2.218 3.305-.001 5.039-1.261 2.595-1.887 4.43-4.98 2.429-4.113 4.355-8.923h.008a2.5 2.5 0 0 0-.074.477q-.082 1.05.36 2.129.521 1.283 1.812 1.953c1.156.605 2.347.699 3.574.293a4.8 4.8 0 0 0 1.926-1.172q.404-.404.597-.824-3.41 7.534-6.48 12.578c-1.696 2.785-3.801 4.941-6.324 6.465q-4.049 2.448-8.957 2.449-5.513 0-11.313-3c-3.129-1.617-6.18-3.645-9.144-6.082a104 104 0 0 1-7.551-6.828L13.286 89.8l10.515-5.81a66 66 0 0 0 14.184-10.503q6.093-5.925 9.644-13.25 3.34-6.885 3.34-14.496v-2.055q0 .27.082.559l-.242-.84-.074-.871c-.078-.902-.531-1.774-1.363-2.606-.625-.625-1.368-.933-2.235-.933q-1.61 0-4.129 2.12l-5.82-6.913 6.457 6.324q-5.337 5.444-8.055 11.68-3.01 6.908-4.61 14.554a988 988 0 0 0-3.483 17.422l-3.59 18.762-12.23-14.676c.429.516.972.922 1.632 1.227a4.4 4.4 0 0 0 1.863.433q1.876 0 3.125-1.125a5 5 0 0 0 1.246-1.753 4.7 4.7 0 0 0 .418-1.915c0-.433-.058-.828-.18-1.175a2 2 0 0 0-.077-.196c.003.012.02.032.043.07q.428.651 2.261 2.075.785.622 1.364 1.121 3.046 2.614 3.664 6.91l.101.719-.012.73q-.14 7.154-.472 14.442-.323 6.95-.324 13.906c0 2.277.043 4.55.129 6.828q.124 3.404.37 6.613c.047.575.157 1.196.32 1.864q.605 2.566 1.056 5.332c.066.43.152.718.25.879a4.2 4.2 0 0 0-1.32-1.336q-.47-.301-.817-.371l1.14.238 1.04.52q-1.643-.82-3.38-.82Zm-1.871-69.59c2.843-1.777 5.691-4.218 8.539-7.332a45.3 45.3 0 0 0 7.085-10.234q2.414-4.781 2.414-8.992-.002-.962-.157-1.743a3.8 3.8 0 0 0-.351-.98l8.082-4.043-7.402 5.184c.488.695 1.136 1.265 1.953 1.718q1.451.81 3.062.809c.824 0 1.563-.16 2.207-.477a2.6 2.6 0 0 0 .36-.21l.015-.008a1 1 0 0 0-.07.062c-.781.727-1.531 1.621-2.254 2.692a43 43 0 0 0-2.352 3.875q-.924 1.746-1.117 2.261l-.054.149-.059.144q-2.607 6.27-3.89 12.235-1.373 6.358-2.25 13.636l-8.973-1.082Zm9.578 15.324L17.465 99.233l2.266-18.762q.977-8.104 2.523-15.277 1.635-7.57 4.864-15.355l8.347 3.464-8.46-3.171q.602-1.606 2.066-4.372a59 59 0 0 1 3.351-5.543q2.233-3.305 4.91-5.796 4.525-4.214 9.805-4.215 3.071-.001 5.715 1.469c1.613.894 2.969 2.132 4.078 3.71l.38.547.296.594a21.8 21.8 0 0 1 1.906 5.52q.509 2.536.508 5.289 0 8.519-4.352 17.136a63.4 63.4 0 0 1-9.893 14.306q-5.934 6.475-12.285 10.441m0 0" fill="#fff"/></g><path d="M127.312 85.116q2.87-6.059 8.453-7.852c3.687-1.187 7.195-.879 10.515.922q4.687 2.536 6.496 7.785 1.789 5.193-.613 10.895-3.412 8.015-8.023 14.781-4.963 7.284-11.149 11.903-7.378 5.507-16.214 5.507c-6.293 0-11.648-1.988-16.066-5.972q-5.562-5.01-8.599-12.336l-.12-.297-.102-.305q.204.623.797 1.399a7.6 7.6 0 0 0 1.894 1.761 8.2 8.2 0 0 0 3.8 1.325 8.1 8.1 0 0 0 3.829-.563 7.5 7.5 0 0 0 2.023-1.203q.651-.546.934-.992c-3.469 5.316-7.25 9.176-11.355 11.573q-6.423 3.756-13.115 3.755c-5.18 0-9.96-1.543-14.351-4.63q-5.969-4.195-9.366-10.425l-.079-.14-.07-.145q-1.148-2.291-1.785-5.062a36 36 0 0 1-.918-5.34 53 53 0 0 1-.242-5.047q-.001-10.113 4.351-18.73 4.43-8.77 12.243-14.126 8.212-5.63 18.44-5.629 6.085.001 12.735 2.387l.196.07.195.082a5.7 5.7 0 0 0-1.93-.414 6.8 6.8 0 0 0-3.043.547 6.5 6.5 0 0 0-2.281 1.575 4.8 4.8 0 0 0-.82 1.148l.093-.188q2.29-4.325 5.582-6.464 3.574-2.326 7.446-2.325 4.061 0 7.332 2.184a13.3 13.3 0 0 1 4.597 5.2q1.566 3.134 1.239 6.398-.084.854-.242 1.972l-.016.106-.016.101a566 566 0 0 0-1.699 10.907 77 77 0 0 0-.832 11.218q0 3.591.504 7.059.27 1.888.934 2.793a2.6 2.6 0 0 0-1.48-.973l.026-.008q-.475 0-.757.141.269-.134.8-.68 2.438-2.485 4.875-6.547a120 120 0 0 0 4.996-9.187Zm16.292 7.82a137 137 0 0 1-5.75 10.578q-3.531 5.89-7.46 9.899-5.841 5.964-12.954 5.964c-2.617 0-5.02-.512-7.199-1.528q-3.568-1.659-5.93-4.894-3.316-4.532-4.238-10.867a67 67 0 0 1-.691-9.657q.001-6.896 1.027-13.851a603 603 0 0 1 1.75-11.246l8.914 1.488-8.945-1.277q.105-.742.152-1.215-.194 1.94.578 3.48.54 1.088 1.543 1.754c.856.57 1.75.856 2.692.856.988 0 1.793-.2 2.406-.598q.533-.35.809-.684-.082.095-.27.453l-7.984-4.23 8.082 4.043c-1.395 2.781-3.399 4.73-6.024 5.84-2.89 1.222-5.87 1.199-8.949-.067l3.442-8.355-3.055 8.504q-3.692-1.324-6.63-1.324-4.629 0-8.222 2.46-3.99 2.736-6.328 7.364-2.409 4.78-2.41 10.586-.001 1.686.156 3.308.135 1.385.54 3.016.157.675.34 1.043l-8.083 4.039 7.934-4.328q1.376 2.527 3.894 4.297 1.906 1.34 3.957 1.34 1.795.002 3.992-1.286 2.473-1.44 5.227-5.671 1.214-1.901 2.691-3.145 3.298-2.767 7.41-2.394a9.65 9.65 0 0 1 4.504 1.582q1.46.958 2.551 2.398 1.224 1.605 1.961 3.82l-8.574 2.856 8.348-3.461q1.474 3.555 4.004 5.836 1.469 1.324 3.964 1.324 2.837 0 5.403-1.918 3.765-2.811 7.027-7.598 3.61-5.301 6.3-11.617l.028-.066q-.004.007-.008.031a2 2 0 0 0-.062.363 4 4 0 0 0 .226 1.68c.32.938.985 1.672 1.985 2.215a4.8 4.8 0 0 0 1.953.566 4.4 4.4 0 0 0 1.668-.172q1.199-.386 2-1.207.21-.211.34-.406l.008-.004Zm-62.773 6.38a.2.2 0 0 0-.059.015q.123-.052.375-.274 1.623-1.437 3.047-4.105a39 39 0 0 0 2.903-7.106c.808-2.699 1.406-5.261 1.78-7.687l.024-.133.024-.137q-.317 1.687.445 3.414.73 1.663 2.094 2.54l4.883-7.602-4.04 8.082q-.526-.263-1.85-.625c-.68-.188-1.638-.277-2.864-.277-.883 0-1.63.242-2.23.722q-1.535 1.237-2.512 3.676-1.207 3.029-1.207 6.86 0 2.331.812 3.82-.289-.53-.988-.918a2.4 2.4 0 0 0-.621-.25Zm0 18.07q-4.54.002-8.168-2.024-3.848-2.147-6.062-6.191c-2.02-3.692-3.032-7.86-3.032-12.493q.001-7.312 2.504-13.57 2.737-6.843 7.965-11.05 5.866-4.712 13.555-4.712 4.266 0 7.617.914 3.053.833 5.18 1.899l.437.215.406.265q3.222 2.07 4.68 5.387c.992 2.258 1.254 4.656.777 7.195l-8.882-1.664 8.93 1.395q-.762 4.852-2.333 10.086a57 57 0 0 1-4.258 10.406q-2.957 5.554-7.035 9.156-5.415 4.787-12.28 4.785m0 0" fill="#fff"/><path d="M212.419 84.944q1.313-2.625 3.351-4.43a12.8 12.8 0 0 1 5.461-2.882c3.297-.825 6.48-.528 9.559.894q5.055 2.331 7.035 7.48 2.094 5.443-.883 11.395l-.058.121-.063.117q-5.8 10.794-12.152 15.211-6.902 4.8-14.512 4.801-6.786.001-12.922-3.52c-3.543-2.03-6.742-4.652-9.605-7.855q.485.544 1.37 1.035 2.474 1.367 5.356.766 2.835-.593 4.54-2.766.598-.76.827-1.422l-8.535-2.968 8.664 2.578a51 51 0 0 1-4.843 11.203q-3.481 5.958-8.61 9.66-5.954 4.3-13.383 4.3-6.715 0-12.175-3.64-5.052-3.369-8.774-10.254l-.125-.234-.113-.242q-4.454-9.545-5.012-19.915-.468-8.668-.867-17.868l-.008-.195v-.2c0 .684.196 1.45.594 2.29a7.5 7.5 0 0 0 1.894 2.5 7.8 7.8 0 0 0 3.293 1.723 7.83 7.83 0 0 0 4.008-.036 7.7 7.7 0 0 0 3.07-1.605c.754-.645 1.278-1.305 1.563-1.973l-.105.243-.118.238a445 445 0 0 0-3.57 7.332q-1.861 3.92-4.59 10.156c-1.77 3.98-4.488 6.629-8.156 7.938q-5.334 1.906-10.41-.438c-3.48-1.605-5.863-4.266-7.14-7.976q-1.904-5.515 1.12-11.563c2.77-5.629 5.086-10.496 6.946-14.61q2.924-6.456 3.933-8.472l.098-.195.105-.192c2.47-4.383 5.371-7.453 8.72-9.21q4.622-2.426 8.976-2.426 5.067-.001 9.308 2.921 4.464 3.082 6.332 8.946 1.606 5.174 1.684 13.664.064 6.861.703 15.176l-9.008.692 8.988-.906.598 5.902c.172 1.668.453 3.234.856 4.7q.282 1.035.629 1.456c-.333-.402-.766-.726-1.31-.98q-.788-.37-1.538-.371-.704-.002-1.38.367a2 2 0 0 0-.44.305c-.032.023-.051.047-.067.062l.027-.039c.891-1.184 1.668-2.746 2.333-4.676a71 71 0 0 0 2.12-7.41 465 465 0 0 0 1.43-6.504l.067-.312.086-.309.023.008c-.02.21-.023.36-.012.437l-.054-.375-.024-.375q-.123-2.08-.304-3.968-.242-2.491-.243-4.918.001-2.338.254-4.676.294-2.74 1.219-5.711l.05-.156.055-.156q1.547-4.385 4.805-7.368c2.785-2.558 6.371-3.836 10.746-3.836q4.232.001 7.504 1.79c2.688 1.468 4.63 3.64 5.817 6.507q1.998 4.816 1.507 9.73-.631 5.871-2.03 10.305-.903 2.876-1.067 4c.14-.972 0-1.988-.422-3.039.445 1.11.762 2.336.953 3.668l-8.945 1.278 8.535-2.97q.809 2.324 2.156 4.763.82 1.476 1.914 2.32c.102.078.23.117.395.117a2.4 2.4 0 0 0-1.641.637q.86-.768 1.621-2.016 1.26-2.062 2.016-3.574m16.168 8.082c-.735 1.465-1.657 3.106-2.762 4.914q-2.154 3.527-5.008 6.074-4.43 3.954-10.394 3.953c-4.262 0-8.063-1.285-11.414-3.863-2.715-2.09-4.954-4.719-6.707-7.894a49 49 0 0 1-3.414-7.575l-.286-.824-.125-.867q.023.145.157.488-1.162-2.905-.688-6.226.37-2.588 1.719-6.875.862-2.727 1.285-6.672.042-.395-.215-1.012c.438 1.05 1.172 1.863 2.203 2.426q.532.293 1.028.398.11.025.187.032h-.047q-.15.001-.218.007.091-.011.242-.058.756-.24 1.441-.867a.5.5 0 0 0 .102-.118q-.028.046-.075.18l-8.523-3.008 8.625 2.696q-.394 1.271-.5 2.246a26 26 0 0 0-.148 2.75q.002 1.552.156 3.176.217 2.226.36 4.652l-9.02.531 8.945-1.281q.281 1.976.117 3.754a18 18 0 0 1-.64 3.324l-8.688-2.484 8.84 1.863q-.541 2.584-1.484 6.762a89 89 0 0 1-2.657 9.304q-1.922 5.59-4.965 9.645-2.28 3.039-5.355 4.707-3.359 1.828-7.246 1.828-3.27 0-6.117-1.332-2.865-1.343-4.957-3.867-2.834-3.428-4.145-8.227a47 47 0 0 1-1.398-7.636l-.61-6.008-.008-.11q-.687-8.924-.753-16.394-.059-5.836-.836-8.352c-.04-.117-.07-.21-.102-.277q0 .007.035.055c.16.242.395.468.696.675q.391.27.953.27c.105 0 .203-.004.28-.016l-.007.004q-.323.095-.851.371.141-.075.195-.12-.088.074-.246.25-.604.672-1.313 1.937l-7.875-4.43 8.082 4.039q-.849 1.704-3.633 7.844-2.91 6.433-7.246 15.238-.032.066-.05.113h-.004c.035-.101.066-.234.086-.39q.152-1.026-.235-2.133a4.1 4.1 0 0 0-.824-1.375 4.6 4.6 0 0 0-1.543-1.168q-1.623-.748-3.246-.172a4.65 4.65 0 0 0-1.832 1.172q-.358.375-.488.668 2.842-6.499 4.828-10.672a439 439 0 0 1 3.726-7.656l8.082 4.043-8.304-3.563q1.223-2.86 3.285-4.625a10.1 10.1 0 0 1 4.035-2.136 9.9 9.9 0 0 1 5.031-.036 10 10 0 0 1 4.223 2.207 10.3 10.3 0 0 1 2.558 3.407q1.125 2.395 1.125 5.406h-9.035l9.028-.39q.396 9.106.86 17.679.366 6.872 3.343 13.246l-8.192 3.82 7.95-4.296q1.585 2.935 2.902 3.808.904.604 2.148.606 1.589-.001 2.801-.875 2.036-1.472 3.59-4.133a32.7 32.7 0 0 0 3.121-7.235l.059-.199.066-.195c.508-1.457 1.18-2.719 2.024-3.793q2.368-3.018 5.996-3.774 3.681-.767 7.082 1.114c1.21.672 2.328 1.582 3.36 2.742q2.338 2.62 5.116 4.215c1.305.75 2.614 1.12 3.926 1.12q1.94.001 4.191-1.562 2.802-1.95 6.551-8.93l7.961 4.278-8.082-4.043q-.088.177-.152.664-.16 1.238.332 2.512.65 1.7 2.258 2.437 1.167.541 2.398.23a5 5 0 0 0 2.145-1.124q.575-.512.828-1.012m0 0" fill="#fff"/><path d="M276.354 84.944q1.29-2.578 3.258-4.363a12.7 12.7 0 0 1 5.41-2.93c3.328-.863 6.535-.55 9.625.93 3.16 1.52 5.426 3.898 6.8 7.148q2.256 5.334-.394 11.301-2.442 5.584-7.387 10.945-5.136 5.579-12.425 8.918-7.664 3.522-17.192 3 1.108.076 2.309-.453 1.112-.493 1.808-1.323l-6.941-5.785 7.105 5.581q-4.205 5.351-10.457 8.383-6.246 3.029-14.554 3.027c-6.73 0-12.504-1.746-17.313-5.238q-6.88-4.994-10.379-13.282c-2.156-5.101-3.23-10.695-3.23-16.777q-.002-6.956 2.137-13.777c1.453-4.645 3.566-8.832 6.34-12.57q4.605-6.198 11.167-9.29l.145-.066.144-.063q.149-.062.227-.101a1 1 0 0 0-.152.094l1.39-.93 5.012 7.52-5.2-7.391q5.923-4.166 13.427-4.164 9.322-.002 16.476 5.539 6.387 4.95 10.031 12.504 3.617 7.494 3.618 15.398-.001 3.33-.301 6.653a76 76 0 0 1-.906 6.636q.28-1.405-.211-3.027a6.67 6.67 0 0 0-1.868-3.024q-1.523-1.412-3.503-1.742-.998-.168-1.754-.008l.187-.039.188-.03q2.27-.388 3.406-1.688 2.573-2.935 4.074-5.743l7.965 4.266Zm16.168 8.082-.117.227c-1.653 3.078-3.79 6.117-6.407 9.109q-5.361 6.13-13.968 7.602l-1.52-8.91 1.895 8.835q-2.613.56-5.004.16-3.376-.562-5.824-2.835-2.256-2.098-3.13-4.98a11.04 11.04 0 0 1-.277-5.45q.458-2.521.688-5.035a55 55 0 0 0 .226-5.02q.001-3.773-1.82-7.547c-1.195-2.484-2.805-4.504-4.824-6.07-1.508-1.168-3.313-1.754-5.406-1.754q-1.782.001-3.024.875l-.094.066-1.488.993q-1.29.855-2.976 1.582l-3.563-8.309 3.848 8.18q-2.454 1.154-4.352 3.707-2.339 3.15-3.605 7.2-1.313 4.183-1.313 8.374c0 3.64.606 6.89 1.809 9.746q1.54 3.653 4.347 5.688 2.466 1.793 6.696 1.793 4.16 0 6.668-1.22c1.668-.808 3.047-1.901 4.133-3.288l.082-.102.082-.097q2.02-2.43 4.793-3.649a12.5 12.5 0 0 1 5.957-1.05c3.375.183 6.265-.274 8.671-1.38q3.991-1.828 6.676-4.742 2.884-3.128 4.157-6.035c-.063.145-.11.383-.137.723a4.95 4.95 0 0 0 .402 2.355q.604 1.426 2.024 2.106a3.85 3.85 0 0 0 2.73.27c.84-.216 1.57-.61 2.195-1.173q.541-.493.77-.945m-33.184-2.277q-1.074-.717-2.511-.934a7.04 7.04 0 0 0-4.133.598 6.84 6.84 0 0 0-2.754 2.308q-.784 1.109-1.024 2.317.323-1.729.551-3.625.2-1.648.2-3.488 0-1.83-.868-3.981-.792-1.962-2.023-3.133a1 1 0 0 0-.145-.12c.016.007.035.019.067.03q.134.054.203.055h-.133q2.297.001 4.098-1.012-.035.017-.274.176.529-.344.875-.824l-7.351-5.254 7.515 5.012q-.76 1.141-2.054 2.441l-1.197 1.192c.828-.825 1.352-1.696 1.582-2.606l-.035.145q.04-.25.04-.614c0 .528.312 1.305.94 2.34a29 29 0 0 0 4.106 5.266q2.42 2.472 4.238 3.656Zm-9.933 15.097q-3.491-2.267-7.305-6.164a47.2 47.2 0 0 1-6.64-8.527q-3.565-5.876-3.567-11.723.001-1.775.535-3.914.874-3.492 3.172-5.789l1.195-1.195c.078-.078.13-.133.153-.156a4 4 0 0 0-.352.472l.078-.12.086-.118a14.7 14.7 0 0 1 4.06-3.875c.46-.297.855-.535 1.187-.723q2.325-1.312 4.762-1.312h.133q7.055.002 12.324 5.008 4.073 3.873 6.336 9.468 2.18 5.409 2.18 10.746 0 2.93-.332 5.66-.3 2.484-.77 4.997-.51 2.536-1.922 4.539a10.9 10.9 0 0 1-4.379 3.668 10.6 10.6 0 0 1-6.218.894q-2.537-.381-4.805-1.894Zm-9.52-11.558q0 2.677.95 4.48.973 1.85 2.304 2.782.781.55 1.238.55.312 0 .485-.043l-.004.008q-1.06.576-1.95 1.867c-1.066 1.547-1.492 3.262-1.269 5.14a6.8 6.8 0 0 0 1.344 3.365q.691.908 1.523 1.406l-.183-.109-.18-.121c-3.5-2.328-6.79-5.145-9.875-8.437a56.7 56.7 0 0 1-7.961-10.801l7.86-4.461-7.626 4.851q.539.844 1.622 1.582a7.6 7.6 0 0 0 2.566 1.114 7.9 7.9 0 0 0 3.473.027 7.9 7.9 0 0 0 3.347-1.59 7.6 7.6 0 0 0 1.813-2.094q.58-1.007.699-1.816c-.063.426-.106.824-.137 1.203a16 16 0 0 0-.039 1.098m-18.07 0c0-.848.027-1.676.09-2.48.062-.774.148-1.563.265-2.38q.38-2.665 1.563-4.699a10.3 10.3 0 0 1 2.488-2.914 9.95 9.95 0 0 1 4.195-2q2.203-.469 4.399.04 1.874.432 3.496 1.534 2.011 1.364 3.476 3.672l.125.192.114.199a38.8 38.8 0 0 0 5.433 7.37q3.199 3.417 6.707 5.755l-5.011 7.52 4.648-7.75q2.162 1.294 3.578 3.163 1.854 2.444 2.207 5.454.462 3.943-1.8 7.23-1.556 2.252-4.07 3.625-4.185 2.35-9.34 2.352-6.17.002-11.626-3.829-4.904-3.444-7.91-9.156-3.028-5.754-3.027-12.898m0 0" fill="#fff"/><path d="M285.034 61.964a4.85 4.85 0 0 0-.11 2.21q.154.85.536 1.442-2.544-3.92-3.012-7.379-.28-2.068-.281-3.742 0-3.438 1.207-6.38a14.8 14.8 0 0 1 4-5.593c3.117-2.726 6.648-4.094 10.594-4.094q5.613.001 10.078 3.852 4.917 4.241 5.187 12.039l-9.031.309 8.965-1.121q.067.52.133.789-.305-1.214-.961-2.004l-6.946 5.785 6.653-6.117q2.226 2.42 4.37 3.761a126 126 0 0 1 6.434 4.29c2.946 2.101 5.317 4.75 7.125 7.945q2.895 5.12 2.895 12.672 0 3.73-.434 6.593a146 146 0 0 1-.851 4.97c-.262 1.386-.516 3.237-.754 5.55q-.312 3.533.617 5.66-.187-.43-.855-.848a2.4 2.4 0 0 0-.68-.304l.02-.016q.42-.001 1.171-.734c1.645-1.614 3.227-3.77 4.754-6.477a95 95 0 0 0 4.727-9.574q2.83-6.592 8.601-8.45 2.706-.865 5.422-.609 2.834.275 5.348 1.739 4.709 2.749 6.312 8.27 1.52 5.227-.882 10.632-3.999 8.847-8.313 15.68c-3.262 5.164-6.937 9.25-11.039 12.27q-7.162 5.273-16.363 5.273-9.742 0-16.356-5.442-6.23-5.126-8.68-13.258c-1.433-4.761-1.93-9.878-1.48-15.347q.71-7.687 1.52-11.957.57-3.011.57-4.418c0 .629.14 1.23.422 1.812q.292.61.66.938c-.828-.742-2.793-2.024-5.895-3.836l-.097-.059-.094-.058q.58.357 1.465.562 1.992.456 4.008-.266 2.096-.75 3.379-2.457.605-.81.836-1.566l-.051.172-.059.168q-2.21 6.344-3.898 10.434a264 264 0 0 1-2.82 6.601 154 154 0 0 0-1.95 4.527q-1.047 2.697-2.98 4.72-2.392 2.507-5.68 3.444-5.163 1.477-10.05-.878-4.986-2.398-7.012-7.555-1.229-3.14-.754-6.555.386-2.724 1.863-5.383l7.898 4.387-8.039-4.121a114 114 0 0 0 4.543-10.078q2.064-5.216 4.051-12.668Zm17.418 4.808q-2.255 8.468-4.703 14.656a132 132 0 0 1-5.27 11.68l-.07.133-.074.133q.153-.277.238-.875a5 5 0 0 0-.32-2.575 3.83 3.83 0 0 0-1.973-2.117q-1.306-.632-2.754-.215a5.26 5.26 0 0 0-2.43 1.454q-.538.563-.66.875a190 190 0 0 1 2.164-5.024 240 240 0 0 0 2.618-6.133q1.493-3.608 3.53-9.46l8.536 2.967-8.645-2.633c.461-1.52 1.13-2.859 1.997-4.015q1.975-2.642 5-3.719c1.964-.703 4-.813 6.097-.332 1.363.309 2.703.875 4.02 1.687l-4.754 7.684 4.562-7.797q6.228 3.645 8.828 5.977 2.293 2.05 3.547 4.652a13.7 13.7 0 0 1 1.383 6.055q-.001 3.104-.887 7.785-.65 3.426-1.265 10.062-.393 4.793.773 8.664c.578 1.915 1.532 3.422 2.86 4.512q1.606 1.324 4.87 1.324 3.264.002 5.653-1.753 3.399-2.507 6.469-7.364 3.645-5.77 7.078-13.37-.052.115-.086.425-.064.651.129 1.32.148.508.543 1.051c.379.512.84.93 1.394 1.25q.915.54 2.028.645a4.6 4.6 0 0 0 1.84-.176q1.387-.446 2.254-1.407c.124-.14.222-.269.292-.378l.004-.004q-.029.047-.05.101A113 113 0 0 1 351.6 103.9q-3.549 6.292-7.846 10.505-6.017 5.9-13.82 5.898-5.054.001-8.946-2.441-4.053-2.544-6.098-7.215-2.784-6.363-2.035-14.765.44-4.226.973-7.051.434-2.294.738-4.317c.157-1.011.23-2.308.23-3.886q.001-2.797-.554-3.778a6.5 6.5 0 0 0-1.895-2.133 110 110 0 0 0-5.507-3.671c-2.813-1.758-5.508-4.04-8.094-6.848l-.149-.164-.144-.172q-1.985-2.384-2.688-5.184a26 26 0 0 1-.53-2.93l-.052-.402-.011-.406a4 4 0 0 0-.047-.531l-.008-.035q.013.047.04.117.298.797 1.089 1.476.62.535 1.723.536.48.002.933-.184a1.3 1.3 0 0 0 .375-.195q.54-.475.817-1.149c.097-.238.144-.394.144-.48q0 .45.117 1.3-.075-.551-.187-.804c.086.195.25.476.492.851q1.573 2.45 2.059 5.157a13 13 0 0 1-.305 5.93Zm0 0" fill="#fff"/><path d="M367.338 61.014q-6.195 0-11.41-5.086-5.43-5.29-5.184-13.77l.008-.21.016-.215q.552-7.182 5.253-11.207c2.93-2.512 6.258-3.77 9.993-3.77q5.9.002 10.511 4.012a14.5 14.5 0 0 1 4.016 5.719c.762 1.938 1.14 4.047 1.14 6.336 0 .766-.062 1.523-.19 2.281a4 4 0 0 0 .058-.687h-9.035l9.011-.621q.522 7.536-3.48 12.203c-1.348 1.578-2.914 2.793-4.688 3.652a13.7 13.7 0 0 1-6.02 1.363m0-18.074q-.937 0-1.84.434-.738.358-1.172.863-.646.755-.816 1.48c.02-.07.011-.296-.012-.68l-.023-.312v-.308q-.001-1.15.191-2.282a4 4 0 0 0-.059.688c0-.047 0-.09-.004-.121l.004.012q.029.163.11.375.298.753.937 1.308.492.435 1.36.434 1.083 0 1.77-.586c.456-.395.788-.824.987-1.297.032-.082.055-.137.059-.172a3 3 0 0 0-.043.344l-9.008-.695 9.032.265q-.018.59.046.77a1.24 1.24 0 0 0-.32-.477 4 4 0 0 0 .36.313l-.094-.055q-.616-.3-1.465-.3m24.176 42.223q1.27-2.72 3.367-4.555a12.07 12.07 0 0 1 5.77-2.82q4.733-.91 9.062 1.258 4.358 2.178 6.496 6.625a12.65 12.65 0 0 1 1.246 6q-.092 2.67-1.25 5.312c-2.34 5.469-5.078 10.461-8.21 14.984q-5.182 7.486-12.032 11.969-7.624 4.99-17.086 4.988c-4.219 0-8.078-.82-11.574-2.47q-5.355-2.52-9.2-7.425-6.604-8.432-8.362-23.426a14 14 0 0 0-.117-.87q.03.174.184.589c.21.578.503 1.14.87 1.684q1.659 2.46 4.512 3.41a8.77 8.77 0 0 0 4.676.261 8.8 8.8 0 0 0 3.438-1.55 8.4 8.4 0 0 0 2.332-2.61l-7.848-4.484 8.082 4.043q.158-.31.227-.52a14 14 0 0 1-.754 1.844l-8.082-4.039 8.304 3.559q-1.248 2.911-3.515 4.808-2.67 2.239-6.168 2.66-4.583.552-8.809-1.816c-2.578-1.445-4.566-3.406-5.972-5.895a12.2 12.2 0 0 1-1.614-5.836q-.059-2.895 1.211-5.644 2.027-4.291 2.969-7.285a164 164 0 0 0 1.887-6.414q.917-3.387 2.172-7.301 2.648-7.705 8.214-10.781 3.018-1.666 6.247-1.883 3.463-.233 6.699 1.203 5.876 2.612 8.324 9.238 2.15 5.825.012 13.309l-.086.305-.11.3q-.1.275-.14.871c-.32 5.582-.2 10.739.355 15.48q.716 6.071 2.528 9.25.192.34.343.505l.004.008q-.045-.036-.11-.079-.351-.222-.597-.222.857 0 1.953-.957 2.638-2.303 5.047-6.149a84 84 0 0 0 5.098-9.41Zm16.39 7.62a104 104 0 0 1-6.18 11.411q-3.826 6.106-8.48 10.168c-4.133 3.61-8.746 5.41-13.836 5.41-3.347 0-6.387-.867-9.117-2.61q-3.76-2.395-6.227-6.73-3.625-6.368-4.773-16.082-1.02-8.675-.434-18.875.223-3.118 1.184-5.761l8.492 3.086-8.687-2.481q.344-1.218.367-1.996a1.6 1.6 0 0 0-.008-.258 1 1 0 0 0 .05.176q-.022-.061-.038-.098l.004.008c.047.082.113.176.199.273q.45.53 1.125.829c.57.254 1.187.355 1.86.312q.78-.052 1.273-.328.557-.305.758-.594-.252.36-.504 1.086a147 147 0 0 0-1.938 6.496c-.605 2.239-1.3 4.614-2.09 7.117q-1.312 4.168-3.797 9.43.475-1.03.446-2.297a5.6 5.6 0 0 0-.72-2.687q-.381-.68-.929-.985c-.61-.34-1.332-.46-2.176-.359a6.17 6.17 0 0 0-3.285 1.434c-.691.578-1.191 1.222-1.492 1.925l.106-.246.117-.238a4 4 0 0 0-.223.52c.223-.668.477-1.286.754-1.844l.113-.227.125-.218a9.5 9.5 0 0 1 2.59-2.938 9.1 9.1 0 0 1 3.567-1.61 9 9 0 0 1 4.804.27q2.978.99 4.754 3.63.674.993 1.106 2.175c.406 1.098.714 2.57.93 4.43q1.16 9.943 4.636 14.375 1.196 1.53 2.672 2.226 1.588.745 3.875.746 4.073 0 7.191-2.039 3.897-2.55 7.067-7.133 3.662-5.29 6.515-11.941-.228.517-.257 1.297a5.2 5.2 0 0 0 .52 2.453q.545 1.132 1.718 1.719a3.73 3.73 0 0 0 2.433.328 5.7 5.7 0 0 0 2.72-1.328q.767-.674 1.109-1.407Zm0 0" fill="#fff"/><path d="M445.585 84.467q2.902-5.446 8.406-6.93c3.414-.917 6.715-.55 9.903 1.11q4.751 2.468 6.625 7.531 1.981 5.343-.696 11.032-3.848 7.986-7.984 14.472-4.698 7.377-10.539 11.86-7.01 5.384-16.047 5.383-8.046 0-15.215-4.243-7.431-4.399-11.925-13.937-4.093-8.67-4.704-22.422l9.028-.398-9.008.69v-.007q.057.34.191.754.36 1.118 1.094 2.145 1.739 2.42 4.645 3.246 3.325.952 6.382-.625a8 8 0 0 0 2.47-1.946q.537-.628.73-1.05l-8.227-3.739 8.34 3.473a49 49 0 0 1-1.79 3.824 50 50 0 0 0-1.241 2.543c-.903 1.899-1.989 3.477-3.27 4.727q-2.513 2.46-5.816 3.285-5.338 1.335-10.125-1.348c-3.172-1.773-5.317-4.41-6.442-7.902q-1.793-5.588 1.434-11.399l7.898 4.387-8.007-4.187 5.308-10.145a233 233 0 0 0 4.84-9.883 4.5 4.5 0 0 0-.328 1.219q-.224 1.599.355 3.223.962 2.683 3.512 4.14 2.27 1.298 4.727.989l-.559.07h-1.82q.867 0 1.863-.332l-.871.293-.91.11c-.54.062-.93.136-1.18.214q.323-.103.852-.512-1.2.925-2.22 1.84c-2.304 2.059-5.316 3.278-9.038 3.649l-.899-8.993 1.192 8.957q-3.306.44-6.242-.707-3.223-1.261-5.309-4.129-2.227-3.058-2.879-6.328l-.094-.453-.043-.46a14.34 14.34 0 0 1 1.067-7.016q1.27-3.017 3.847-5.453 3.61-3.404 8.875-5.57 4.846-1.992 9.387-2.536a67 67 0 0 1 7.707-.46h.473l.472.046a5.6 5.6 0 0 0-1.87.14 6.8 6.8 0 0 0-2.81 1.391 6.7 6.7 0 0 0-1.816 2.285 5.1 5.1 0 0 0-.468 1.446c.68-4.262 1.5-8.18 2.468-11.762q1.713-6.334 4.52-10.547 2.043-3.064 4.789-4.828 3.392-2.18 7.375-2.18 4.085-.001 7.332 1.88 3.574 2.073 5.406 5.929 2.133 4.495 2.133 9.98-.001 4.84-1.543 9.743a269 269 0 0 1-2.402 7.273l-.07.203-.079.2q.33-.826.36-1.864a6.8 6.8 0 0 0-.735-3.281 7.3 7.3 0 0 0-3.242-3.285q-1.51-.781-3.05-.782h1.394q-.166.001-.379.043l.344-.07.351-.039q.43-.053.614-.129a1.1 1.1 0 0 0-.278.195 47 47 0 0 0 3.063-3.003c2.578-2.786 5.61-4.41 9.086-4.875q3.007-.356 5.609.355a12.8 12.8 0 0 1 5.293 2.895q3.85 3.485 4.555 8.757.765 6.136-3.66 11.352-2.742 3.228-6.813 5.824-3.57 2.268-7.133 3.762c-2.613 1.094-4.918 1.781-6.922 2.07q-2.489.354-5.125.356-2.309-.002-4.488-.157l-.352-.027-.347-.05a5.2 5.2 0 0 0 1.574-.028 6.75 6.75 0 0 0 2.84-1.16 6.9 6.9 0 0 0 2.18-2.43q.481-.901.625-1.785l-8.926-1.41 8.96 1.156q-.503 3.902-.82 7.738-.3 3.678-.3 7.153.002 6.045 1.047 10.785c.523 2.355 1.253 4.09 2.199 5.21a1 1 0 0 0 .136.141c-.003-.004-.015-.007-.027-.015q.101.047.477.047.075 0 .343-.211 1.62-1.26 3.149-3.493a62 62 0 0 0 3.703-6.132q1.874-3.563 3.426-6.657l.05-.105Zm15.945 8.504-7.972-4.254 8.082 4.043a364 364 0 0 1-3.606 7.004 79 79 0 0 1-4.785 7.93q-3.112 4.531-6.933 7.516c-3.446 2.687-7.266 4.035-11.461 4.035q-4.265-.001-7.915-1.649-3.74-1.687-6.489-4.945-4.288-5.084-6.027-12.965-1.474-6.662-1.472-14.683 0-4.215.36-8.63.35-4.254.906-8.574l.016-.128.023-.125c.531-3.38 2.11-5.977 4.727-7.801q3.709-2.58 8.59-1.848l-1.34 8.934.64-9.012q1.538.11 3.203.11 1.35-.001 2.57-.176.716-.1 2.497-.848c1.43-.598 2.898-1.375 4.41-2.34q1.763-1.121 2.734-2.266-.105.123-.258.543-.368.99-.214 2.184c.113.863.527 1.617 1.234 2.258a5.06 5.06 0 0 0 2.078 1.14q.78.21 1.531.122.733-.099 1.336-.438.321-.182.453-.324a66 66 0 0 1-4.234 4.16q-4.114 3.704-10.273 4.441l-1.078-8.972 1.773 8.863a16.3 16.3 0 0 1-3.164.309h-1.395q-2.866-.002-5.27-1.246-3.056-1.588-4.6-4.68a11 11 0 0 1-1.169-5.332q.065-2.166.926-4.32l8.39 3.355-8.538-2.953q1.15-3.327 2.242-6.79.708-2.253.707-4.316.002-1.412-.383-2.222.573 1.206 1.855 1.949.956.556 1.731.555 1.326 0 2.398-.688a2.7 2.7 0 0 0 .543-.445l-.066.094q-1.17 1.757-2.113 5.238-1.2 4.44-2.04 9.726c-.476 3.184-1.859 5.707-4.144 7.579q-3.645 2.983-8.656 2.457l.945-8.989v9.035q-2.666.001-5.555.336-2.097.253-4.675 1.309-2.163.891-3.328 1.992.187-.179.398-.676a3.5 3.5 0 0 0 .27-1.71l-8.997.855 8.864-1.77a3.4 3.4 0 0 0-.239-.754l.012-.003q-1.024-1.407-2.722-2.075-1.413-.55-2.731-.375l.148-.02.145-.015q.188-.016.293-.039a1 1 0 0 0-.117.04q-.697.245-1.387.866 1.5-1.348 3.219-2.671c2.289-1.77 5.363-2.883 9.222-3.348l1.079 8.973-2.86-8.575q1.793-.595 3.856-.593h1.258v9.035l-1.122-8.969q3.52-.44 6.485 1.254 3.251 1.857 4.539 5.473c1.043 2.914.832 5.988-.637 9.21a252 252 0 0 1-5.234 10.68l-5.36 10.25-.058.102c.058-.102.11-.301.164-.606.129-.75.066-1.515-.188-2.304q-.492-1.53-1.933-2.332-1.471-.828-3.09-.418c-.969.238-1.777.683-2.438 1.328q-.393.382-.546.71a69 69 0 0 1 1.671-3.421c.41-.79.79-1.594 1.13-2.414l.054-.133.063-.133c.57-1.25 1.218-2.309 1.953-3.172a9.9 9.9 0 0 1 3.011-2.41q3.31-1.71 6.871-.691 6.51 1.858 7.125 9.851l.008.145.008.148q.45 10.126 2.992 15.512 2.134 4.522 4.79 6.098 2.908 1.722 6.007 1.722c1.93 0 3.613-.55 5.04-1.644q3.314-2.55 6.308-7.243c2.37-3.722 4.664-7.875 6.87-12.453q-.133.283-.187.825-.104 1.058.29 2.117.545 1.477 1.98 2.222 1.465.763 3.137.313a5.1 5.1 0 0 0 2.066-1.102q.533-.467.773-.918m0 0" fill="#fff"/><path d="M509.143 84.944q1.29-2.578 3.258-4.363a12.7 12.7 0 0 1 5.41-2.93c3.328-.863 6.535-.55 9.625.93 3.16 1.52 5.426 3.898 6.8 7.148q2.256 5.334-.394 11.301-2.442 5.584-7.387 10.945-5.136 5.579-12.425 8.918-7.664 3.522-17.192 3 1.108.076 2.309-.453 1.112-.493 1.808-1.323l-6.941-5.785 7.105 5.581q-4.205 5.351-10.457 8.383-6.246 3.029-14.554 3.027c-6.73 0-12.504-1.746-17.313-5.238q-6.88-4.994-10.379-13.282-3.232-7.653-3.23-16.777-.002-6.956 2.137-13.777c1.453-4.645 3.566-8.832 6.34-12.57q4.605-6.198 11.167-9.29l.145-.066.144-.063q.149-.062.227-.101a1 1 0 0 0-.152.094l1.39-.93 5.012 7.52-5.2-7.391q5.923-4.166 13.427-4.164 9.322-.002 16.476 5.539 6.387 4.95 10.031 12.504 3.617 7.494 3.618 15.398-.001 3.33-.301 6.653a76 76 0 0 1-.906 6.636q.28-1.405-.211-3.027a6.67 6.67 0 0 0-1.868-3.024q-1.523-1.412-3.503-1.742-.998-.168-1.754-.008l.187-.039.188-.03q2.27-.388 3.406-1.688 2.573-2.935 4.074-5.743l7.965 4.266Zm16.168 8.082-.117.227c-1.653 3.078-3.79 6.117-6.407 9.109q-5.361 6.13-13.968 7.602l-1.52-8.91 1.895 8.835q-2.613.56-5.004.16-3.376-.562-5.824-2.835-2.256-2.098-3.13-4.98a11.04 11.04 0 0 1-.277-5.45q.458-2.521.688-5.035a55 55 0 0 0 .226-5.02q.001-3.773-1.82-7.547c-1.195-2.484-2.805-4.504-4.824-6.07-1.508-1.168-3.313-1.754-5.406-1.754q-1.782.001-3.024.875l-.094.066-1.488.993q-1.29.855-2.976 1.582l-3.563-8.309 3.848 8.18q-2.454 1.154-4.352 3.707-2.339 3.15-3.605 7.2-1.313 4.183-1.313 8.374c0 3.64.606 6.89 1.809 9.746q1.54 3.653 4.347 5.688 2.466 1.793 6.696 1.793 4.16 0 6.668-1.22c1.668-.808 3.047-1.901 4.133-3.288l.082-.102.082-.097q2.02-2.43 4.793-3.649a12.5 12.5 0 0 1 5.957-1.05c3.375.183 6.265-.274 8.671-1.38q3.991-1.828 6.676-4.742 2.884-3.128 4.157-6.035c-.063.145-.11.383-.137.723a4.95 4.95 0 0 0 .402 2.355q.604 1.426 2.024 2.106a3.85 3.85 0 0 0 2.73.27c.84-.216 1.57-.61 2.195-1.173q.541-.493.77-.945m-33.184-2.277q-1.074-.717-2.511-.934a7.04 7.04 0 0 0-4.133.598 6.84 6.84 0 0 0-2.754 2.308q-.784 1.109-1.024 2.317.323-1.729.551-3.625.2-1.648.2-3.488 0-1.83-.868-3.981-.792-1.962-2.023-3.133a1 1 0 0 0-.145-.12c.016.007.035.019.067.03q.134.054.203.055h-.133q2.297.001 4.098-1.012-.035.017-.274.176.529-.344.875-.824l-7.351-5.254 7.515 5.012q-.76 1.141-2.054 2.441l-1.197 1.192c.828-.825 1.352-1.696 1.582-2.606l-.035.145q.04-.25.04-.614c0 .528.312 1.305.94 2.34a29 29 0 0 0 4.106 5.266q2.42 2.472 4.238 3.656Zm-9.933 15.097q-3.491-2.267-7.305-6.164a47.2 47.2 0 0 1-6.64-8.527q-3.565-5.876-3.567-11.723.001-1.775.535-3.914.874-3.492 3.172-5.789l1.195-1.195c.078-.078.13-.133.153-.156a4 4 0 0 0-.352.472l.078-.12.086-.118a14.7 14.7 0 0 1 4.06-3.875c.46-.297.855-.535 1.187-.723q2.325-1.312 4.762-1.312h.133q7.055.002 12.324 5.008 4.073 3.873 6.336 9.468 2.18 5.409 2.18 10.746 0 2.93-.332 5.66-.3 2.484-.77 4.997-.51 2.536-1.922 4.539a10.9 10.9 0 0 1-4.379 3.668 10.6 10.6 0 0 1-6.218.894q-2.537-.381-4.805-1.894Zm-9.52-11.558q0 2.677.95 4.48.973 1.85 2.304 2.782.781.55 1.238.55.312 0 .485-.043l-.004.008q-1.06.576-1.95 1.867c-1.066 1.547-1.492 3.262-1.269 5.14a6.8 6.8 0 0 0 1.344 3.365q.691.908 1.523 1.406l-.183-.109-.18-.121c-3.5-2.328-6.79-5.145-9.875-8.437a56.7 56.7 0 0 1-7.961-10.801l7.86-4.461-7.626 4.851q.539.844 1.622 1.582a7.6 7.6 0 0 0 2.566 1.114 7.9 7.9 0 0 0 3.473.027 7.9 7.9 0 0 0 3.347-1.59 7.6 7.6 0 0 0 1.813-2.094q.58-1.007.699-1.816c-.063.426-.106.824-.137 1.203a16 16 0 0 0-.039 1.098m-18.07 0c0-.848.027-1.676.09-2.48.062-.774.148-1.563.265-2.38q.38-2.665 1.563-4.699a10.3 10.3 0 0 1 2.488-2.914 9.95 9.95 0 0 1 4.195-2q2.203-.469 4.399.04 1.874.432 3.496 1.534 2.011 1.364 3.476 3.672l.125.192.114.199a38.8 38.8 0 0 0 5.433 7.37q3.199 3.417 6.707 5.755l-5.011 7.52 4.648-7.75q2.162 1.294 3.578 3.163 1.854 2.444 2.207 5.454.462 3.943-1.8 7.23-1.556 2.252-4.07 3.625-4.185 2.35-9.34 2.352-6.17.002-11.626-3.829-4.904-3.444-7.91-9.156-3.028-5.754-3.027-12.898m0 0" fill="#fff"/><g clip-path="url(#3821032a43)"><path d="M576.698 85.135c.852-1.804 1.938-3.324 3.254-4.546q2.595-2.41 6-3.067c3.312-.637 6.48-.105 9.508 1.586q4.213 2.366 6.242 6.754a12.5 12.5 0 0 1 1.14 6.219c-.136 1.894-.683 3.742-1.636 5.531q-6.873 12.784-14.977 17.77-8.213 5.055-16.61 5.054a29 29 0 0 1-2.472-.097 39 39 0 0 1-2.254-.258l1.278-8.946-.5 9.024q1.575.087 3.129-.844c1.093-.656 1.875-1.515 2.336-2.566l-8.283-3.625 8.42 3.293q-3.58 9.15-11.755 13.644-7.341 4.039-16.558 4.04-7.101-.001-13.293-3.196-6.361-3.277-10.184-9.113-3.996-6.103-3.996-13.707 0-4.958 1.797-9.188 1.85-4.36 5.477-7.652c4.592-4.172 10.312-6.258 17.148-6.258q5.05.001 11.992 2.54l-3.105 8.487 2.656-8.636c-.516-.16-1.133-.211-1.84-.157q-2.268.171-4.066 1.696a7.76 7.76 0 0 0-2.07 2.75 7.8 7.8 0 0 0-.712 3.511q.06 1.935.926 3.301-1.379-2.232-4.387-5.637-3.427-3.878-9.304-10.148l6.594-6.18-6.391 6.391q.41.406 1.172.789 2.132 1.066 4.617.621 2.682-.474 4.39-2.45.688-.786.958-1.515l-.078.211-.09.203a273 273 0 0 1-4.11 9.11 759 759 0 0 0-3.406 7.273l-.059.13-.062.124q-2.894 5.79-8.371 7.547-5.12 1.649-9.918-.465a12.9 12.9 0 0 1-4.57-3.348c-1.165-1.328-2.047-2.875-2.653-4.628q-1.903-5.515 1.121-11.563 3.129-6.257 4.864-9.988a517 517 0 0 0 2.937-6.395 48 48 0 0 0 1.79-4.586l8.573 2.856-8.636-2.657a1 1 0 0 0 .03-.109 1 1 0 0 0 0 .203l9.005-.754-8.863 1.774a16 16 0 0 1-.305-3.098v-1.195q0-8.543 5.156-13.406c3.29-3.098 7.012-4.649 11.176-4.649q5.7 0 10.129 3.953 4.874 4.355 4.874 11.715 0 1.572-.223 3.137a18.7 18.7 0 0 1-1.015 3.883l-8.461-3.172 8.765 2.191q.165-.655.047-1.48a4.8 4.8 0 0 0-.766-2.012l-7.515 5.016 7.375-5.22q3.468 4.904 6.867 8.477a733 733 0 0 1 7.18 7.653q3.89 4.207 6.633 8.8c2.09 3.508 3.496 7.465 4.207 11.872-.196-1.121-.708-2.114-1.54-2.989-.921-.968-1.984-1.57-3.19-1.797l-1.669 8.883 1.277-8.945q.614.088 1.223.133.61.042 1.215.043.865-.001 1.824-.922c1.582-1.527 3.11-3.86 4.582-7.008Zm16.36 7.68q-3.628 7.753-8.415 12.36-6.206 5.976-14.36 5.976a36 36 0 0 1-4.992-.355l-.195-.028-.191-.035q-3.936-.74-6.578-3.52-2.503-2.637-3.195-6.57-.522-3.205-1.895-5.504-1.77-2.97-4.379-5.793a739 739 0 0 0-7.008-7.464c-2.867-3.016-5.707-6.512-8.523-10.497l-.14-.203a13 13 0 0 1-2.09-5.46q-.386-2.68.312-5.458l.121-.5.184-.48q.04-.118.058-.184a4 4 0 0 0 .027-.492q0-.076-.003-.129l.004.004q.022.165.109.383.317.85 1.05 1.508.716.639 1.91.64a2.6 2.6 0 0 0 1.067-.218q.147-.066.235-.125c-.008.007-.036.027-.078.07.316-.3.52-.586.617-.867q-.101.294-.102 1.12v1.196q.002-.234-.043-.445l.102.508.043.511q.28 3.334-.766 6.727l-.031.098-.031.101a68 68 0 0 1-2.457 6.29 587 587 0 0 1-3.032 6.605q-1.845 3.96-5.086 10.441-.032.066-.05.113h-.004c.035-.101.066-.234.086-.39q.152-1.026-.235-2.133-.24-.715-.828-1.383a5 5 0 0 0-1.754-1.293q-1.478-.65-2.887-.2a4.7 4.7 0 0 0-1.862 1.103q-.323.315-.406.477l8.086 4.043-8.207-3.79a750 750 0 0 1 3.492-7.448 276 276 0 0 0 3.848-8.532l8.293 3.586-8.461-3.171q.868-2.32 2.316-3.989 2.473-2.847 6.082-3.492c2.278-.406 4.488-.074 6.64 1.004q1.86.927 3.528 2.594l.203.21q6.06 6.465 9.664 10.544c2.68 3.039 4.711 5.668 6.09 7.898q1.799 2.823 1.89 5.852a10.04 10.04 0 0 1-.902 4.515 10.1 10.1 0 0 1-2.71 3.57q-2.662 2.251-6.22 2.528-2.358.18-4.859-.59l-.226-.07-.223-.082c-2.62-.957-4.55-1.438-5.781-1.438q-3.276.001-5.004 1.567-.685.627-.988 1.336-.36.844-.36 2.12c0 1.473.348 2.743 1.043 3.801.813 1.239 1.926 2.227 3.348 2.957q2.294 1.184 5.011 1.184 4.577.002 7.847-1.8 2.438-1.336 3.633-4.395l.067-.164.07-.164q1.623-3.704 4.922-5.684 3.21-1.926 7.176-1.707l.386.023.387.055q.667.095 1.2.14.42.036.972.036 3.28-.001 7.137-2.375 3.962-2.439 8.5-10.883-.37.697-.442 1.688a5.3 5.3 0 0 0 .477 2.636q.433.944 1.336 1.446 1.219.687 2.738.394 1.681-.322 2.883-1.441c.39-.364.66-.696.8-1Zm-50.099 13.793q.195.002.32-.02l-.016.008a1.6 1.6 0 0 0-.515.301 6.3 6.3 0 0 0 1.465-1.742l7.898 4.39-8.422-3.277a5.7 5.7 0 0 0-.363 1.875 6.95 6.95 0 0 0 .644 3.133 6.7 6.7 0 0 0 1.782 2.352c.422.355.84.617 1.261.797l3.504-8.329-3.215 8.442a86 86 0 0 0-5.027-1.735q-1.477-.457-2.633-.457-.192 0-.273.012.124-.017.336-.086 1.159-.376 2.113-1.426 1.025-1.125 1.024-2.894 0 .167.007.203a2 2 0 0 0-.156-.453 3.3 3.3 0 0 0-1.2-1.395q.459.3 1.466.301m0 18.074q-6.422 0-11.403-3.28a14.44 14.44 0 0 1-5.277-6.138c-1.008-2.183-1.508-4.62-1.508-7.312q-.002-5.22 3.676-9.262 4.013-4.418 11.195-4.418 3.886 0 7.977 1.266 3.065.948 6.117 2.113l.145.055.144.062c2.992 1.258 5.113 3.239 6.356 5.934q2.01 4.347.152 9.117l-.223.574-.3.54q-2.127 3.825-5.567 6.744-4.717 4.003-11.484 4.004m0 0" fill="#fff"/></g><path d="M25.785 152.518h-.67q-.393-.001-.656-.125-2.52-.534-3.657-2.328-1.126-1.8-1.531-4.25a67 67 0 0 0-.922-4.703 21 21 0 0 1-.531-3.187q-.268-3.44-.406-7.032a199 199 0 0 1-.127-7.156c0-4.773.11-9.54.329-14.312q.34-7.172.469-14.204-.127-.936-.594-1.328-.47-.405-1.125-.922c-1.946-1.507-3.336-2.906-4.172-4.187q-1.266-1.92-1.266-3.64c0-1.239.446-2.255 1.328-3.048q1.33-1.201 2.922-1.203 2.109 0 3.438 1.594a1172 1172 0 0 1 3.515-17.562 84 84 0 0 1 5.172-16.329q3.387-7.763 9.89-14.39 5.028-4.249 9.938-4.25 5.046 0 8.625 3.594 3.574 3.578 3.985 8.218.265.926.265 1.922v2.047q-.001 9.69-4.25 18.453-4.237 8.752-11.468 15.781a75.3 75.3 0 0 1-16.11 11.938 95 95 0 0 0 6.89 6.234q3.717 3.049 7.563 5.047 3.842 1.986 7.157 1.985 4.78.002 7.562-4.579 2.78-4.577 5.969-11.609c.707-1.5 1.656-2.445 2.844-2.844q1.793-.607 3.453.25 1.652.862 2.39 2.657.734 1.798-.328 4.312a73 73 0 0 1-4.906 10.016q-2.782 4.704-6.906 7.687-4.111 2.986-10.344 2.984-7.158 0-13-3.515-5.829-3.516-9.016-7.219a248 248 0 0 0-.656 8.422 146 146 0 0 0-.265 9.078q-.002 2.918.124 5.766.139 2.86.407 5.906 3.702.936 4.094 3.313.405 2.388.406 5.046 0 1.06.062 2.125.077 1.06.078 2.125 0 1.186-.14 2.313c-.086.75-.352 1.523-.797 2.328q-.392 1.453-1.922 2.11a7.65 7.65 0 0 1-3.11.671m2.922-70.968q5.297-3.31 10.407-8.876a54.3 54.3 0 0 0 8.484-12.265q3.389-6.703 3.39-13.078-.001-1.858-.343-3.516a13 13 0 0 0-1.125-3.25q-.926-1.326-2.39-1.328c-1.15 0-2.36.602-3.641 1.797q-1.925 1.8-3.578 4.25a53 53 0 0 0-2.86 4.703q-1.19 2.25-1.593 3.313c-1.938 4.687-3.399 9.289-4.375 13.796q-1.455 6.767-2.376 14.453m0 0" fill="#562230"/><path d="M135.48 88.987q1.183-2.512 3.046-3.11 1.859-.608 3.454.266 1.593.86 2.25 2.782.668 1.922-.391 4.437-3.065 7.158-7.172 13.203-4.113 6.036-9.094 9.75c-3.312 2.469-6.914 3.703-10.797 3.703q-5.971-.001-10.015-3.64-4.049-3.658-6.297-9.094-1.066-3.17-2.922-.266-3.984 6.112-8.297 8.625-4.3 2.515-8.547 2.516-4.909.002-9.156-2.984c-2.836-1.989-5.04-4.442-6.625-7.36q-.668-1.324-1.062-3.047a29.4 29.4 0 0 1-.735-4.172 44 44 0 0 1-.203-4.187c0-5.3 1.133-10.188 3.39-14.656q3.375-6.704 9.282-10.735c3.937-2.695 8.379-4.047 13.328-4.047q4.512 0 9.688 1.86c1.5.617 2.648.125 3.453-1.469q1.185-2.249 2.515-3.11 1.325-.873 2.516-.874 1.326.002 2.312.672a4.4 4.4 0 0 1 1.532 1.718q.405.8.328 1.469-.065.657-.188 1.594c-.531 3.18-1.11 6.87-1.734 11.078a86 86 0 0 0-.922 12.531c0 2.824.195 5.61.594 8.36.394 2.742 1.254 5.015 2.578 6.828q1.999 2.718 5.844 2.718 3.325.001 6.5-3.25 3.186-3.248 6.172-8.218a130 130 0 0 0 5.374-9.891m-54.656 19.36q3.45.001 6.297-2.516 2.857-2.514 5.047-6.625a48.5 48.5 0 0 0 3.578-8.766q1.406-4.64 2.063-8.89c.257-1.407-.227-2.508-1.453-3.313q-1.331-.654-3.516-1.25-2.191-.61-5.25-.61c-3 0-5.633.907-7.89 2.72-2.25 1.812-3.997 4.273-5.235 7.374q-1.862 4.642-1.86 10.203 0 4.641 1.922 8.157t6.297 3.515m0 0" fill="#562230"/><path d="M220.497 88.987q1.06-2.12 2.922-2.578a5.23 5.23 0 0 1 3.578.328q1.734.783 2.39 2.516c.438 1.148.258 2.515-.53 4.109-3.188 5.93-6.31 9.953-9.36 12.078q-4.563 3.174-9.344 3.172-4.377 0-8.422-2.312-4.048-2.327-7.36-6.047-2.126-2.374-3.187.672a41.3 41.3 0 0 1-3.984 9.218q-2.519 4.315-6.094 6.907-3.58 2.578-8.093 2.578-3.972-.002-7.157-2.125-3.188-2.121-5.843-7.032-3.704-7.951-4.172-16.578-.471-8.624-.86-17.781 0-1.98-1.062-2.25c-.711-.176-1.328.355-1.86 1.594a518 518 0 0 0-3.656 7.5q-1.923 4.049-4.703 10.406-1.065 2.393-2.922 3.063c-1.23.437-2.414.39-3.562-.141q-1.735-.797-2.391-2.719-.668-1.92.656-4.578c2.824-5.75 5.18-10.723 7.078-14.922q2.86-6.293 3.797-8.156 2.39-4.247 5.032-5.64 2.654-1.39 4.78-1.391 2.25.002 4.173 1.328 1.934 1.329 2.859 4.234 1.185 3.861 1.25 11.016.077 7.158.734 15.781.265 2.66.594 5.906a39 39 0 0 0 1.14 6.172c.532 1.938 1.321 3.555 2.376 4.844q1.593 1.922 4.125 1.922 3.168 0 5.36-2.922 2.203-2.919 3.655-7.156a80 80 0 0 0 2.375-8.36 474 474 0 0 0 1.47-6.64 9 9 0 0 0 .327-1.657q.078-.731-.062-1.656a111 111 0 0 0-.328-4.312 41 41 0 0 1-.203-4.047q-.001-1.858.203-3.703c.132-1.239.422-2.567.859-3.985q.797-2.264 2.39-3.718 1.595-1.454 4.641-1.454 3.844 0 4.969 2.72 1.124 2.72.86 5.374c-.344 3.274-.9 6.102-1.657 8.484q-1.126 3.58-1.39 5.438-.13.925.14 1.594.263.656.39 1.593 1.061 3.049 2.782 6.172 1.734 3.112 4.313 5.11 2.59 1.985 5.906 1.984 2.513.002 4.375-1.656 1.858-1.669 3.311-4.047 1.466-2.389 2.39-4.25m0 0" fill="#562230"/><path d="M284.444 88.987q1.043-2.12 2.843-2.578a4.9 4.9 0 0 1 3.454.328q1.653.783 2.375 2.516c.488 1.148.379 2.515-.329 4.109q-1.863 4.253-5.765 8.5-3.91 4.238-9.547 6.828-5.643 2.58-12.937 2.188-1.988-.141-3.313 1.453-2.925 3.72-7.297 5.828-4.376 2.123-10.61 2.125-7.16 0-12-3.516-4.844-3.514-7.358-9.484-2.53-5.967-2.53-13.267 0-5.56 1.733-11.062c1.149-3.676 2.801-6.973 4.97-9.89q3.246-4.373 7.765-6.5a9.5 9.5 0 0 0 1.515-.782q.594-.404 1.391-.938 3.593-2.514 8.235-2.515 6.233.001 10.937 3.64c3.133 2.43 5.61 5.524 7.422 9.282q2.718 5.642 2.719 11.484-.001 2.909-.266 5.828a68 68 0 0 1-.797 5.844q-.269 1.313.656 2.187.936.863 2.797.453 5.437-.92 8.688-4.625 3.246-3.716 5.25-7.437m-30.11 9.281q1.187.8 2.172.344.996-.467 1.266-1.797.404-2.12.672-4.312a38 38 0 0 0 .265-4.578q0-3.574-1.53-7.36-1.535-3.779-4.188-6.297-2.643-2.53-6.094-2.531h-.125q-.14 0-1.078.61a5.8 5.8 0 0 0-1.578 1.515q-.27.408-.938 1.063l-1.187 1.187q-.534.533-.797 1.594c-.18.71-.266 1.289-.266 1.734q0 3.317 2.25 7.031a38.8 38.8 0 0 0 5.375 6.891q3.122 3.189 5.781 4.906m-23.485-3.983q-.001 4.909 1.984 8.687c1.332 2.524 3.036 4.516 5.11 5.985q3.122 2.188 6.437 2.187c1.852 0 3.489-.398 4.907-1.203q1.452-.797 1.312-1.922-.129-1.125-1.453-1.922-4.377-2.92-8.297-7.093a47.7 47.7 0 0 1-6.687-9.094c-.618-.969-1.235-1.383-1.86-1.25q-.925.188-1.187 2.047a23 23 0 0 0-.203 1.797 24 24 0 0 0-.063 1.78m0 0" fill="#562230"/><path d="M293.722 64.44q.527-1.839-.657-3.703-1.471-2.264-1.672-3.719a20 20 0 0 1-.187-2.515q0-3.329 2.11-5.172c1.413-1.239 2.968-1.86 4.656-1.86q2.25.002 4.171 1.657 1.923 1.656 2.063 5.5.123 1.064.328 1.859.201.797.86 1.594 3.046 3.314 6.234 5.312a117 117 0 0 1 5.968 3.969q2.778 1.987 4.5 5.047 1.735 3.048 1.735 8.219 0 3.047-.328 5.234a121 121 0 0 1-.797 4.656q-.471 2.455-.86 6.297-.532 5.97 1.313 10.219 1.858 4.235 6.781 4.234c2.739 0 5.235-1.101 7.485-3.312 2.257-2.207 4.359-5.035 6.297-8.485a106 106 0 0 0 5.171-10.484q1.2-2.778 3.063-3.375 1.856-.61 3.437.328 1.593.924 2.188 2.985c.406 1.367.254 2.843-.453 4.437q-3.72 8.22-7.703 14.531-3.972 6.299-8.751 9.814-4.768 3.516-11 3.515-6.502-.001-10.625-3.39-4.113-3.375-5.765-8.876-1.657-5.513-1.125-12.016c.438-4.77.898-8.437 1.39-11 .489-2.57.735-4.61.735-6.11q0-2.248-1.922-3.968-1.921-1.734-7.36-4.922-2.798-1.717-3.718 1.328-2.126 6.11-3.719 9.953a284 284 0 0 1-2.719 6.375q-1.126 2.518-2.046 4.766-.939 2.393-2.797 2.922-1.844.533-3.64-.328-1.795-.873-2.516-2.719-.732-1.858.593-4.25a120 120 0 0 0 4.906-10.875q2.25-5.702 4.376-13.672m0 0" fill="#562230"/><path d="M367.342 51.971c-1.688 0-3.399-.836-5.125-2.515q-2.579-2.514-2.439-7.031.263-3.45 2.125-5.032 1.86-1.593 4.11-1.594c1.675 0 3.195.602 4.562 1.797q2.063 1.783 2.063 5.235c0 .261-.024.527-.063.797a5 5 0 0 0-.062.796q.264 3.845-1.328 5.704-1.594 1.844-3.844 1.843m32.36 37.016c.624-1.32 1.507-2.094 2.655-2.312a5.03 5.03 0 0 1 3.313.453c1.062.53 1.86 1.351 2.39 2.453q.798 1.659-.14 3.781-3.175 7.424-7.36 13.469-4.171 6.033-9.544 9.546-5.379 3.515-12.141 3.515-8.612-.002-13.656-6.437c-3.367-4.29-5.531-10.594-6.5-18.906q-.394-3.436-.922-2.516-.141.268-.281.672a6 6 0 0 1-.25.656q-.798 1.863-2.47 2.063c-1.105.125-2.206-.118-3.312-.735q-1.654-.935-2.515-2.452c-.57-1.02-.594-2.102-.063-3.25q2.25-4.78 3.375-8.36c.75-2.382 1.41-4.64 1.985-6.765q.874-3.188 2.062-6.89 1.465-4.249 3.985-5.641 2.514-1.389 4.906-.328 2.39 1.064 3.515 4.109 1.123 3.047-.203 7.688-.533 1.47-.656 3.312-.534 9.3.39 17.188.938 7.891 3.657 12.671 2.717 4.768 7.484 4.766 4.247.002 7.89-3.172 3.656-3.188 6.767-8.156a94 94 0 0 0 5.64-10.422m0 0" fill="#562230"/><path d="M453.55 88.721q1.06-1.982 2.781-2.453 1.734-.466 3.39.39c1.102.575 1.876 1.462 2.313 2.657q.67 1.799-.39 4.047-3.58 7.424-7.422 13.469-3.845 6.033-8.422 9.546-4.582 3.515-10.547 3.515-5.58-.001-10.625-2.984-5.033-2.983-8.344-10.016-3.316-7.03-3.843-18.968-.14-1.716-.61-1.844-.457-.141-1.125 1.312a38 38 0 0 1-1.453 3.125q-.797 1.517-1.453 2.969-1.206 2.532-3.062 3-1.842.457-3.5-.469-1.67-.936-2.266-2.781-.591-1.858.734-4.25 2.661-5.044 5.297-10.14a247 247 0 0 0 5.047-10.282q.657-1.464.328-2.39-.328-.937-1.39-.797h-1.266q-.598.001-.984.125c-2.211.273-3.797.78-4.766 1.53q-1.467 1.125-2.734 2.25-1.265 1.127-3.907 1.392c-1.332.18-2.347-.22-3.047-1.188q-1.06-1.453-1.328-2.781-.265-2.796 2.125-5.047 2.379-2.249 6.094-3.766c2.48-1.02 4.82-1.664 7.031-1.937q3.436-.389 6.625-.39 2.53.269 2.922-2.392.92-5.84 2.25-10.75 1.325-4.903 3.313-7.89 1.997-2.983 4.656-2.984 3.31 0 4.562 2.656 1.266 2.66 1.266 6.094 0 3.456-1.125 7.046a231 231 0 0 1-2.328 7.016q-.533 1.329-.063 2.266.468.924 1.797.922h1.39q.735 0 1.392-.141 3.31-.389 5.296-2.172a57 57 0 0 0 3.657-3.578q1.652-1.793 3.656-2.063c1.5-.175 2.71.157 3.64 1q1.388 1.254 1.657 3.235.264 2.127-1.594 4.312-1.863 2.19-4.781 4.047-2.907 1.862-5.766 3.063-2.847 1.19-4.703 1.453a27 27 0 0 1-3.86.265q-1.986 0-3.828-.14-2.658-.388-3.062 2.125a171 171 0 0 0-.86 8.156 98 98 0 0 0-.328 7.89q-.001 7.033 1.25 12.735c.844 3.805 2.211 6.836 4.11 9.094q2.859 3.375 7.5 3.375 3.188.001 5.906-2.125 2.718-2.123 5.031-5.5a71 71 0 0 0 4.25-7.031 346 346 0 0 0 3.516-6.828m0 0" fill="#562230"/><path d="M517.233 88.987q1.043-2.12 2.843-2.578a4.9 4.9 0 0 1 3.454.328q1.653.783 2.375 2.516c.488 1.148.379 2.515-.329 4.109q-1.863 4.253-5.765 8.5-3.91 4.238-9.547 6.828-5.643 2.58-12.937 2.188-1.988-.141-3.313 1.453-2.925 3.72-7.297 5.828-4.376 2.123-10.61 2.125-7.16 0-12-3.516-4.844-3.514-7.358-9.484-2.53-5.967-2.53-13.267 0-5.56 1.733-11.062c1.149-3.676 2.801-6.973 4.97-9.89q3.246-4.373 7.765-6.5a9.5 9.5 0 0 0 1.515-.782q.594-.404 1.391-.938 3.593-2.514 8.235-2.515 6.233.001 10.937 3.64c3.133 2.43 5.61 5.524 7.422 9.282q2.718 5.642 2.719 11.484-.001 2.909-.266 5.828a68 68 0 0 1-.797 5.844q-.269 1.313.656 2.187.936.863 2.797.453 5.437-.92 8.688-4.625 3.246-3.716 5.25-7.437m-30.11 9.281q1.187.8 2.172.344.996-.467 1.266-1.797.404-2.12.672-4.312a38 38 0 0 0 .265-4.578q0-3.574-1.53-7.36-1.535-3.779-4.188-6.297-2.643-2.53-6.094-2.531h-.125q-.14 0-1.078.61a5.8 5.8 0 0 0-1.578 1.515q-.27.408-.938 1.063l-1.187 1.187q-.534.533-.797 1.594-.268 1.066-.266 1.734 0 3.317 2.25 7.031a38.8 38.8 0 0 0 5.375 6.891q3.122 3.189 5.781 4.906m-23.485-3.983q-.001 4.909 1.984 8.687c1.332 2.524 3.036 4.516 5.11 5.985q3.122 2.188 6.437 2.187c1.852 0 3.489-.398 4.907-1.203q1.452-.797 1.312-1.922-.129-1.125-1.453-1.922-4.377-2.92-8.297-7.093a47.7 47.7 0 0 1-6.687-9.094c-.618-.969-1.235-1.383-1.86-1.25q-.925.188-1.187 2.047a23 23 0 0 0-.203 1.797 24 24 0 0 0-.063 1.78m0 0" fill="#562230"/><g clip-path="url(#045b787f6e)"><path d="M584.87 88.987q1.06-2.25 2.781-2.578 1.733-.342 3.39.594a5.7 5.7 0 0 1 2.454 2.656q.796 1.723-.266 3.703-5.705 10.612-11.75 14.328-6.034 3.703-11.86 3.703-.923 0-1.718-.062-.797-.06-1.734-.188-2.392-.138-3.313 1.985c-1.593 4.062-4.164 7.066-7.703 9.015q-5.297 2.92-12.187 2.922-4.91 0-9.157-2.187-4.253-2.191-6.764-6.032-2.52-3.855-2.517-8.765-.002-6.233 4.297-10.14 4.311-3.922 11.078-3.923 3.452.001 8.89 2 1.734.535 2.595-.203.857-.734-.079-2.187c-1.148-1.852-2.89-4.11-5.234-6.766q-3.518-3.983-9.484-10.344-2.52-2.514-3.703.657a289 289 0 0 1-3.985 8.828 662 662 0 0 0-3.453 7.359q-1.19 2.392-3.047 2.984c-1.242.399-2.41.356-3.516-.125q-1.653-.733-2.312-2.656-.668-1.92.656-4.578 3.188-6.375 4.969-10.219a464 464 0 0 0 2.984-6.5 56 56 0 0 0 2.125-5.437c.352-1.145.485-2.25.391-3.313a7 7 0 0 1-.125-1.311v-1.203q0-4.64 2.313-6.828 2.324-2.204 4.984-2.204c1.5 0 2.867.559 4.11 1.672q1.858 1.659 1.859 4.969c0 .617-.047 1.234-.141 1.86a9 9 0 0 1-.531 1.984q-.535 2.126.531 3.718 3.857 5.44 7.703 9.485 3.843 4.049 7.094 7.562 3.248 3.517 5.5 7.297 2.262 3.768 3.047 8.672.404 2.27 2.531 2.656.919.142 1.844.204c.625.042 1.242.062 1.86.062q4.511 0 8.093-3.437 3.575-3.453 6.5-9.688m-41.907 26.655c2.289 0 4.164-.617 5.625-1.86q2.202-1.855 3.515-4.233.937-2.39-1.578-3.454a96 96 0 0 0-5.578-1.921c-1.855-.57-3.625-.86-5.312-.86q-3.177 0-4.5 1.453-1.33 1.453-1.329 3.188 0 4.113 2.72 5.906 2.717 1.781 6.437 1.781m0 0" fill="#562230"/></g></g></g></svg>