<svg xmlns="http://www.w3.org/2000/svg" viewBox="0 0 638.25 236.25" version="1.0"><defs><clipPath id="cc94340d3f"><path d="M0 0h406v152H0z"/></clipPath><clipPath id="39e03e5e43"><path d="M0 0h225v46H0z"/></clipPath><clipPath id="bad88dbc75"><path d="M.637 87h636.23v147H.637Zm0 0"/></clipPath><clipPath id="a9edee35ed"><path d="M.637 9H91v107H.637Zm0 0"/></clipPath><clipPath id="980f4b87b9"><path d="M576 25h60.867v89H576Zm0 0"/></clipPath><clipPath id="27453ec7c6"><path d="M.637 16H83v92H.637Zm0 0"/></clipPath><clipPath id="a927a34ee3"><path d="M584 33h52.867v73H584Zm0 0"/></clipPath><clipPath id="41adc2c5c3"><path d="M0 0h637v147H0z"/></clipPath><clipPath id="120191bd2a"><path d="M310 45h25v23h-25Zm0 0"/></clipPath><clipPath id="b08a0a21d5"><path d="m310.57 52.445 18.063-7.183 6.078 15.281-18.063 7.184Zm0 0"/></clipPath><clipPath id="64409acb12"><path d="m271.305 39.586 84.754-33.707 15.746 39.601-84.754 33.704Zm0 0"/></clipPath></defs><g clip-path="url(#cc94340d3f)" fill="#562230" transform="translate(169 20)"><path d="M43.918 51.026q-2.455 0-5.515 3.609-3.063 3.595-5.36 9.031a39.2 39.2 0 0 0-2.906 11.25q-.61 5.813 1.531 10.484 2.138 4.677 8.125 6.516 2.748.767 6.422.39 3.67-.387 7.422-2.077 3.764-1.686 6.203-4.438 1.39-1.53 2.61-.234 1.216 1.3.312 2.531Q58.01 94.825 50.2 99.119q-7.817 4.283-16.688 4.282-8.425.002-14.86-3.829-6.421-3.825-9.64-10.265-3.221-6.435-2.14-14.235 1.06-7.812 6.109-14.234 5.062-6.433 12.562-10.266 7.498-3.826 15.922-3.828 8.731 0 15.078 3.516 6.357 3.517 9.578 11.328 1.372 3.221-.234 6.063-1.593 2.828-4.734 4.89-3.141 2.064-6.516 2.828-3.362.767-5.734-.218-2.378-1-2.219-4.376c.195-3.769.422-7.132.672-10.093q.388-4.453-.219-7.047-.61-2.608-3.219-2.61m82.077 49.157q1.077.924.609 2.078-.457 1.142-1.688 1.14h-15.609q-4.144.001-6.36-1.843-2.22-1.842-3.14-3.672-.924-1.842-.922-1.844-2.907 3.376-7.203 5.375-4.282 1.986-8.875 1.985-5.051 0-8.953-2.454c-2.606-1.632-4.547-3.828-5.828-6.578-1.274-2.758-1.703-5.773-1.297-9.047a19.8 19.8 0 0 1 3.828-9.109q3.062-4.062 7.656-6.5 4.595-2.451 9.657-2.453 4.593.001 8.343 2 3.749 1.986 5.735 5.344l.625-4.594q.61-4.436.14-8.797c-.304-2.914-.992-5.344-2.062-7.281q-1.611-2.907-4.36-2.906-1.69 0-2.078 2.296-.377 2.299.547 5.36c.406 1.531-.031 2.836-1.312 3.906q-1.91 1.61-5.125 2.453a21.2 21.2 0 0 1-6.438.688q-3.204-.153-5.36-1.453-2.142-1.312-1.671-3.907.762-4.906 6.89-9.265 6.124-4.36 16.688-4.36 8.263 0 14.234 3.516 5.982 3.516 8.97 9.797c1.987 4.187 2.57 9.039 1.75 14.547l-1.829 12.562q-.61 4.283.156 7.125c.508 1.887 1.938 3.852 4.282 5.89m-35.22-5.063q3.218 0 5.813-2.906 2.61-2.906 3.219-6.89.607-3.986-1.234-6.891-1.83-2.907-5.047-2.907-3.065 0-5.672 2.907-2.594 2.906-3.203 6.89-.61 3.985 1.218 6.891 1.842 2.906 4.907 2.906m85.282-48.374q8.42.001 14.859 3.828 6.435 3.833 9.64 10.266 3.218 6.422 2.157 14.234-1.079 7.8-6.14 14.235-5.05 6.44-12.548 10.265c-5 2.555-10.308 3.828-15.922 3.828h-36.75q-1.079.002-1.234-1.14-.14-1.154 1.078-2.078 4.434-3.06 5.969-5.89 1.53-2.842 2.14-7.126l4.907-34.453q.607-4.296-.157-7.203-.766-2.907-4.28-5.813-1.081-.918-.626-1.984.469-1.078 1.547-1.078 7.342.001 12.703-2.594 5.356-2.606 9.266-5.36c2.601-1.843 4.875-2.921 6.812-3.234q2.45-.61 1.907.844a49 49 0 0 0-.985 2.984 150.5 150.5 0 0 0-4.906 19.141c3.57-1.113 7.094-1.672 10.563-1.672m-7.344 52.36q2.451 0 4.89-3.282 2.45-3.294 4.438-8.734 1.997-5.437 2.922-12.016c.613-4.5.765-8.554.453-12.172q-.456-5.434-1.984-8.656-1.536-3.218-3.985-3.219-2.456.001-4.906 3.22c-1.625 2.148-3.106 5.03-4.438 8.656-1.324 3.617-2.293 7.671-2.906 12.171q-.925 6.58-.469 12.016c.313 3.625.977 6.54 2 8.734q1.53 3.282 3.985 3.282m90.794-13.313q1.39-1.53 2.61-.234 1.216 1.3.312 2.531-4.752 6.737-12.562 11.031-7.817 4.283-16.688 4.282-8.425.002-14.86-3.829-6.421-3.825-9.64-10.265-3.221-6.435-2.14-14.235 1.06-7.812 6.109-14.234 5.062-6.433 12.797-10.266 7.734-3.826 16.922-3.828 5.965.002 11.328 2.453 5.357 2.439 8.5 6.579 3.138 4.125 2.375 9.187c-.406 3.262-1.79 6.273-4.14 9.031q-3.518 4.144-8.798 6.594-5.284 2.438-11.265 2.438-2.908 0-5.516-.61a25 25 0 0 1-4.89-1.687q.608 3.83 2.828 6.812c1.476 1.992 3.703 3.45 6.671 4.375q2.748.767 6.422.39 3.67-.387 7.422-2.077 3.764-1.686 6.203-4.438m-18.515-34.765q-1.847 0-5.141 3.609-3.28 3.596-4.36 10.937-.925 6.129.985 9.657 1.922 3.515 4.688 3.515c2.039 0 3.898-1.351 5.578-4.062q2.53-4.06 3.297-9.719.76-5.826-.61-9.875-1.378-4.061-4.437-4.062m56.798 48.547q.92.909.61 2.374-.3 1.454-2.907 1.453h-30.313q-1.079.002-1.234-1.14-.14-1.154 1.078-2.078 4.434-3.06 5.969-5.89 1.53-2.842 2.14-7.126l4.907-34.453q.607-4.296-.157-7.203-.766-2.907-4.28-5.813-1.081-.918-.626-1.984.469-1.078 1.547-1.078 7.342.001 12.703-2.594 5.356-2.606 9.266-5.36c2.601-1.843 4.875-2.921 6.812-3.234q2.45-.61 1.907.844a49 49 0 0 0-.985 2.984 182 182 0 0 0-5.672 22.672q-2.143 11.642-2.984 21.907-.843 10.252-.234 17.14.623 6.89 2.453 8.578m37.208.001q.92.909.61 2.374-.3 1.454-2.907 1.453h-30.313q-1.079.002-1.234-1.14-.14-1.154 1.078-2.078 4.434-3.06 5.969-5.89 1.53-2.842 2.14-7.126l4.907-34.453q.607-4.296-.157-7.203-.766-2.907-4.28-5.813-1.081-.918-.626-1.984.469-1.078 1.547-1.078 7.342.001 12.703-2.594 5.356-2.606 9.266-5.36c2.601-1.843 4.875-2.921 6.812-3.234q2.45-.61 1.907.844a49 49 0 0 0-.985 2.984 182 182 0 0 0-5.672 22.672q-2.143 11.642-2.984 21.907-.843 10.252-.234 17.14.623 6.89 2.453 8.578m41.645-52.828q8.42.001 14.782 3.828 6.357 3.833 9.562 10.266 3.217 6.422 2.156 14.234-1.08 7.8-6.062 14.235-4.97 6.44-12.469 10.265c-5 2.555-10.309 3.828-15.922 3.828-5.617 0-10.57-1.273-14.86-3.828q-6.421-3.825-9.64-10.265-3.221-6.435-2.14-14.235 1.06-7.812 6.109-14.234 5.062-6.433 12.562-10.266 7.498-3.826 15.922-3.828m-7.343 52.36q2.448 0 4.828-3.282 2.373-3.294 4.359-8.734 1.981-5.437 2.906-12.016c.614-4.5.766-8.554.453-12.172q-.454-5.434-1.906-8.656-1.455-3.218-3.906-3.219-2.457.001-4.906 3.22c-1.625 2.148-3.106 5.03-4.438 8.656-1.324 3.617-2.293 7.671-2.906 12.171q-.926 6.58-.469 12.016c.313 3.625.977 6.54 2 8.734q1.53 3.282 3.985 3.282m0 0"/></g><g clip-path="url(#39e03e5e43)" transform="translate(206 12)"><path d="M2.534 35.006 7.253 8.158h9.273q3.91 0 7.047 1.914a13.4 13.4 0 0 1 4.836 5.055 13.74 13.74 0 0 1 1.715 6.703q0 4.052-2.133 7.754a16.9 16.9 0 0 1-5.7 5.934q-3.679 2.325-8.073 2.324H2.038Zm4.766.836-2.383-.418v-2.418h9.3q2.994 0 5.489-1.578A12.14 12.14 0 0 0 23.8 27.17q1.488-2.58 1.488-5.34a9 9 0 0 0-1.121-4.379 8.64 8.64 0 0 0-3.117-3.25q-1.975-1.206-4.524-1.207H9.284v-2.418l2.383.418Zm7.343-7.734a4.87 4.87 0 0 0 2.621-.766 6.3 6.3 0 0 0 2.102-2.2 5.67 5.67 0 0 0 .773-2.886c0-.832-.175-1.586-.535-2.262a3.93 3.93 0 0 0-1.449-1.535q-.926-.567-2.234-.566h-2.414v-2.418l2.382.422-2.664 15.05-2.379-.421v-2.418Zm0 4.836H7.96l3.52-19.887h4.44q2.673 0 4.758 1.277a8.67 8.67 0 0 1 3.204 3.399q1.096 2.073 1.097 4.523 0 2.846-1.426 5.313a11.1 11.1 0 0 1-3.718 3.87q-2.402 1.506-5.192 1.505m0 0" fill="#fff"/><path d="M53.016 25.201q0 1.7-.563 3.594l-.511 1.734H37.075v-2.418l2.375-.44q.14.742.601 1.175c.234.219.566.324.996.324q.515.001.942-.203a3.4 3.4 0 0 0 .464-.262c.036-.02.059-.039.079-.054q-.008.004-.028.027l.723-.856h10.23l-1.807 3.524q-.84 1.634-2.352 3.191c-1.035 1.063-2.27 1.95-3.707 2.649q-2.281 1.118-4.899 1.117-2.978 0-5.469-1.5c-1.645-.989-2.941-2.332-3.898-4.027q-1.425-2.538-1.426-5.552c0-2.13.55-4.172 1.66-6.14a13.4 13.4 0 0 1 4.488-4.75 11.7 11.7 0 0 1 6.457-1.895q2.912-.001 5.336 1.468a10.64 10.64 0 0 1 3.778 3.887q1.396 2.457 1.398 5.406m-4.836 0c0-1.113-.258-2.113-.766-3.007a5.9 5.9 0 0 0-2.082-2.149c-.843-.512-1.789-.77-2.828-.77a6.95 6.95 0 0 0-3.84 1.126 8.6 8.6 0 0 0-2.89 3.058q-1.039 1.845-1.04 3.766 0 1.744.81 3.18a6 6 0 0 0 2.171 2.253q1.342.81 2.977.809 1.499 0 2.77-.621 1.4-.687 2.366-1.684 1.007-1.03 1.516-2.027l2.152 1.105v2.418h-5.148v-2.418l1.848 1.563c-.48.57-1.188 1.078-2.114 1.523a6.9 6.9 0 0 1-3.035.684q-2.547 0-4.293-1.625-1.63-1.524-2.058-3.832l-.532-2.86h15.973v2.419l-2.32-.684q.363-1.229.363-2.226m-6.102-1.629q-.701 0-1.304.47-.733.561-1.09 1.5l-2.258-.872v-2.422h8.594v2.422l-2.387.395c-.082-.493-.277-.891-.582-1.203q-.287-.289-.973-.29m0-4.835q2.719 0 4.422 1.734 1.529 1.558 1.903 3.8l.468 2.817H33.9l1.273-3.293q.845-2.187 2.637-3.578 1.915-1.481 4.27-1.48m0 0" fill="#fff"/><path d="M53.396 44.408q-2.197.001-4.066-.859l-1.688-.781 1.672-9.63 3.035 1.856q.06.035.301.035.083 0 .102-.007a.15.15 0 0 0-.059.035q-.018.016-.031.031l.02-.031q.065-.135.109-.387l3.433-19.77h9.739L62.24 36.334q-.639 3.65-3 5.824-2.45 2.25-5.844 2.25m0-4.836q1.508.001 2.57-.976 1.153-1.062 1.508-3.09l3.23-18.598 2.384.41v2.422h-4.83v-2.421l2.383.414-3.089 17.804q-.363 1.992-1.64 3.13-1.348 1.198-3.262 1.197-1.6.002-2.82-.746l1.258-2.062 2.382.414-.742 4.293-2.383-.41 1.012-2.2q.902.418 2.04.418m7.918-22.14q-2.07 0-3.488-1.418c-.945-.945-1.418-2.11-1.418-3.485q.002-2.239 1.633-3.804c1.058-1.016 2.304-1.528 3.734-1.528 1.375 0 2.54.473 3.484 1.418q1.418 1.42 1.418 3.489 0 2.238-1.632 3.8-1.587 1.529-3.73 1.528m0-4.836c.129 0 .258-.063.383-.18a.43.43 0 0 0 .144-.312.4.4 0 0 0-.007-.078h.004a.03.03 0 0 0 .007.02q.002-.002-.007-.009l-.008-.008.023.012q-.03-.005-.078-.004-.2 0-.387.176a.44.44 0 0 0-.14.316c0 .032 0 .055.004.079l-.012-.024.008.008q.007.01.008.008-.007-.006-.02-.012a.4.4 0 0 0 .078.008m15.505 1.845q4.138 0 6.746 2.394 2.701 2.475 2.703 6.59c0 .734-.058 1.438-.18 2.121l-2.16 12.297h-7.472l-.965-3.344 2.324-.672v2.418h-.18v-2.418l1.801 1.614a8.24 8.24 0 0 1-3.039 2.164q-1.686.7-3.73.699-3.381-.002-5.703-2.094a7.2 7.2 0 0 1-1.829-2.55q-.602-1.418-.601-3.098 0-2.765 1.535-4.797a8.84 8.84 0 0 1 3.719-2.852 11.6 11.6 0 0 1 4.476-.875h4.723v2.418l-2.348-.586.035-.144 2.348.59-2.394-.344c.02-.137.03-.246.043-.328l.003-.004a.7.7 0 0 0-.015-.176.2.2 0 0 0 .047.074.25.25 0 0 0 .093.067 1 1 0 0 0-.296-.032 1.3 1.3 0 0 0-.348.043q.001.001.008-.004l.015-.011-.004.004a1 1 0 0 0-.085.187l-.563 1.63h-9.484l.558-2.884q.705-3.598 3.5-5.855 2.78-2.243 6.719-2.242m0 4.836q-2.232 0-3.68 1.168c-.949.77-1.547 1.773-1.789 3.02l-2.375-.466V20.58h4.828v2.418l-2.285-.789q.58-1.675 1.914-2.59 1.29-.884 3.07-.883 2.244 0 3.626 1.383 1.382 1.382 1.382 3.52 0 .35-.093 1.015l-.02.125-.523 2.094h-6.61q-1.4-.001-2.62.508a4 4 0 0 0-1.716 1.3q-.557.738-.558 1.88 0 .697.219 1.207c.132.312.335.597.617.847q.944.851 2.46.852 1.083 0 1.88-.332a3.5 3.5 0 0 0 1.289-.922l.722-.805h3.074l.97 3.344-2.325.672v-2.418h3.621v2.418l-2.383-.418 1.809-10.289q.105-.614.105-1.293.001-1.986-1.129-3.023-1.224-1.125-3.48-1.125m1.562 10.828h-3.655a1.5 1.5 0 0 0-.754.23.5.5 0 0 0 .168-.195.7.7 0 0 0 .055-.14l.004-.005a.5.5 0 0 0-.047-.172.64.64 0 0 0-.305-.332q.124.036.383.036c.406 0 .754-.118 1.035-.356q.445-.375.532-.809l.21-1.12 2.375.445Zm2.915-4.836-.754 4.015q-.41 2.12-2.168 3.594-1.774 1.488-4.145 1.488-2.102-.002-3.402-1.117a4.1 4.1 0 0 1-1.11-1.488 4.35 4.35 0 0 1-.355-1.766q0-1.21.539-2.187a4.26 4.26 0 0 1 1.605-1.633c1.02-.605 2.09-.906 3.22-.906Zm0 0" fill="#fff"/><g transform="translate(88.32 35.424)" fill="#fff"/><path d="m109.506 41.401 1.313-7.594 2.382.41v2.418h-.175v-2.418l1.796 1.617q-1.024 1.138-2.78 1.824a9.1 9.1 0 0 1-3.348.645q-2.941 0-5.239-1.547-2.231-1.505-3.437-4.012-1.16-2.415-1.16-5.199 0-3.387 1.523-6.375 1.541-3.019 4.219-4.836 2.782-1.893 6.117-1.894a9.4 9.4 0 0 1 3.934.875 8.1 8.1 0 0 1 3.289 2.695l-1.97 1.406v-2.422h.177v2.422l-2.078-1.234 1.945-3.281h7.875l-5.14 29.332h-9.735Zm4.766.824-2.383-.41v-2.418h4.828v2.417l-2.383-.418 4.293-24.493 2.383.415v2.421h-3.621v-2.421l2.082 1.234-1.945 3.281h-2.802l-.723-1.015a3.33 3.33 0 0 0-1.363-1.102 4.6 4.6 0 0 0-1.922-.441q-1.846 0-3.395 1.054-1.656 1.126-2.632 3.043a9 9 0 0 0-.996 4.172q-.001 1.682.683 3.102c.426.886 1.02 1.582 1.781 2.097q1.072.721 2.536.723.784 0 1.585-.313.693-.272.946-.554l.722-.801h4.125Zm-4.442-13.231q.44 0 .946-.34c.418-.278.765-.676 1.05-1.192q.41-.751.41-1.73.002-1.009-.488-1.594a1 1 0 0 0-.36-.297 1.1 1.1 0 0 0-.495-.094q-.438 0-.946.34c-.418.277-.765.676-1.05 1.191q-.41.755-.41 1.73-.002 1.008.488 1.599c.117.14.234.238.36.296q.191.09.495.09m0 4.835q-1.371 0-2.531-.539a5.9 5.9 0 0 1-2.047-1.594c-1.07-1.289-1.605-2.847-1.605-4.687q0-2.215 1.007-4.055.998-1.817 2.61-2.89 1.727-1.154 3.629-1.153 1.371 0 2.531.54a5.8 5.8 0 0 1 2.047 1.593q1.605 1.935 1.605 4.688 0 2.214-1.007 4.054-.998 1.818-2.61 2.89-1.724 1.154-3.629 1.153m22.714 4.475q-4.142 0-6.578-2.613-2.372-2.546-2.371-6.477 0-.982.21-2.246l2.13-12.066h9.734l-2.235 12.777-2.382-.418 2.394.34a4 4 0 0 0-.047.406q.002.497.274.8c.109.126.328.188.644.188.313 0 .594-.12.852-.36q.486-.451.597-1.132l2.157-12.601h9.746l-4.004 22.941h-7.473l-.969-3.344 2.325-.672v2.418h-.176v-2.418l1.777 1.638q-1.136 1.237-2.804 2.023-1.734.819-3.801.817m0-4.836q.983.001 1.738-.355.813-.382 1.309-.922l.718-.782h3.059l.965 3.344-2.324.671v-2.418h3.62v2.418l-2.382-.414 3.16-18.106 2.383.415v2.421h-4.828v-2.421l2.383.41-1.81 10.566c-.253 1.535-.94 2.824-2.062 3.875q-1.782 1.66-4.156 1.66-1.253.002-2.3-.426a5.2 5.2 0 0 1-1.954-1.375q-1.5-1.68-1.5-4.023 0-.421.094-1.09l.008-.035 1.745-9.977 2.383.415v2.421h-4.827v-2.421l2.379.421-1.77 10.024a9 9 0 0 0-.145 1.45q0 2.026 1.07 3.175c.673.719 1.684 1.078 3.044 1.078m37.52-8.266q0 1.7-.563 3.594l-.511 1.734h-14.867v-2.418l2.375-.44q.14.742.601 1.175c.234.219.566.324.996.324q.515.001.942-.203a3.4 3.4 0 0 0 .464-.262c.036-.02.059-.039.079-.054q-.008.004-.028.027l.723-.856h10.23l-1.807 3.524q-.84 1.634-2.352 3.191c-1.035 1.063-2.27 1.95-3.707 2.649q-2.281 1.118-4.899 1.117-2.978 0-5.469-1.5c-1.645-.989-2.941-2.332-3.898-4.027q-1.425-2.538-1.426-5.552c0-2.13.55-4.172 1.66-6.14a13.4 13.4 0 0 1 4.488-4.75 11.7 11.7 0 0 1 6.457-1.895q2.912-.001 5.336 1.468a10.64 10.64 0 0 1 3.778 3.887q1.396 2.457 1.398 5.406m-4.836 0c0-1.113-.258-2.113-.766-3.007a5.9 5.9 0 0 0-2.082-2.149c-.843-.512-1.789-.77-2.828-.77a6.95 6.95 0 0 0-3.84 1.126 8.6 8.6 0 0 0-2.89 3.058q-1.039 1.845-1.04 3.766 0 1.744.81 3.18a6 6 0 0 0 2.171 2.253q1.342.81 2.977.809 1.499 0 2.77-.621 1.4-.687 2.366-1.684 1.007-1.03 1.516-2.027l2.152 1.105v2.418h-5.148v-2.418l1.848 1.563c-.48.57-1.188 1.078-2.114 1.523a6.9 6.9 0 0 1-3.035.684q-2.547 0-4.293-1.625-1.63-1.524-2.058-3.832l-.532-2.86h15.973v2.419l-2.32-.684q.363-1.229.363-2.226m-6.102-1.629q-.701 0-1.304.47-.733.561-1.09 1.5l-2.258-.872v-2.422h8.594v2.422l-2.387.395c-.082-.493-.277-.891-.582-1.203q-.287-.289-.973-.29m0-4.835q2.719 0 4.422 1.734 1.529 1.558 1.903 3.8l.468 2.817h-14.971l1.273-3.293q.845-2.187 2.637-3.578 1.915-1.481 4.27-1.48m0 0" fill="#fff"/><g transform="translate(171.617 35.424)" fill="#fff"/><path d="M191.92 38.303q-3.737.001-5.924-2.293-2.138-2.243-2.139-5.77 0-1.077.183-2.05l1.24-6.996 2.379.421v2.418h-5.696l1.582-8.777h3.547q.063.001.11-.004h-.004a.7.7 0 0 0-.196.117.5.5 0 0 0-.113.137.7.7 0 0 0 .05-.203l.845-4.945h9.156l-1.328 7.39-2.38-.43v-2.417h6.602l-1.586 9.132h-5.762v-2.418l2.382.426-1.242 6.957-2.383-.426 2.395.344q-.03.205-.043.328l-.004.004q-.001.04.004.063-.004-.023-.02-.063a.7.7 0 0 0-.168-.242.6.6 0 0 0-.171-.117q.105.035.351.035.104 0 .168-.012h.008q-.018.005-.043.016l3.926-1.43-1.762 10.102-1.484.406q-1.091.299-2.48.297m0-4.836q.737 0 1.206-.129l.637 2.336-2.383-.418.781-4.473 2.383.418.828 2.27q-.789.29-1.785.289-2.146-.001-3.441-1.18a4.2 4.2 0 0 1-1.074-1.57 4.8 4.8 0 0 1-.317-1.762q0-.352.094-1.015l.008-.043 1.605-8.993h5.75v2.418l-2.383-.414.746-4.293 2.383.41v2.422h-6.617l1.328-7.39 2.38.426v2.418h-4.225v-2.418l2.383.406-.492 2.89q-.3 1.844-1.5 2.915-1.249 1.106-3.125 1.105h-1.526v-2.418l2.379.43-.707 3.941-2.383-.43v-2.418h5.691l-1.754 9.899q-.095.523-.097 1.144c0 1.059.27 1.872.804 2.43q.757.797 2.422.797m15.723 4.836q-4.142 0-6.578-2.613-2.372-2.546-2.371-6.477 0-.982.21-2.246l2.13-12.066h9.734l-2.235 12.777-2.382-.418 2.394.34a4 4 0 0 0-.047.406q.002.497.274.8c.109.126.328.188.644.188.313 0 .594-.12.852-.36q.486-.451.597-1.132l2.157-12.601h9.746l-4.004 22.941h-7.473l-.969-3.344 2.325-.672v2.418h-.176v-2.418l1.777 1.638q-1.136 1.237-2.804 2.023-1.734.819-3.801.817m0-4.836q.983.001 1.738-.355.813-.382 1.309-.922l.718-.782h3.059l.965 3.344-2.324.671v-2.418h3.62v2.418l-2.382-.414 3.16-18.106 2.383.415v2.421h-4.828v-2.421l2.383.41-1.81 10.566c-.253 1.535-.94 2.824-2.062 3.875q-1.782 1.66-4.156 1.66-1.253.002-2.3-.426a5.2 5.2 0 0 1-1.954-1.375q-1.5-1.68-1.5-4.023 0-.421.094-1.09l.008-.035 1.745-9.977 2.383.415v2.421h-4.827v-2.421l2.379.421-1.77 10.024a9 9 0 0 0-.145 1.45q0 2.026 1.07 3.175c.673.719 1.684 1.078 3.044 1.078m0 0" fill="#fff"/><path d="M4.92 35.424 9.28 10.58h7.25c2.145 0 4.07.524 5.781 1.563q2.562 1.566 3.969 4.156a11.3 11.3 0 0 1 1.422 5.531c0 2.274-.606 4.453-1.813 6.547a14.4 14.4 0 0 1-4.89 5.094c-2.063 1.305-4.324 1.953-6.782 1.953Zm9.72-4.906a7.3 7.3 0 0 0 3.906-1.125 8.6 8.6 0 0 0 2.906-3.032 8.04 8.04 0 0 0 1.11-4.109c0-1.226-.278-2.36-.829-3.39a6.3 6.3 0 0 0-2.328-2.47q-1.502-.92-3.484-.921h-2.407l-2.671 15.047Zm35.962-5.313q0 1.348-.469 2.906H37.071q.28 1.534 1.328 2.516c.695.649 1.582.969 2.656.969q1.06 0 1.984-.438.92-.451 1.313-.921h5.14q-.672 1.314-1.937 2.609-1.252 1.3-3.031 2.172a8.5 8.5 0 0 1-3.828.875q-2.313-.001-4.236-1.156a8.5 8.5 0 0 1-3.03-3.141q-1.111-1.998-1.11-4.375c0-1.695.446-3.344 1.344-4.938a10.9 10.9 0 0 1 3.688-3.906 9.3 9.3 0 0 1 5.156-1.515q2.232 0 4.078 1.125a8.17 8.17 0 0 1 2.922 3.015q1.092 1.894 1.094 4.203m-8.516-4.047q-1.533 0-2.797.985-1.266.972-1.859 2.531h8.594q-.253-1.499-1.25-2.5c-.656-.676-1.555-1.016-2.688-1.016m11.31 20.829q-1.67-.001-3.047-.641l.735-4.281c.43.257.949.39 1.562.39q1.001 0 1.656-.594c.438-.386.727-.967.876-1.749l3.079-17.796h4.828l-3.221 18.608q-.502 2.842-2.265 4.453c-1.168 1.07-2.57 1.61-4.203 1.61m7.906-26.97q-1.065 0-1.78-.702-.704-.715-.704-1.782 0-1.219.89-2.062c.594-.57 1.282-.86 2.063-.86.707 0 1.297.243 1.766.72.476.468.719 1.058.719 1.765 0 .812-.297 1.508-.891 2.078q-.89.844-2.063.844m15.523 1.844q3.187.001 5.11 1.765 1.92 1.751 1.921 4.797 0 .893-.14 1.703l-1.813 10.297h-3.625l-.469-1.594h-.172q-1.845 2.064-4.968 2.064-2.454-.001-4.094-1.47c-1.087-.988-1.625-2.273-1.625-3.86q0-1.95 1.047-3.327 1.043-1.388 2.718-2.079a9.05 9.05 0 0 1 3.547-.703h4.72l.046-.14q.061-.497.063-.672c0-.758-.227-1.364-.672-1.813-.45-.445-1.09-.672-1.922-.672-1.367 0-2.262.618-2.688 1.844h-4.828c.352-1.82 1.235-3.3 2.64-4.437q2.11-1.701 5.204-1.703m1.562 10.828h-3.656q-1.032 0-2 .562-.954.563-.953 1.734-.001.893.625 1.422.62.533 1.828.532 1.483.002 2.578-.922 1.108-.92 1.36-2.203Zm0 0" fill="#562230"/><g transform="translate(88.32 35.424)" fill="#562230"/><path d="m111.893 41.814 1.312-7.593h-.187q-.628.705-1.86 1.187a6.7 6.7 0 0 1-2.468.486c-1.47 0-2.766-.383-3.891-1.14-1.117-.759-1.984-1.774-2.61-3.048-.616-1.282-.92-2.665-.92-4.157q0-2.81 1.265-5.281 1.266-2.467 3.422-3.938 2.17-1.466 4.766-1.468 1.48 0 2.922.656a5.8 5.8 0 0 1 2.328 1.89h.172l1.25-2.093h3.625l-4.297 24.5Zm-2.063-10.405q1.17.002 2.281-.734 1.125-.748 1.829-2.047.716-1.296.718-2.89-.002-1.887-1.046-3.141-1.05-1.266-2.72-1.266-1.17 0-2.296.75-1.114.737-1.828 2.031-.703 1.301-.703 2.907-.002 1.875 1.047 3.14 1.042 1.252 2.718 1.25m22.714 4.484q-3.095 0-4.813-1.844-1.72-1.857-1.719-4.844-.002-.779.172-1.843l1.782-10.048h4.828l-1.735 9.938a5 5 0 0 0-.078.75q0 1.426.89 2.422.891.984 2.454.984 1.407.001 2.484-1a4.32 4.32 0 0 0 1.344-2.515l1.813-10.578h4.828l-3.157 18.109h-3.625l-.468-1.594h-.172q-.814.892-2.063 1.485c-.824.382-1.746.578-2.765.578m35.106-10.688q0 1.348-.469 2.906h-13.062q.28 1.534 1.328 2.516c.695.649 1.582.969 2.656.969q1.06 0 1.984-.438.92-.451 1.313-.921h5.14q-.672 1.314-1.937 2.609-1.252 1.3-3.031 2.172a8.5 8.5 0 0 1-3.828.875q-2.313-.001-4.236-1.156a8.5 8.5 0 0 1-3.03-3.141q-1.111-1.998-1.11-4.375c0-1.695.446-3.344 1.344-4.938a10.9 10.9 0 0 1 3.688-3.906 9.3 9.3 0 0 1 5.156-1.515q2.232 0 4.078 1.125a8.17 8.17 0 0 1 2.922 3.015q1.092 1.894 1.094 4.203m-8.516-4.047q-1.533 0-2.797.985-1.266.972-1.859 2.531h8.594q-.253-1.499-1.25-2.5c-.656-.676-1.555-1.016-2.688-1.016m0 0" fill="#562230"/><g transform="translate(171.617 35.424)" fill="#562230"/><path d="M191.923 35.893q-2.707 0-4.187-1.547-1.47-1.545-1.47-4.11 0-.843.157-1.593l1.235-7.031h-2.798l.703-3.938h1.531q1.906.001 2.234-1.984l.5-2.922h4.22l-.813 4.547h3.718l-.734 4.297h-3.733l-1.236 6.968a5 5 0 0 0-.078.672c0 .656.195 1.172.594 1.547q.609.549 1.828.547.561 0 .953-.14l-.78 4.468q-.785.218-1.844.219m15.719 0q-3.095 0-4.813-1.844-1.72-1.857-1.719-4.844-.002-.779.172-1.843l1.782-10.048h4.828l-1.735 9.938a5 5 0 0 0-.078.75q0 1.426.89 2.422.891.984 2.454.984 1.407.001 2.484-1a4.32 4.32 0 0 0 1.344-2.515l1.813-10.578h4.828l-3.157 18.109h-3.625l-.468-1.594h-.172q-.814.892-2.063 1.485c-.824.382-1.746.578-2.765.578m0 0" fill="#562230"/></g><g clip-path="url(#bad88dbc75)"><g clip-path="url(#41adc2c5c3)" transform="translate(0 87)"><g clip-path="url(#a9edee35ed)"><path d="M67.413 74.997c.805-1.43 1.773-2.618 2.91-3.575 1.45-1.218 3.078-2 4.895-2.351q4.204-.81 8.011 1.254 3.886 2.103 5.48 6.258c1.173 3.039 1.024 6.125-.437 9.257q-6.115 12.733-11.277 18.368-6.692 7.3-15.688 7.3c-5.3 0-9.648-1.504-13.054-4.504q-4.366-3.855-6.524-9.668c-1.152-3.097-2.03-6.375-2.644-9.835a405 405 0 0 0-1.563-8.317q-.549-2.735-1.39-4.191.299.52.992.918.687.398 1.285.398-.53 0-1.273.543-1.881 1.383-3.54 3.566a57 57 0 0 0-3.706 5.512q-1.747 2.959-2.766 4.996l-6.942-3.468 7.758-.16q.104 4.956.617 7.757.752 4.114.754 7.324-.002 5.147-2.64 8.489a10.64 10.64 0 0 1-4.285 3.254c-1.45.613-3.016.918-4.707.918v-7.762l.351 7.754q-3.165.141-5.777-1.082-3.086-1.442-4.817-4.427-1.911-3.291-2.279-7.89l7.737-.622-7.718.801c-.247-2.354-.447-5.292-.607-8.823a239 239 0 0 1-.234-10.656q0-5.373.117-8.918l7.758.257 7.129 3.067-2.278 5.297c-.816 1.914-1.41 3.242-1.785 3.992q-1.155 2.314-3.058 3.844a10.6 10.6 0 0 1-4.805 2.195q-3.961.737-7.684-.98c-2.722-1.258-4.695-3.211-5.91-5.864q-1.229-2.691-.86-5.676.293-2.313 1.552-4.55a88 88 0 0 0 3.02-5.72L.987 62.02c1.356-2.863 3.094-6.227 5.223-10.09l6.797 3.746-7.715-.828a203 203 0 0 1 1.953-13.68q1.33-7.541 3.89-14.07 2.905-7.405 7.903-12.18 6.012-5.735 14.93-5.734c4.074 0 7.699 1.121 10.863 3.363q4.295 3.043 6.703 7.766 2.381 4.681 2.383 9.844-.001 9.11-4.426 16.926c-2.727 4.82-6.375 9.175-10.945 13.074q-6.376 5.438-14.094 9.793l-3.812-6.758 7.742.52a53 53 0 0 0-.098 3.41q-.001 2.308-.113 7.523l-7.762-.176-6.512-4.215c3.961-6.125 8.063-10.52 12.297-13.175q6.793-4.266 13.243-4.266 7.688 0 12.645 4.547 4.101 3.756 6.234 9.418 1.698 4.506 2.735 9.55a337 337 0 0 0 1.777 8.18q.657 2.831 1.523 4.356-.263-.468-.937-.883-.865-.54-1.766-.54a2.95 2.95 0 0 0-1.5.38 1.3 1.3 0 0 0-.16.11q.094-.09.246-.278 1.682-2.125 3.266-5.246a243 243 0 0 1 3.883-7.356Zm13.559 7.55a225 225 0 0 0-3.633 6.883q-2.29 4.51-4.938 7.856-1.987 2.512-4.414 3.93-2.982 1.745-6.34 1.745c-2.347 0-4.484-.593-6.41-1.789q-2.69-1.67-4.383-4.64-1.98-3.486-3.144-8.52a332 332 0 0 1-1.867-8.566q-.785-3.838-2.051-7.195c-.55-1.465-1.285-2.614-2.195-3.45-.34-.312-1.063-.468-2.16-.468q-1.981-.002-4.989 1.89c-2.297 1.438-4.8 4.262-7.523 8.465l-14.88 23 .606-27.39q.113-5.038.114-7.176-.002-2.478.132-4.446l.278-4.18 3.648-2.062c4.274-2.41 8.16-5.11 11.652-8.086q4.765-4.066 7.508-8.914c1.61-2.836 2.41-5.93 2.41-9.277q0-1.436-.691-2.797a5.74 5.74 0 0 0-1.844-2.145c-.476-.34-1.11-.511-1.89-.511q-2.7 0-4.211 1.441-2.52 2.407-4.172 6.617c-1.328 3.395-2.348 7.094-3.055 11.106a187 187 0 0 0-1.808 12.633l-.165 1.554-.753 1.363c-1.973 3.583-3.575 6.672-4.805 9.278l-3.488 7.324a102 102 0 0 1-3.473 6.586c.156-.281.266-.656.324-1.137a4.9 4.9 0 0 0-.433-2.715q-.57-1.241-1.696-1.761c-.504-.235-1.054-.293-1.644-.184a4.6 4.6 0 0 0-2.102.973q-.73.59-1.094 1.304.352-.694 1.41-3.183l2.278-5.297 14.883 3.324a271 271 0 0 0-.11 8.403q0 5.063.223 9.957.218 4.844.535 7.925l.016.18q.057.704.18 1.16a2 2 0 0 0 .07.215q-.007-.016-.02-.039c-.472-.816-1.148-1.426-2.027-1.84q-.85-.395-1.508-.367l.176-.008h.18q-.605 0-1.32.305a4.6 4.6 0 0 0-1.864 1.418q-.522.661-.691 1.304a.6.6 0 0 0-.024.114q.007-.1.008-.278.001-1.799-.496-4.523c-.496-2.688-.781-6.102-.867-10.242l-.04-1.914.856-1.715q1.259-2.514 3.274-5.938a72 72 0 0 1 4.722-7.015q3.013-3.975 6.711-6.688 4.841-3.556 10.461-3.558c2.371 0 4.531.562 6.469 1.68q2.913 1.68 4.695 4.761c1.41 2.45 2.469 5.418 3.168 8.91a412 412 0 0 1 1.625 8.656q.675 3.81 1.91 7.137.803 2.163 2.246 3.434.706.62 2.785.62 2.168.002 4.247-2.265 3.607-3.94 8.656-14.441-.209.446-.254 1.074a4.2 4.2 0 0 0 .27 1.805c.304.793.843 1.398 1.609 1.816q1.073.58 2.316.34a4.67 4.67 0 0 0 2.16-1.012q.452-.38.63-.695ZM17.636 47.555q6.365-4.34 10-9.469 3.01-4.248 3.011-7.93 0-.215-.011-.323c.003.046.027.125.058.23q.324.98 1.238 1.777c.176.153.41.293.711.418a4 4 0 0 0 1.551.309q.597 0 1.082-.285a.6.6 0 0 0 .13-.082 2.5 2.5 0 0 0-.259.297c-1.02 1.355-1.906 3.136-2.664 5.355a50 50 0 0 0-2.023 8.05q-.696 4.15-.695 7.04v1.023h-7.758Zm-3.391 21.094V52.942q0-4.172.902-9.594a66 66 0 0 1 2.65-10.515c1.293-3.786 2.945-7.012 4.965-9.684q2.091-2.771 4.77-4.313a13.1 13.1 0 0 1 6.663-1.793c2.93 0 5.586 1.04 7.957 3.118q4.02 3.514 4.02 9.996.001 8.625-5.875 16.906-5.25 7.406-13.92 13.316Zm0 0" fill="#fff"/></g><path d="M129.132 75.477q2.463-5.203 7.258-6.742 4.753-1.529 9.031.793 4.025 2.179 5.579 6.683c1.023 2.973.851 6.094-.528 9.36q-2.93 6.879-6.887 12.691-4.265 6.257-9.574 10.223-6.338 4.729-13.926 4.73-8.11 0-13.8-5.129-4.776-4.306-7.383-10.593l-.106-.258-.086-.262q.178.535.684 1.203a6.6 6.6 0 0 0 1.629 1.512 7 7 0 0 0 3.266 1.137 7 7 0 0 0 3.285-.48 6.5 6.5 0 0 0 1.738-1.036q.558-.47.8-.851-4.464 6.849-9.75 9.937c-3.675 2.152-7.433 3.227-11.26 3.227q-6.673 0-12.325-3.977-5.128-3.603-8.047-8.953l-.066-.121-.063-.125q-.98-1.964-1.531-4.344a31.5 31.5 0 0 1-.79-4.586 45 45 0 0 1-.206-4.336q0-8.684 3.738-16.086 3.802-7.528 10.516-12.133 7.05-4.833 15.836-4.832 5.22 0 10.937 2.051l.168.063.164.066a5 5 0 0 0-1.656-.355 5.9 5.9 0 0 0-2.613.468 5.7 5.7 0 0 0-1.961 1.352q-.458.491-.703.988l.039-.082.043-.078c1.308-2.477 2.91-4.328 4.793-5.555q3.067-1.992 6.394-1.992c2.324 0 4.426.621 6.297 1.871a11.43 11.43 0 0 1 3.945 4.469q1.348 2.69 1.067 5.496-.071.73-.211 1.692l-.012.09-.016.09a515 515 0 0 0-1.457 9.366 66 66 0 0 0-.715 9.633q0 3.084.434 6.063.233 1.618.8 2.398a2.2 2.2 0 0 0-1.273-.836l.024-.008q-.406 0-.649.121c.153-.078.383-.269.688-.582 1.394-1.425 2.793-3.3 4.187-5.625q2.385-3.977 4.29-7.89Zm13.993 6.719a120 120 0 0 1-4.938 9.082c-2.023 3.37-4.16 6.207-6.41 8.5q-5.014 5.12-11.125 5.12c-2.246 0-4.309-.437-6.18-1.308-2.043-.949-3.738-2.351-5.094-4.203q-2.848-3.892-3.64-9.336a58 58 0 0 1-.59-8.289q0-5.923.879-11.898.808-5.479 1.504-9.656l7.656 1.277-7.684-1.098c.059-.422.106-.77.13-1.043q-.166 1.667.495 2.992a3.86 3.86 0 0 0 1.329 1.504q1.1.734 2.312.735c.848 0 1.54-.172 2.063-.512q.462-.303.695-.59a3 3 0 0 0-.23.39l-6.856-3.632 6.937 3.473q-1.793 3.586-5.168 5.011-3.726 1.578-7.687-.054l2.953-7.176-2.621 7.305q-3.171-1.142-5.691-1.141c-2.653 0-5.004.707-7.063 2.117-2.285 1.567-4.098 3.672-5.433 6.324q-2.075 4.103-2.075 9.09.001 1.446.137 2.84c.078.793.23 1.656.465 2.59.09.387.183.687.289.894l-6.941 3.473 6.812-3.719q1.185 2.169 3.348 3.692 1.634 1.148 3.398 1.148 1.542 0 3.43-1.101 2.121-1.242 4.488-4.871c.691-1.09 1.465-1.989 2.309-2.704 1.89-1.582 4.011-2.27 6.363-2.054a8.3 8.3 0 0 1 3.871 1.355 8.9 8.9 0 0 1 2.191 2.063q1.049 1.377 1.68 3.28l-7.36 2.454 7.169-2.973q1.264 3.054 3.437 5.012 1.261 1.137 3.406 1.137 2.432-.001 4.641-1.649 3.23-2.415 6.031-6.523c2.07-3.035 3.871-6.363 5.414-9.977l.02-.058-.008.027q-.034.13-.05.313-.061.702.195 1.445.414 1.201 1.703 1.898c.511.282 1.07.442 1.676.489q.779.058 1.433-.149 1.033-.332 1.719-1.035.182-.187.293-.352l.008-.003Zm-53.91 5.476a.2.2 0 0 0-.051.012q.104-.04.32-.234 1.4-1.231 2.617-3.524a33.3 33.3 0 0 0 2.492-6.105c.7-2.317 1.207-4.52 1.535-6.598l.016-.117.023-.117q-.273 1.45.383 2.933c.418.953 1.016 1.676 1.793 2.18l4.2-6.531-3.473 6.941q-.452-.223-1.59-.535c-.586-.16-1.402-.238-2.457-.238q-1.142 0-1.914.62-1.318 1.061-2.16 3.157c-.692 1.735-1.04 3.695-1.04 5.89q.001 2.005.7 3.282-.245-.456-.848-.79a2 2 0 0 0-.531-.214Zm0 15.52c-2.603 0-4.939-.579-7.017-1.739q-3.304-1.845-5.202-5.316-2.607-4.759-2.606-10.73-.001-6.28 2.149-11.653c1.57-3.918 3.847-7.082 6.843-9.488q5.036-4.048 11.641-4.047c2.437 0 4.621.262 6.543.785q2.618.715 4.445 1.63l.375.183.352.226q2.761 1.776 4.015 4.63 1.284 2.904.668 6.18l-7.629-1.435 7.668 1.2q-.65 4.17-2 8.664a49 49 0 0 1-3.656 8.933q-2.54 4.775-6.043 7.868c-3.097 2.738-6.617 4.109-10.547 4.109m0 0" fill="#fff"/><path d="M194.626 75.497q1.072-2.28 2.734-3.868a10.76 10.76 0 0 1 4.79-2.675c2.945-.766 5.777-.442 8.487.968q3.957 2.057 5.657 6.235 1.911 4.69-.45 9.707-5.858 12.135-13.17 16.957-7.467 4.927-15.154 4.926-5.819.002-11.785-2.985l3.469-6.937-2.954 7.176q1.259.516 2.816.183 1.79-.386 2.875-1.664-2.917 3.581-6.894 6.816-5.501 4.472-12.133 4.473-8.878 0-14.75-4.969-5.167-4.371-7.934-11.214-2.33-5.76-3.613-12.297l-.02-.106-.02-.11q.053.302.274.802.874 1.942 2.871 3.054a7.17 7.17 0 0 0 4.551.852 7.06 7.06 0 0 0 3.5-1.473q1.091-.86 1.578-1.84l-.132.27-.153.254q-.188.315-.398.73-.476.95-.969 1.778l-6.656-3.993 6.941 3.47a15 15 0 0 1-1.554 2.486q-1.628 2.1-4.265 3.224a11.9 11.9 0 0 1-4.766.973q-4.692 0-8.078-3.219-3.556-3.374-3.555-8.418-.002-2.573 1.168-5.375l.145-.355.184-.34a85 85 0 0 0 3.917-8.305 690 690 0 0 0 3.66-9.176l.048-.12.05-.118q.042-.1.055-.137a3 3 0 0 0-.078.305q.074-.356.156-.941l7.684 1.097-7.739-.613a210 210 0 0 1 1.657-14.547q1.071-7.144 2.511-13.312 1.498-6.441 3.313-10.977Q146.55 11.8 152.95 6.789q6.832-5.35 13.84-5.351 4.314 0 7.988 1.813c2.414 1.19 4.52 2.917 6.305 5.187q4.858 6.157 4.86 15c0 4.543-.895 9.305-2.677 14.29q-2.496 6.98-6.632 13.66-4.115 6.644-9.207 12.054-5.352 5.688-11.141 8.996.943-.539 1.582-1.594c.488-.8.734-1.644.734-2.523v2.96c0 5.927.461 10.606 1.387 14.048.77 2.875 1.602 4.797 2.488 5.757q.387.428.551.508c-.215-.11-.476-.164-.797-.164-.176 0-.328.024-.445.067q.097-.036.348-.223.7-.527 1.132-1.469l.055-.12.059-.118q-.676 1.348-.371 3.152.112.684.347 1.094l6.739-3.852-6.536 4.192q-3.446-5.378-4.898-10.317-1.453-4.945-1.453-9.136 0-8.17 4.437-13.215 4.83-5.482 11.18-5.48c2.387 0 4.559.515 6.52 1.554q3.07 1.624 5.003 4.684 2.461 3.906 3.352 8.937c.5 2.801.746 5.34.746 7.621q0 2.345-.27 4.91a217 217 0 0 1-.472 4.137l-.031.238-.043.23q.217-1.16-.239-2.433c-.355-.984-.921-1.77-1.707-2.355q.585.435 1.328.746.23.094.852.094a.6.6 0 0 0-.133.011c.051-.015.13-.043.227-.093q.702-.335 1.66-1.239 2.573-2.408 5.016-7.57Zm14.035 6.625q-3.709 7.823-8.426 12.25-5.887 5.514-12.37 5.515-3.71-.001-6.786-1.273a21.4 21.4 0 0 1-4.707-2.672q-2.542-1.906-3.586-4.8c-.645-1.802-.785-3.696-.41-5.684l7.629 1.43-7.703-.962c.148-1.168.293-2.445.437-3.84q.188-1.756.188-3.285.001-2.05-.508-4.91c-.242-1.36-.64-2.48-1.203-3.371q.282.446.875.758.463.246.734.246.515 0 .883-.2.028-.012.039-.019c-.016.012-.04.028-.063.047a3.6 3.6 0 0 0-.386.387q-.159.178-.293.613-.277.902-.278 2.348 0 1.956.825 4.758.825 2.805 3.074 6.316l.105.168.098.172q1.149 2.004 1.488 4.054.527 3.17-1.054 6.34l-6.942-3.468 7.055 3.234q-2.076 4.525-5.93 7.414-4.347 3.263-9.215 3.262-6.252 0-11.176-5.352c-2.609-2.835-4.625-6.914-6.058-12.242q-1.915-7.142-1.914-18.074v-2.961q0-3.035 1.527-5.547c.961-1.574 2.285-2.848 3.977-3.813 2.52-1.437 5.031-3.492 7.539-6.156q4.02-4.271 7.312-9.586 3.27-5.285 5.215-10.718c1.18-3.293 1.766-6.317 1.766-9.063q-.001-3.458-1.52-5.39-.51-.645-.984-.88-.428-.21-1.125-.21-1.653-.001-4.274 2.054-3.06 2.392-5.609 8.903c-.918 2.293-1.785 5.203-2.61 8.734q-1.294 5.561-2.273 12.09a196 196 0 0 0-1.535 13.472l-.02.243-.035.242a30 30 0 0 1-.3 1.793c-.18.906-.493 1.875-.93 2.902l-7.134-3.058 7.227 2.82a671 671 0 0 1-3.743 9.39 102 102 0 0 1-4.625 9.81l-6.835-3.68 7.164 2.984c-.02.054-.04.097-.051.133.004-.004.004-.016.012-.04q.065-.287.066-.687a3.7 3.7 0 0 0-.29-1.379 4.1 4.1 0 0 0-.983-1.453q-1.108-1.055-2.614-1.055c-.453 0-.902.098-1.347.285q-1.044.45-1.872 1.516c-.039.047-.066.09-.09.125l-.003.004q.007-.01.015-.031l.133-.266.156-.258q.188-.312.395-.73.474-.948.973-1.774l6.652 3.993-6.941-3.47q1.06-2.118 2.687-3.405c1.203-.946 2.547-1.524 4.04-1.723a7.97 7.97 0 0 1 5.066.96q3.785 2.1 4.625 7.161l-7.653 1.273 7.613-1.492q.999 5.08 2.77 9.461 1.331 3.294 3.57 5.188 1.535 1.296 4.727 1.297 1.118 0 2.336-.993a33 33 0 0 0 4.84-4.804q2.336-2.762 5.722-3.485 3.154-.678 6.348.64l.262.106.254.13q2.688 1.342 4.843 1.343 3.026-.001 6.606-2.363 3.743-2.466 7.676-10.61-.141.305-.188.832c-.05.653.05 1.293.309 1.926q.446 1.104 1.554 1.68 1.219.632 2.567.285a4.54 4.54 0 0 0 2.027-1.113q.434-.416.598-.762Zm-49.172-28.243q.074-.962-.332-2.058c-.512-1.371-1.398-2.438-2.672-3.2a6.6 6.6 0 0 0-2.715-.906 6.45 6.45 0 0 0-2.68.258c-.874.278-1.574.672-2.09 1.188 2.548-2.48 4.829-5.368 6.848-8.653q3.124-5.091 4.965-10.113 1.634-4.459 1.633-7.184 0-.644-.187-1.148.533 1.43 1.933 2.363 1.273.85 2.598.848.444 0 .824-.195a.5.5 0 0 0 .113-.067 2 2 0 0 0-.207.215q-1.412 1.622-2.574 4.55c-.973 2.446-1.812 5.11-2.527 7.997a109 109 0 0 0-1.809 8.82q-.726 4.529-1.172 7.75l-7.687-1.062Zm-15.473-1.191.016-.234.031-.23q.468-3.388 1.223-8.087.79-4.934 2.066-10.086 1.324-5.356 3.168-10.004 2.14-5.386 5.285-9.004 2.127-2.442 4.747-3.785a13.5 13.5 0 0 1 6.238-1.504q3.375 0 6.012 1.758 2.767 1.845 3.988 5.102 1.177 3.135 1.176 6.597c0 3.649-.86 7.825-2.578 12.52q-2.377 6.484-6.313 12.898-4.038 6.575-9.102 11.508-1.917 1.915-4.226 2.64c-1.2.38-2.41.5-3.64.368a8.7 8.7 0 0 1-3.606-1.215q-2.761-1.656-3.895-4.707-.779-2.097-.59-4.535m0 0" fill="#fff"/><path d="M229.442 115.379q-8.068-.001-14.812-4.285-6.403-4.066-10.367-10.721-3.915-6.58-4.649-14.477l7.727-.715 6.875 3.598a36.6 36.6 0 0 1-3.891 5.918q-1.771 2.215-3.887 3.5-2.795 1.692-5.93 1.691-4.581 0-8.109-3.527l-.39-.387-.329-.441q-2.794-3.728-2.437-8.035l.012-.16.02-.16c.327-2.61 1.3-4.97 2.917-7.071q.683-.892 1.145-1.816l.062-.122 4.512-8.27q1.178-2.127 1.473-2.98a1.4 1.4 0 0 0 .086-.421l-.012.004a16 16 0 0 1-.106-1.829q.245-13.042 2.43-22.336c1.504-6.406 3.477-11.707 5.91-15.902q3.946-6.795 8.899-10.226 5.524-3.832 11.37-3.832 4.08 0 7.641 1.804 3.354 1.707 5.98 4.895 4.96 6.023 4.962 15.527a33 33 0 0 1-.442 5.285 64 64 0 0 1-1.043 5.028l-.027.097-.027.102q-2.87 10.302-9.235 19.27-6.656 9.367-16.722 14.675l-3.618-6.867h7.762c0 3.086.188 6.074.563 8.973q.503 3.896 1.691 6.937.815 2.08 2.082 3.145.632.522 2.254.523.574 0 1.348-.621c1.363-1.098 2.629-2.48 3.8-4.156a49.4 49.4 0 0 0 3.598-5.957l2.895-5.735 6.93 3.5-7.133-3.058q2.239-5.227 6.78-7.196 2.263-.983 4.583-1.023a10.95 10.95 0 0 1 4.992 1.09q4.466 2.144 6.043 7.187 1.482 4.734-1.09 10.106l-7-3.348 7.106 3.117a88.4 88.4 0 0 1-7.305 13.418q-4.572 6.889-10.457 11.238-6.839 5.045-15.43 5.046m0-15.52c2.32 0 4.395-.671 6.211-2.015q3.685-2.718 6.742-7.328a73 73 0 0 0 6.025-11.073l.054-.117.055-.114c.063-.14.113-.253.14-.34l.005-.015q-.007.041-.02.102-.1.669.152 1.472c.098.317.282.64.551.98q.61.768 1.504 1.196.944.457 2.004.437c.5-.011.938-.097 1.305-.257a3.3 3.3 0 0 0 1.226-.864q.1-.116.153-.203-.02.036-.063.137l-.097.223-3.024 5.988a65 65 0 0 1-4.719 7.828q-3.024 4.322-6.794 7.351-5.034 4.044-11.07 4.046-7.26 0-12.21-4.144-4.318-3.608-6.579-9.39-1.882-4.819-2.633-10.602a85 85 0 0 1-.691-10.965v-4.68l4.144-2.183q6.79-3.582 11.301-9.934 4.8-6.75 6.938-14.445l7.476 2.082-7.527-1.883q.49-1.962.781-3.746.239-1.489.238-2.8 0-3.939-1.418-5.661-.564-.685-1.023-.918a1.35 1.35 0 0 0-.617-.129q-.991 0-2.528 1.066-2.11 1.464-4.32 5.266c-1.664 2.863-3.07 6.754-4.223 11.66q-1.805 7.682-2.015 18.785c0 .02.004.055.008.114q.105.938.105 1.71.001 2.789-.941 5.5-.73 2.114-2.512 5.337l-4.446 8.144-6.812-3.714 6.942 3.469a26.6 26.6 0 0 1-2.727 4.336.9.9 0 0 0 .184-.465l-7.7-.96 7.73.644a4.3 4.3 0 0 0-.198-1.73 2.8 2.8 0 0 0-.414-.837l-6.207 4.657 5.488-5.489q-.315-.316-.86-.574a4.6 4.6 0 0 0-2.007-.445c-.801 0-1.504.183-2.118.554a2 2 0 0 0-.308.223q.032-.034.125-.145a21.6 21.6 0 0 0 2.262-3.421l12.18-23.259 2.421 26.14q.406 4.407 2.527 7.97c1.383 2.319 3.168 4.17 5.352 5.562 1.96 1.246 4.121 1.867 6.492 1.867m-18.004-43.663q2.708-1.623 4.707-4.254a34.6 34.6 0 0 0 3.965-6.57q1.56-3.388 2.063-5.914l.09-.438.136-.422q.762-2.369.762-4.34c0-.351-.02-.629-.059-.82l.004.008q.046.119.121.262.424.792 1.332 1.445a5.5 5.5 0 0 0 3.29 1.058c.824 0 1.535-.156 2.14-.46q.115-.06.16-.09-.088.057-.222.18c-.512.445-1.196 1.417-2.051 2.929l-6.75-3.828 7.035 3.277q-2.608 5.608-3.523 11.52a150 150 0 0 0-1.461 13.597l-7.747-.484Zm7.985 13.308-12.66 7.598.921-14.734q.478-7.642 1.614-14.996 1.252-8.1 4.792-15.705l.129-.28.156-.27q2.59-4.571 5.355-6.98 3.957-3.452 8.117-3.45 3.178.002 5.762 1.855 2.02 1.454 3.297 3.836 1.776 3.312 1.777 7.88-.001 4.41-1.515 9.105l-7.387-2.383 7.61 1.52q-.862 4.312-3.176 9.351a50.6 50.6 0 0 1-5.72 9.492q-3.807 5.003-9.073 8.16m0 0" fill="#fff"/><path d="M273.185 114.126q-9.785 0-17.32-4.524-7.395-4.434-11.473-11.383c-2.761-4.707-4.144-9.62-4.144-14.75q0-8.443 3.261-15.96 3.285-7.569 8.958-12.732 6.198-5.644 14.015-6.781a23 23 0 0 1 1.727-.223 21 21 0 0 1 1.898-.086q7.25-.001 12.793 3.695 3.55 2.367 5.367 6.118 1.676 3.457 1.676 7.742 0 7.786-4.809 14.332c-2.87 3.914-6.511 7.093-10.914 9.539q-6.461 3.585-13.668 4.453l-.109.012-.113.011q.725-.065 1.527-.441 1.54-.717 2.52-2.184 1.224-1.837 1.09-3.992-.07-1.118-.493-1.96 1.389 2.774 3.621 4.32c1.254.867 3.243 1.3 5.957 1.3q2.17 0 4.528-1.511 3.123-1.999 5.824-5.528a37.2 37.2 0 0 0 4.809-8.347q.943-2.285 2.53-3.954a10.9 10.9 0 0 1 4.516-2.875c2.97-.988 5.875-.828 8.723.489 1.52.699 2.817 1.68 3.895 2.933q1.501 1.753 2.265 4.051 1.588 4.757-1.101 10.137-5.901 12.445-14.837 19.915-9.794 8.185-22.52 8.184m0-15.52c4.727 0 8.918-1.523 12.563-4.574q6.327-5.284 10.91-14.946.089-.17.117-.265c-.012.035-.023.101-.039.187q-.134.834.184 1.79.195.586.672 1.144.59.685 1.386 1.055c.875.402 1.77.453 2.688.144a4.4 4.4 0 0 0 1.812-1.137c.278-.293.469-.558.563-.789a52.7 52.7 0 0 1-6.809 11.813c-2.91 3.797-6.168 6.855-9.785 9.168-4.12 2.637-8.421 3.957-12.894 3.957q-8.916 0-14.78-4.055-5.51-3.81-8.68-10.144-.99-1.982-1.118-4.012c-.129-2.047.367-3.906 1.489-5.586.957-1.434 2.23-2.523 3.828-3.27q1.657-.772 3.633-.953l.703 7.73-.922-7.706c2.789-.336 5.445-1.203 7.976-2.61q3.645-2.027 5.942-5.156 1.8-2.449 1.8-5.148-.002-.72-.12-.973l-.012.027q-1.635-1.09-4.184-1.09-.216 0-.492.024c-.227.023-.523.062-.895.125-2.078.3-4.011 1.27-5.804 2.898q-3.211 2.924-5.168 7.434-1.98 4.56-1.98 9.781 0 3.474 2.011 6.895 2.068 3.533 6.07 5.93 3.851 2.313 9.336 2.312m-14.761-28.137q2.044-.352 4.28-1.566 2.288-1.241 3.72-2.746.313-.328.355-.414-.216.444-.215 1.097 0 1.02.785 2.211 1.284 1.945 3.457 2.38c-.46-.095-.78-.126-.968-.098-.95.132-2.012.789-3.184 1.96-1.297 1.297-2.09 2.665-2.387 4.106q.238-1.184-.074-2.418a5.9 5.9 0 0 0-1.582-2.809 5.8 5.8 0 0 0-2.473-1.472 4.8 4.8 0 0 0-1.78-.2l.702 7.731-3.472-6.941q1.868-.933 4.152-.934v7.762Zm2.636 15.294-.656.113h-.664q1.377 0 2.789-.703l-1.309.653-1.46.133a10.6 10.6 0 0 1-4-.368 9.56 9.56 0 0 1-4.126-2.442 9.3 9.3 0 0 1-2.496-4.402q-.537-2.15-.074-4.47 1.379-6.722 6.613-11.956 5.42-5.418 11.965-6.356 2.914-.416 6.207.246 4.171.833 6.45 4.286 1.785 2.7 1.785 6.343 0 5.379-4.418 10.02-3.123 3.28-7.559 5.687c-2.992 1.618-6.004 2.692-9.047 3.215m0 0" fill="#fff"/><g transform="translate(299.953 103.063)" fill="#fff"/><path d="M340.507 142.376q-3.983 0-6.945-2.442-2.572-2.121-3.696-5.633-1.22-3.83-1.222-8.91.002-7.682.59-15.984.574-8.092 1.261-16.067.669-7.709.887-14.562l.015-.305q-.058.861.297 1.84a5.5 5.5 0 0 0 1.875 2.543q.949.727 2.172 1.066a6.93 6.93 0 0 0 4.13-.109 6.8 6.8 0 0 0 2.991-1.96q.61-.687.95-1.438l-7.063-3.212 7.16 2.984q-.591 1.424-1.183 2.79-.65 1.499-1.43 3.05-2.45 5.155-7.066 6.8-2.426.87-4.891.63a10.9 10.9 0 0 1-4.793-1.641c-2.64-1.652-4.379-4.035-5.207-7.145q-1.19-4.46 1.055-9.195 1.762-3.75 3.027-6.66a155 155 0 0 1 2.883-6.25c1.047-2.133 2.308-4.43 3.789-6.899l.07-.117.078-.117q2.374-3.655 5.059-5.406 3.24-2.114 7.71-2.113 3.734 0 6.598 1.761 3.276 2.01 4.665 5.742 1.399 3.758 1.398 7.891v3.3q.001-.615-.356-1.519a6.6 6.6 0 0 0-1.5-2.27 6.95 6.95 0 0 0-3.418-1.89 6.84 6.84 0 0 0-3.574.106 6.3 6.3 0 0 0-1.984.98c-.39.29-.66.54-.8.746l6.378 4.418-6.523-4.203q5.537-8.6 11.949-11.598c3.969-1.855 7.777-2.78 11.433-2.78q6.81 0 12.246 3.655 5.191 3.487 8.098 9.387 2.794 5.667 2.793 12.488a47 47 0 0 1-.61 7.497 46.6 46.6 0 0 1-1.976 7.792l-7.336-2.53 7.422 2.257a9 9 0 0 0-.117.434q.057-.276.055-.727c0-1.23-.344-2.414-1.032-3.543a7.3 7.3 0 0 0-2.777-2.648 7.26 7.26 0 0 0-3.55-.914h.91c1.308 0 3.035-.559 5.171-1.68 1.805-.942 3.285-2.543 4.434-4.793q2.456-4.915 7.156-6.426 4.401-1.412 8.52.399 4.483 1.974 6.175 6.714 1.593 4.464-.628 9.653-4.681 10.716-14.258 15.504-8.702 4.353-18.622 4.352h-1.707q-1.396 0-2.786-.172l.961-7.703-.515 7.742q1.348.093 2.468-.824-4.398 3.549-8.277 5.223-4.375 1.887-8.258 1.887-5.758 0-9.906-3.438-3.527-2.923-5.226-7.223-1.512-3.826-1.512-7.582.001-6.514 3.98-10.5l.25-.246.27-.226q2.596-2.165 5.668-3.074a19.2 19.2 0 0 1 5.453-.774q2.86 0 5.812.621 1.975.417 3.942.727-1.42-.252-3.031.55-1.733.87-2.477 2.465l.07-.156.082-.152a15.3 15.3 0 0 0 1.352-3.79q.502-2.243.5-4.355 0-.59-.36-1.699a2.4 2.4 0 0 0-.539-.941q.381.392.903.597.311.122.465.121-.921 0-1.93.809-2.092 1.675-3.844 4.48a44.3 44.3 0 0 0-3.488 6.825q-1.437 3.575-2.102 6.324-1.621 6.808-2.253 11.238-.616 4.3-.664 7.399a488 488 0 0 1-.171 7.246l-7.758-.25h7.761a4.2 4.2 0 0 0-.414-1.785q.14.298.414.785l-6.738 3.847 6.278-4.562c1.41 1.937 2.265 4.246 2.574 6.93q.276 2.43.277 5.835 0 7.032-4.562 11.06-4.138 3.649-9.805 3.648m0-15.52h.027a1 1 0 0 0-.16.047q-.204.076-.332.187-.498.439-.691.965-.02.052-.028.086s0-.012.004-.027a3 3 0 0 0 .028-.446c0-1.68-.063-3.039-.18-4.074a2 2 0 0 0-.024-.16q0 .005.012.04.093.263.309.558l-.25-.344-.215-.371a25 25 0 0 1-1.067-2.064q-.979-2.157-.98-4.636v-.125l.004-.125c.074-2.313.133-4.64.168-6.992.043-2.72.316-5.833.82-9.348q.733-5.134 2.528-12.684.931-3.856 2.796-8.48a59.4 59.4 0 0 1 4.711-9.238q3.154-5.057 7.32-8.391 5.262-4.207 11.626-4.207 5.916 0 9.8 4.023 2.837 2.937 4.133 6.922c.746 2.297 1.117 4.465 1.117 6.496q0 3.814-.867 7.723a30.7 30.7 0 0 1-2.746 7.601l-6.879-3.59 7.032 3.282q-1.541 3.303-4.645 4.855-2.976 1.49-6.332.895a91 91 0 0 1-4.715-.867q-1.376-.289-2.617-.29a3.6 3.6 0 0 0-1.008.126 1 1 0 0 0-.176.125l-4.968-5.961 5.488 5.488q.422-.423.574-.875l.016-.023q-.029.164-.028.421c0 .536.145 1.16.426 1.875q.236.596.695.98a.7.7 0 0 0-.261-.148q.047.012.265.012.68.002 2.11-.617 1.933-.832 4.597-2.98 3.627-2.965 8.391-2.649l.227.016.218.027q.435.054.864.055h1.707c4.172 0 8.062-.907 11.68-2.715q4.547-2.274 6.933-7.735.058-.143.082-.218a2 2 0 0 0-.035.203c-.059.531.015 1.098.23 1.695q.23.644.75 1.223.621.688 1.442 1.05c.847.376 1.675.43 2.48.172a4 4 0 0 0 1.602-.945q.275-.269.316-.355-3.974 7.786-11.058 11.496c-4.395 2.297-8.516 3.445-12.372 3.445h-.91a8 8 0 0 1-3.902-.992 7.95 7.95 0 0 1-3.027-2.895c-.82-1.347-1.23-2.859-1.23-4.527q0-1.81.733-4.223l.043-.136.047-.137a31 31 0 0 0 1.325-5.191 31.6 31.6 0 0 0 .414-5.036q-.001-3.204-1.192-5.625-1.082-2.189-2.84-3.37c-1.004-.676-2.203-1.016-3.586-1.016q-2.033 0-4.859 1.32-2.357 1.107-5.477 5.945l-.07.11-.074.105c-.824 1.195-1.73 2.156-2.707 2.883a9.1 9.1 0 0 1-2.832 1.43 8.4 8.4 0 0 1-4.352.14 8.3 8.3 0 0 1-4.066-2.254 8.8 8.8 0 0 1-1.965-3.02c-.48-1.226-.723-2.612-.723-4.167v-3.3a7 7 0 0 0-.425-2.481q.48 1.284 1.757 2.07c.582.36 1.094.535 1.528.535q-.115.001-.184.008c.016 0 .047-.008.086-.016a2.8 2.8 0 0 0 .863-.398q.171-.105.27-.2-.025.03-.066.075a9 9 0 0 0-.727.988l-6.504-4.23 6.652 3.992q-1.881 3.14-3.16 5.746a129 129 0 0 0-2.582 5.598 263 263 0 0 1-3.238 7.125c-.023.05-.04.078-.043.093q.032-.092.05-.238a3.15 3.15 0 0 0-.093-1.305q-.333-1.247-1.562-2.02a4.45 4.45 0 0 0-1.946-.644q-.984-.094-1.816.203-1 .358-1.61 1.02a1.3 1.3 0 0 0-.16.195c.028-.043.086-.152.172-.34q.592-1.176 1.078-2.3.545-1.254 1.094-2.567l.047-.113.05-.113c1.126-2.473 2.883-4.106 5.282-4.907a8.3 8.3 0 0 1 4.945-.117 9 9 0 0 1 3.09 1.559 9.7 9.7 0 0 1 3.274 4.453q.785 2.143.609 4.598l-7.742-.551 7.758.25q-.236 7.272-.938 15.398c-.453 5.239-.867 10.512-1.242 15.828a210 210 0 0 0-.551 14.887q-.001 2.663.484 4.188c-.175-.555-.582-1.098-1.214-1.618q-1.343-1.106-2.93-1.105m0 0" fill="#fff"/><path d="M445.882 75.329q1.108-2.211 2.797-3.743a10.9 10.9 0 0 1 4.648-2.52q4.283-1.11 8.266.802 4.071 1.951 5.84 6.136 1.94 4.582-.34 9.707-2.097 4.794-6.34 9.399-4.419 4.788-10.672 7.66-6.585 3.019-14.765 2.574.95.065 1.98-.39.956-.422 1.555-1.137l-5.961-4.969 6.102 4.793c-2.407 3.067-5.403 5.465-8.98 7.203-3.575 1.735-7.743 2.598-12.5 2.598q-8.674-.001-14.868-4.496-5.908-4.291-8.914-11.406-2.773-6.576-2.774-14.41-.002-5.972 1.836-11.833 1.87-5.982 5.446-10.793 3.954-5.326 9.59-7.976l.124-.059.122-.054a2 2 0 0 0 .195-.09q-.04.023-.133.082l1.2-.797 4.304 6.457-4.469-6.348q5.086-3.576 11.531-3.578 8.006 0 14.149 4.758 5.489 4.253 8.617 10.738 3.106 6.44 3.106 13.227a64 64 0 0 1-.258 5.715 66 66 0 0 1-.778 5.695q.241-1.202-.18-2.598a5.8 5.8 0 0 0-1.605-2.597q-1.31-1.214-3.008-1.496-.862-.146-1.507-.004l.16-.036.16-.027c1.3-.223 2.277-.703 2.926-1.45q2.209-2.518 3.5-4.933l6.84 3.668Zm13.883 6.941-.047.098-.055.097c-1.414 2.645-3.25 5.254-5.496 7.825q-4.609 5.26-11.996 6.527l-1.308-7.652 1.629 7.59q-2.245.481-4.301.136-2.896-.48-5-2.437-1.936-1.8-2.688-4.278a9.46 9.46 0 0 1-.238-4.675c.266-1.446.46-2.887.594-4.329q.194-2.157.195-4.308 0-3.239-1.566-6.485-1.541-3.195-4.141-5.207-1.948-1.509-4.645-1.507-1.53 0-2.597.75l-1.36.906q-1.1.738-2.554 1.36l-3.059-7.135 3.305 7.024q-2.109.99-3.738 3.183-2.01 2.706-3.098 6.184-1.125 3.593-1.125 7.191.001 4.693 1.555 8.372 1.323 3.136 3.73 4.882 2.119 1.541 5.75 1.54 3.573 0 5.727-1.044 2.15-1.042 3.55-2.824l.067-.09.074-.086q1.736-2.084 4.117-3.132a10.7 10.7 0 0 1 5.113-.899c2.903.156 5.383-.238 7.45-1.187 2.285-1.047 4.195-2.407 5.73-4.07q2.48-2.69 3.57-5.184-.081.181-.117.62a4.26 4.26 0 0 0 .348 2.024 3.43 3.43 0 0 0 1.738 1.809 3.33 3.33 0 0 0 2.344.23 4.4 4.4 0 0 0 1.883-1.007q.467-.425.66-.813m-28.492-1.953q-.925-.616-2.16-.805a6.1 6.1 0 0 0-3.547.512 5.9 5.9 0 0 0-2.367 1.984q-.675.956-.88 1.989.278-1.484.473-3.114.174-1.412.172-2.996c0-1.047-.246-2.183-.746-3.418-.453-1.12-1.031-2.02-1.734-2.687a1 1 0 0 0-.125-.106.3.3 0 0 0 .058.028.5.5 0 0 0 .172.047h-.117q1.979 0 3.52-.868c-.016.012-.094.059-.235.149q.456-.293.754-.707l-6.316-4.512 6.457 4.305q-.655.982-1.766 2.093l-1.027 1.028q1.066-1.067 1.36-2.238l-.032.12q.035-.214.035-.523 0 .676.809 2.008a25 25 0 0 0 3.527 4.523q2.076 2.122 3.637 3.137Zm-8.535 12.966q-2.994-1.95-6.27-5.293a40.3 40.3 0 0 1-5.703-7.328c-2.043-3.364-3.063-6.715-3.063-10.063q0-1.523.457-3.363.75-2.996 2.727-4.973l1.024-1.023q.104-.104.132-.137a4 4 0 0 0-.304.406l.07-.105.07-.102a12.7 12.7 0 0 1 3.489-3.324q.592-.38 1.015-.621 2.004-1.125 4.09-1.125h.117q6.06.001 10.582 4.297 3.503 3.329 5.442 8.133 1.875 4.645 1.875 9.226-.002 2.52-.286 4.863a67 67 0 0 1-.664 4.293q-.435 2.175-1.648 3.899a9.35 9.35 0 0 1-3.762 3.148 9.15 9.15 0 0 1-5.343.77q-2.176-.328-4.122-1.629Zm-8.172-9.926q0 2.295.812 3.848.838 1.588 1.98 2.386.67.474 1.063.473.268 0 .418-.035l-.008.008q-.903.493-1.672 1.601-1.375 1.993-1.09 4.414a5.8 5.8 0 0 0 1.157 2.887q.59.784 1.305 1.21l-.157-.093-.156-.105q-4.505-3.002-8.476-7.247a48.7 48.7 0 0 1-6.84-9.278l6.75-3.828-6.547 4.166q.463.727 1.39 1.36.996.675 2.207.957c.989.23 1.985.238 2.98.023a6.76 6.76 0 0 0 2.876-1.367 6.4 6.4 0 0 0 1.555-1.797q.503-.861.601-1.559a19 19 0 0 0-.117 1.036q-.033.441-.031.941m-15.524 0q0-1.095.082-2.133c.051-.66.125-1.344.227-2.039q.324-2.292 1.34-4.039a8.9 8.9 0 0 1 2.14-2.504 8.5 8.5 0 0 1 3.598-1.715 8.6 8.6 0 0 1 3.781.032q1.605.375 3 1.32 1.73 1.172 2.989 3.152l.105.164.098.172a33 33 0 0 0 4.668 6.328q2.747 2.937 5.757 4.942l-4.304 6.456 3.992-6.653q1.857 1.114 3.074 2.72a9.4 9.4 0 0 1 1.895 4.679c.265 2.262-.25 4.328-1.547 6.21q-1.335 1.937-3.496 3.114-3.591 2.021-8.02 2.02-5.297.002-9.984-3.29-4.208-2.953-6.793-7.863-2.601-4.94-2.602-11.074m0 0" fill="#fff"/><path d="M453.335 55.594a4.2 4.2 0 0 0-.09 1.903q.129.728.457 1.234-2.18-3.37-2.586-6.336a24 24 0 0 1-.242-3.215q0-2.953 1.035-5.476a12.7 12.7 0 0 1 3.439-4.805q4.015-3.516 9.097-3.516 4.817 0 8.657 3.309 4.219 3.639 4.453 10.336l-7.758.27 7.703-.965q.054.446.113.675-.261-1.038-.828-1.718l-5.96 4.968 5.71-5.254q1.91 2.076 3.754 3.23 2.94 1.835 5.524 3.684 3.795 2.707 6.12 6.825 2.485 4.396 2.485 10.879-.001 3.203-.371 5.664-.31 2.021-.73 4.265-.34 1.788-.649 4.77-.27 3.035.531 4.86-.164-.371-.738-.727a2 2 0 0 0-.582-.262l.02-.016q.361 0 1.003-.629c1.41-1.386 2.774-3.238 4.082-5.562a81 81 0 0 0 4.063-8.223q2.425-5.66 7.387-7.254 2.32-.748 4.652-.523 2.437.233 4.594 1.492c2.695 1.57 4.504 3.941 5.422 7.102.867 2.992.617 6.035-.762 9.132q-3.428 7.594-7.137 13.465-4.196 6.651-9.476 10.535-6.154 4.531-14.059 4.532-8.36-.001-14.043-4.672-5.349-4.407-7.453-11.39-1.85-6.132-1.273-13.177.61-6.605 1.304-10.27.492-2.589.492-3.796 0 .81.36 1.555.257.526.57.808-1.072-.96-5.062-3.297l-.082-.046-.082-.051c.332.203.75.367 1.257.48 1.141.262 2.286.184 3.442-.226q1.8-.644 2.902-2.114c.344-.46.586-.906.715-1.34l-.043.145-.05.145q-1.895 5.449-3.348 8.96-1.408 3.405-2.422 5.669a141 141 0 0 0-1.672 3.886 12.1 12.1 0 0 1-2.563 4.055 10.67 10.67 0 0 1-4.875 2.96c-2.957.845-5.832.59-8.633-.753q-4.277-2.063-6.02-6.492-1.057-2.696-.648-5.625c.223-1.563.754-3.102 1.602-4.625l6.781 3.77-6.902-3.544a98 98 0 0 0 3.902-8.652q1.77-4.481 3.477-10.879Zm14.961 4.13q-1.937 7.27-4.04 12.589c-1.382 3.5-2.894 6.84-4.526 10.027l-.059.114-.063.113c.086-.156.157-.406.204-.75a4.3 4.3 0 0 0-.278-2.211 3.28 3.28 0 0 0-1.691-1.816c-.75-.364-1.535-.422-2.367-.188a4.6 4.6 0 0 0-2.086 1.25q-.462.486-.567.75c.563-1.36 1.184-2.8 1.86-4.312a217 217 0 0 0 2.25-5.266c.851-2.066 1.863-4.773 3.027-8.129l7.332 2.55-7.426-2.257c.399-1.309.969-2.457 1.715-3.453q1.7-2.263 4.297-3.192c1.688-.601 3.434-.699 5.234-.285q1.76.4 3.454 1.45l-4.086 6.601 3.921-6.7q5.35 3.13 7.582 5.134c1.313 1.175 2.325 2.508 3.047 3.996a11.8 11.8 0 0 1 1.184 5.199q0 2.667-.762 6.688-.556 2.94-1.086 8.64c-.222 2.746-.004 5.227.664 7.438q.745 2.472 2.457 3.879 1.384 1.136 4.18 1.136 2.808.002 4.856-1.508 2.922-2.151 5.558-6.324 3.127-4.952 6.078-11.48a1.3 1.3 0 0 0-.074.367q-.057.558.11 1.133.128.434.468.902.487.658 1.195 1.074a4.25 4.25 0 0 0 1.743.551q.855.082 1.582-.152 1.19-.382 1.933-1.207.164-.18.25-.325l.004-.003-.043.09a97 97 0 0 1-4.824 9.773q-3.047 5.403-6.738 9.02-5.17 5.067-11.867 5.066-4.344 0-7.684-2.098-3.48-2.181-5.238-6.195-2.391-5.467-1.746-12.68.375-3.628.832-6.055.373-1.97.636-3.707c.133-.87.2-1.98.2-3.34q0-2.397-.477-3.242a5.6 5.6 0 0 0-1.629-1.832 92 92 0 0 0-4.727-3.152q-3.625-2.262-6.953-5.883l-.129-.14-.12-.145q-1.706-2.051-2.31-4.453a21 21 0 0 1-.456-2.516l-.043-.347-.012-.348a4 4 0 0 0-.039-.457c-.004-.02-.008-.027-.008-.031q.012.041.035.101.253.685.934 1.27.532.458 1.48.46.412-.002.801-.156c.156-.062.266-.12.32-.171q.469-.405.704-.985c.086-.203.125-.34.125-.414q.001.387.101 1.117-.064-.474-.164-.691c.074.168.219.41.426.734.902 1.403 1.488 2.875 1.766 4.426a11.2 11.2 0 0 1-.262 5.09Zm0 0" fill="#fff"/><g transform="translate(511.49 103.063)" fill="#fff"/><path d="M578.344 74.918c1.664-3.117 4.07-5.097 7.222-5.949q4.399-1.184 8.504.953 4.08 2.122 5.688 6.465c1.136 3.063.937 6.219-.598 9.477q-3.304 6.856-6.854 12.429-4.037 6.334-9.051 10.183c-4.012 3.082-8.61 4.625-13.781 4.625q-6.914 0-13.067-3.644-6.381-3.777-10.243-11.969-3.514-7.445-4.04-19.256l7.755-.344-7.738.598.003-.008q.049.292.16.648.31.961.942 1.84c.996 1.383 2.324 2.317 3.988 2.79 1.907.546 3.73.367 5.48-.536a6.9 6.9 0 0 0 2.122-1.672q.461-.545.625-.902l-7.063-3.21 7.164 2.983a43 43 0 0 1-1.539 3.282q-.585 1.124-1.066 2.183-1.16 2.449-2.805 4.059c-1.441 1.41-3.105 2.348-5 2.824q-4.58 1.143-8.691-1.16c-2.723-1.523-4.57-3.785-5.531-6.785q-1.547-4.798 1.23-9.79l6.781 3.77-6.875-3.597 4.555-8.715a203 203 0 0 0 4.16-8.485 4 4 0 0 0-.285 1.047q-.188 1.371.309 2.766c.546 1.535 1.554 2.723 3.015 3.559 1.297.742 2.653 1.023 4.059.847l-.48.059h-1.563q.746 0 1.598-.282l-.747.247-.78.093c-.462.059-.802.118-1.016.188q.28-.089.734-.442a33 33 0 0 0-1.906 1.582q-2.97 2.654-7.762 3.133l-.774-7.722 1.028 7.691q-2.843.38-5.363-.605-2.772-1.086-4.559-3.547-1.916-2.626-2.473-5.434l-.078-.39-.039-.395a12.3 12.3 0 0 1 .914-6.027q1.09-2.59 3.305-4.68 3.098-2.926 7.621-4.785 4.166-1.709 8.062-2.176 3.44-.399 6.618-.398h.41l.402.042a4.8 4.8 0 0 0-1.605.118 5.86 5.86 0 0 0-2.41 1.195 5.7 5.7 0 0 0-1.563 1.965 4.3 4.3 0 0 0-.402 1.238q.873-5.484 2.12-10.101 1.47-5.439 3.884-9.055 1.753-2.631 4.109-4.149 2.917-1.87 6.332-1.87 3.51 0 6.3 1.617 3.065 1.776 4.641 5.09 1.833 3.86 1.832 8.57 0 4.154-1.324 8.367a234 234 0 0 1-2.062 6.246l-.063.176-.066.168a4.6 4.6 0 0 0 .308-1.602 5.8 5.8 0 0 0-.628-2.812 6.26 6.26 0 0 0-2.786-2.82q-1.296-.674-2.62-.673h1.198a1.7 1.7 0 0 0-.328.036l.297-.059.301-.035q.37-.045.527-.113a1 1 0 0 0-.238.168 40 40 0 0 0 2.629-2.579q3.322-3.59 7.805-4.187c1.718-.203 3.328-.102 4.816.305a11 11 0 0 1 4.547 2.488q3.306 2.989 3.91 7.52.657 5.267-3.144 9.75-2.352 2.772-5.852 5-3.062 1.951-6.125 3.23-3.363 1.41-5.941 1.777a31 31 0 0 1-4.403.305q-1.987.001-3.855-.133l-.301-.02-.297-.046q.616.093 1.348-.024a5.8 5.8 0 0 0 2.441-.996 5.94 5.94 0 0 0 1.871-2.086 4.8 4.8 0 0 0 .535-1.535l-7.664-1.21 7.696.991q-.435 3.354-.703 6.649a76 76 0 0 0-.258 6.144q0 5.19.898 9.262.674 3.03 1.887 4.473.075.086.121.12l-.027-.01q.087.036.41.038.063-.002.297-.18 1.389-1.082 2.703-3.003a52 52 0 0 0 3.18-5.266 305 305 0 0 0 2.94-5.715l.048-.094Zm13.695 7.305-6.848-3.652 6.942 3.472a350 350 0 0 1-3.094 6.016 69 69 0 0 1-4.113 6.809q-2.673 3.891-5.953 6.453-4.442 3.464-9.844 3.465-3.663-.001-6.793-1.414-3.218-1.448-5.574-4.25-3.684-4.366-5.176-11.13-1.266-5.724-1.266-12.609 0-3.622.309-7.414.299-3.651.781-7.363l.012-.11.02-.109c.456-2.898 1.808-5.133 4.058-6.695q3.187-2.218 7.375-1.59l-1.149 7.676.551-7.742q1.32.093 2.75.093 1.16 0 2.207-.148c.407-.059 1.125-.3 2.145-.73q1.84-.77 3.785-2.008c1.012-.645 1.793-1.293 2.352-1.95q-.094.105-.223.47-.317.849-.188 1.874c.102.742.453 1.387 1.063 1.938q.779.704 1.785.98.667.181 1.316.106.628-.087 1.145-.38.278-.152.39-.277a56 56 0 0 1-3.636 3.575q-3.534 3.178-8.824 3.816l-.922-7.707 1.52 7.61a14 14 0 0 1-2.716.265h-1.199q-2.46.001-4.523-1.07a8.88 8.88 0 0 1-3.953-4.016 9.5 9.5 0 0 1-1.004-4.582q.058-1.862.797-3.71l7.203 2.882-7.332-2.54c.66-1.901 1.3-3.847 1.926-5.827q.609-1.939.609-3.707 0-1.214-.332-1.91.492 1.036 1.594 1.675.822.476 1.484.477a3.73 3.73 0 0 0 2.063-.59q.263-.171.433-.344.025-.029.031-.039-.017.03-.054.082-1.008 1.507-1.817 4.496-1.03 3.814-1.75 8.356-.616 4.095-3.558 6.504-3.133 2.565-7.438 2.113l.813-7.719v7.758q-2.286.001-4.77.29-1.8.216-4.015 1.124c-1.235.508-2.192 1.078-2.86 1.711q.167-.156.344-.582a2.95 2.95 0 0 0 .23-1.469l-7.722.735 7.61-1.52a3 3 0 0 0-.208-.648l.012-.004q-.88-1.209-2.336-1.778-1.212-.475-2.348-.324l.13-.015.124-.016c.11-.008.191-.02.254-.035q-.023.006-.106.035-.593.212-1.187.742c.86-.77 1.781-1.531 2.762-2.293q2.947-2.275 7.922-2.875l.925 7.707-2.453-7.363a10.4 10.4 0 0 1 3.309-.512h1.082v7.762l-.965-7.703q3.024-.375 5.566 1.078 2.796 1.593 3.903 4.7 1.34 3.755-.547 7.91a218 218 0 0 1-4.5 9.171l-4.602 8.801-.047.086q.071-.129.137-.516.169-.966-.16-1.98-.42-1.312-1.66-2.004c-.84-.473-1.727-.594-2.652-.36q-1.247.31-2.094 1.141-.34.33-.469.613c.438-.964.914-1.945 1.438-2.941q.528-1.015.968-2.07l.047-.117.05-.11q.737-1.618 1.68-2.726a8.4 8.4 0 0 1 2.587-2.07c1.894-.981 3.863-1.176 5.898-.594 3.727 1.062 5.77 3.882 6.121 8.46l.016.25c.254 5.797 1.113 10.239 2.566 13.325q1.834 3.883 4.113 5.234c1.668.984 3.387 1.48 5.16 1.48q2.49 0 4.329-1.414 2.847-2.186 5.414-6.218 3.06-4.795 5.902-10.696-.112.245-.16.707-.088.914.246 1.817.474 1.27 1.703 1.914 1.26.65 2.695.266a4.3 4.3 0 0 0 1.774-.946c.305-.265.527-.531.664-.789m0 0" fill="#fff"/><g clip-path="url(#980f4b87b9)"><path d="M600.798 54.778q-5.322-.001-9.8-4.367-4.665-4.542-4.45-11.825l.004-.183.016-.184q.475-6.163 4.508-9.625c2.515-2.156 5.379-3.234 8.582-3.234q5.07 0 9.027 3.445a12.5 12.5 0 0 1 3.453 4.91q.975 2.495.977 5.442 0 .983-.164 1.96.051-.293.05-.593h-7.761l7.742-.535q.445 6.475-2.988 10.484-1.741 2.03-4.028 3.133a11.7 11.7 0 0 1-5.168 1.172m0-15.52q-.808.001-1.582.371-.633.31-1.008.743-.551.645-.699 1.273.024-.094-.012-.586l-.02-.266v-.27q0-.983.165-1.956a4 4 0 0 0-.047.59c0-.043-.004-.074-.004-.106v.012q.026.14.098.324.254.646.8 1.121.43.373 1.169.371.936.002 1.52-.5.593-.51.847-1.113.045-.106.055-.148-.023.105-.04.293l-7.734-.594 7.754.226c-.008.336.004.56.043.66a1.1 1.1 0 0 0-.277-.41c.117.114.21.196.293.254l.015.016c-.02-.016-.047-.027-.082-.047q-.527-.258-1.254-.258m20.762 36.258q1.091-2.334 2.89-3.91a10.4 10.4 0 0 1 4.954-2.422q4.064-.78 7.785 1.078 3.745 1.873 5.574 5.692a10.84 10.84 0 0 1 1.074 5.152q-.08 2.295-1.074 4.562-3.017 7.043-7.05 12.872-4.449 6.427-10.333 10.277-6.55 4.284-14.672 4.285-5.44 0-9.941-2.121-4.599-2.166-7.902-6.379-5.674-7.24-7.18-20.117a18 18 0 0 0-.102-.75q.025.152.157.512.275.744.746 1.441c.953 1.41 2.242 2.387 3.875 2.93q1.98.66 4.02.226a7.6 7.6 0 0 0 2.952-1.332 7.3 7.3 0 0 0 2-2.242l-6.738-3.852 6.942 3.473c.09-.18.152-.328.195-.45a12 12 0 0 1-.652 1.587l-6.938-3.469 7.133 3.055q-1.074 2.503-3.02 4.133a9.9 9.9 0 0 1-5.297 2.28c-2.625.317-5.144-.202-7.566-1.558q-3.317-1.858-5.129-5.058-1.332-2.362-1.387-5.016c-.03-1.656.313-3.273 1.043-4.848q1.737-3.683 2.548-6.254.92-2.93 1.621-5.507a139 139 0 0 1 1.867-6.27q2.275-6.621 7.051-9.258 2.596-1.435 5.367-1.62 2.97-.202 5.754 1.034 5.044 2.239 7.145 7.934c1.234 3.332 1.238 7.145.012 11.43l-.075.261-.093.258q-.084.235-.121.746-.412 7.189.308 13.293.615 5.215 2.168 7.946.169.293.297.433l.004.008a1 1 0 0 0-.098-.07c-.199-.125-.367-.192-.508-.192q.734 0 1.672-.82c1.516-1.316 2.961-3.078 4.336-5.277a73 73 0 0 0 4.38-8.086Zm14.074 6.547a89 89 0 0 1-5.308 9.8c-2.188 3.497-4.618 6.407-7.282 8.731q-5.326 4.649-11.879 4.649-4.316.001-7.832-2.242-3.23-2.06-5.347-5.782-3.119-5.468-4.099-13.812-.878-7.45-.375-16.211.189-2.672 1.016-4.946l7.293 2.653-7.461-2.133q.298-1.049.316-1.715.005-.147-.008-.219a1 1 0 0 0 .047.149l-.035-.082.004.008q.06.105.172.234c.258.3.578.54.965.711q.732.324 1.597.266.668-.047 1.094-.282.478-.262.652-.507-.216.305-.433.933a123 123 0 0 0-1.664 5.574 158 158 0 0 1-1.797 6.114q-1.127 3.58-3.262 8.097.411-.884.387-1.972a4.8 4.8 0 0 0-.621-2.309q-.329-.58-.797-.844-.783-.438-1.871-.308a5.33 5.33 0 0 0-2.82 1.23q-.89.75-1.282 1.652l.09-.207.106-.207q-.136.27-.196.45.29-.867.649-1.586l.097-.196.106-.183a8.1 8.1 0 0 1 2.226-2.524 7.8 7.8 0 0 1 3.063-1.382 7.7 7.7 0 0 1 4.125.23q2.555.849 4.086 3.117.575.852.95 1.867.515 1.412.792 3.801 1.002 8.543 3.984 12.352c.688.875 1.45 1.508 2.297 1.906q1.36.645 3.328.645 3.496-.001 6.172-1.754 3.346-2.187 6.07-6.125 3.147-4.542 5.594-10.254-.195.445-.218 1.113-.035 1.097.445 2.105.469.973 1.476 1.477a3.2 3.2 0 0 0 2.09.281 4.87 4.87 0 0 0 2.332-1.14q.664-.575.957-1.203Zm0 0" fill="#fff"/></g><g clip-path="url(#27453ec7c6)"><path d="M74.171 78.797q1.03-1.811 2.5-2.093 1.483-.296 2.844.453a4.1 4.1 0 0 1 1.937 2.218c.383.981.313 2.043-.219 3.188q-5.58 11.613-9.969 16.406-4.377 4.782-9.967 4.782-5.002.002-7.907-2.563-2.907-2.561-4.39-6.547-1.486-3.998-2.281-8.5-.798-4.5-1.594-8.484c-.531-2.657-1.293-4.836-2.281-6.547q-1.471-2.562-4.438-2.563-3.081 0-5.875 2.063-2.782 2.05-5.125 5.125a63 63 0 0 0-4.203 6.25q-1.877 3.189-3.016 5.469.107 5.577.735 9c.414 2.28.625 4.257.625 5.922q-.001 4.905-3.875 4.906-2.501.107-3.531-1.657c-.68-1.18-1.094-2.71-1.25-4.609q-.345-3.311-.579-8.375a234 234 0 0 1-.218-10.297q-.001-5.25.109-8.672-1.127 2.625-2.266 5.297-1.143 2.674-1.594 3.594-.798 1.594-2.344 1.875c-1.024.188-2.024.059-3.016-.39q-1.482-.687-2.11-2.047-.622-1.374.407-3.204a97 97 0 0 0 3.25-6.14q1.53-3.2 3.469-7.297 1.935-4.091 5-9.688.686-6.374 1.875-13.14 1.199-6.78 3.484-12.594 2.28-5.812 6.031-9.39c2.508-2.395 5.704-3.594 9.579-3.594q3.638.002 6.375 1.937a13.5 13.5 0 0 1 4.265 4.953q1.547 3.019 1.547 6.313 0 7.064-3.422 13.11-3.422 6.033-9.234 10.984-5.8 4.957-12.86 8.953a61 61 0 0 0-.109 3.922q-.001 2.222-.125 7.343 5.015-7.748 9.906-10.812 4.906-3.077 9.125-3.078 4.67.001 7.407 2.515 2.73 2.501 4.203 6.438a55 55 0 0 1 2.39 8.36q.92 4.439 1.828 8.374.904 3.925 2.329 6.438 1.434 2.501 4.047 2.5 2.514.001 4.671-2.735 2.17-2.731 4.11-6.547 1.934-3.809 3.75-7.125M21.999 53.969q7.529-5.12 11.969-11.39 4.436-6.264 4.437-12.422-.001-2.953-1.375-4.14-1.36-1.203-2.844-1.204-2.953.002-5.234 3.016-2.283 3.016-3.828 7.515a58.5 58.5 0 0 0-2.328 9.281q-.798 4.784-.797 8.313Zm0 0" fill="#562230"/></g><path d="M136.136 78.797q1.032-2.156 2.625-2.672 1.594-.515 2.953.235c.914.492 1.563 1.289 1.938 2.39.383 1.094.273 2.368-.328 3.813-1.75 4.094-3.805 7.871-6.156 11.328-2.356 3.461-4.961 6.25-7.813 8.375q-4.265 3.188-9.281 3.188-5.126-.001-8.594-3.125c-2.312-2.094-4.117-4.696-5.406-7.813-.617-1.82-1.453-1.894-2.516-.219-2.273 3.493-4.64 5.961-7.11 7.407q-3.702 2.156-7.342 2.156-4.219.002-7.876-2.563c-2.43-1.707-4.32-3.816-5.687-6.328-.375-.75-.676-1.617-.907-2.61a25.5 25.5 0 0 1-.625-3.593 38 38 0 0 1-.172-3.594q0-6.824 2.907-12.578 2.906-5.749 7.968-9.218c3.375-2.32 7.192-3.485 11.454-3.485q3.857 0 8.312 1.594c1.29.531 2.273.117 2.953-1.25q1.03-1.934 2.172-2.672 1.137-.75 2.156-.75 1.138.002 2 .578a3.77 3.77 0 0 1 1.313 1.469q.34.69.281 1.266-.066.562-.172 1.359-.689 4.113-1.484 9.516a74 74 0 0 0-.797 10.765q0 3.645.516 7.172.514 3.532 2.218 5.875c1.133 1.555 2.805 2.328 5.016 2.328q2.841 0 5.578-2.781 2.73-2.796 5.297-7.063a111 111 0 0 0 4.61-8.5M89.214 95.438q2.953 0 5.407-2.156c1.632-1.446 3.078-3.348 4.328-5.703a42 42 0 0 0 3.078-7.516q1.201-3.995 1.765-7.64c.227-1.22-.187-2.165-1.25-2.844q-1.143-.575-3.03-1.078-1.876-.516-4.485-.516-3.877 0-6.781 2.344-2.907 2.33-4.5 6.312-1.594 3.984-1.594 8.766 0 3.985 1.64 7.015 1.654 3.017 5.422 3.016m0 0" fill="#562230"/><path d="M201.638 78.797q.919-1.934 2.453-2.328 1.53-.405 2.953.344 1.435.736 2.062 2.281.62 1.536-.281 3.469-4.908 10.143-10.437 13.781c-3.68 2.43-7.305 3.64-10.876 3.64-2.656 0-5.43-.718-8.312-2.155-1.293-.532-2.355-.305-3.187.672q-2.502 3.081-5.86 5.812-3.362 2.732-7.234 2.734-6.048 0-9.75-3.14c-2.461-2.082-4.375-4.813-5.75-8.188q-2.05-5.074-3.188-10.875c-.148-.914-.39-1.468-.734-1.656q-.516-.279-1.078.86-.346.562-.688 1.25-.346.688-.687 1.25-.345.689-.75 1.203-.392.503-1.188.843a4.2 4.2 0 0 1-1.703.344q-1.593 0-2.734-1.078-1.139-1.077-1.14-2.797 0-1.014.562-2.39a95 95 0 0 0 4.28-9.047q1.875-4.623 3.704-9.297.341-.798.453-1.36.107-.576.219-1.375.574-7.17 1.594-14 1.03-6.843 2.39-12.703c.914-3.906 1.907-7.191 2.969-9.86q3.31-8.42 8.031-12.124 4.734-3.703 9.063-3.703 4.999.002 8.187 4.046 3.201 4.049 3.203 10.188-.001 5.471-2.234 11.688-2.22 6.204-5.922 12.187-3.705 5.971-8.265 10.813-4.547 4.846-9.329 7.578-1.593.907-1.593 2.625v2.953q0 9.908 1.64 16.062 1.655 6.159 4.281 9c1.75 1.899 3.57 2.844 5.47 2.844q2.278.001 4.546-1.703 2.28-1.717 3.547-4.453.45-.905.328-1.578-.112-.686-.562-1.485-2.848-4.452-3.985-8.312-1.14-3.873-1.14-6.953-.001-5.248 2.5-8.094 2.511-2.843 5.359-2.844 3.294 0 4.953 2.625 1.653 2.614 2.281 6.14.623 3.535.625 6.266 0 1.94-.234 4.11a165 165 0 0 1-.453 3.984c-.23 1.211.113 2.156 1.031 2.844a13.5 13.5 0 0 0 3.016 1.719c1.101.449 2.375.672 3.812.672 2.282 0 4.633-1.133 7.063-3.407q3.655-3.42 6.718-9.922m-49.89-25.514q-.11 1.486.734 2 .857.516 2-.625 4.453-4.324 7.985-10.078 3.526-5.764 5.625-11.516 2.109-5.748 2.109-9.844 0-2.06-.687-3.875-.675-1.828-2.72-1.828-2.859 0-5.14 2.625-2.268 2.626-3.922 6.781-1.657 4.161-2.86 9a120 120 0 0 0-1.937 9.454q-.737 4.611-1.187 7.906m0 0" fill="#562230"/><path d="M229.434 107.626q-5.8-.001-10.64-3.079-4.847-3.076-7.86-8.14-3.017-5.076-3.593-11.235a29.3 29.3 0 0 1-3.063 4.688q-1.828 2.267-3.765 2.265-1.372.002-2.625-1.25-1.031-1.373-.907-2.734a6.6 6.6 0 0 1 1.36-3.297 19 19 0 0 0 1.937-3.078q2.97-5.468 4.453-8.14 1.467-2.685 1.985-4.157a9 9 0 0 0 .515-2.968q-.002-.342-.062-.86a11 11 0 0 1-.047-.969q.217-12.06 2.203-20.546 1.997-8.499 5.078-13.797 3.076-5.298 6.61-7.735 3.528-2.451 6.953-2.453 4.437.001 7.625 3.875 3.187 3.879 3.187 10.594-.002 1.938-.344 4.047a57 57 0 0 1-.906 4.375q-2.503 9-8.094 16.86-5.578 7.861-14 12.296-.001 5.128.625 9.969.621 4.844 2.157 8.781 1.544 3.924 4.328 6.266 2.794 2.33 7.234 2.328 3.31.002 6.203-2.328 2.907-2.343 5.297-5.75a57 57 0 0 0 4.172-6.891q1.764-3.48 2.89-5.766 1.03-2.387 2.735-3.125 1.717-.75 3.14-.062 1.42.689 1.985 2.515.575 1.815-.672 4.438a81 81 0 0 1-6.672 12.25q-3.813 5.754-8.593 9.281-4.781 3.53-10.829 3.532m-14-44.766q3.986-2.39 6.891-6.203a42.4 42.4 0 0 0 4.828-8.032q1.934-4.218 2.625-7.64 1.139-3.53 1.14-6.719-.001-2.625-.859-4.219-.845-1.593-2.218-1.593-1.253 0-3.016 1.546c-1.18 1.024-2.414 2.672-3.703 4.954q-3.08 6.596-4.156 13.609a158 158 0 0 0-1.532 14.297m0 0" fill="#562230"/><path d="M273.185 106.36q-7.641-.001-13.343-3.407c-3.793-2.281-6.712-5.163-8.75-8.656q-3.078-5.25-3.079-10.828 0-6.824 2.625-12.86 2.607-6.045 7.047-10.093 4.452-4.044 9.922-4.844c.445-.07.879-.125 1.297-.156q.64-.06 1.203-.062 4.887 0 8.485 2.39 3.592 2.391 3.593 7.407c0 3.492-1.105 6.734-3.312 9.734q-3.3 4.502-8.422 7.344-5.127 2.846-10.828 3.53-1.254.129-1.703.813-.456.675.109 1.813 2.279 4.549 6.156 7.234 3.873 2.673 10.36 2.672 4.453.001 8.718-2.734 4.265-2.732 7.797-7.344a45 45 0 0 0 5.813-10.078c.531-1.29 1.304-2.11 2.328-2.453q1.545-.515 3.031.172 1.483.69 2.047 2.39.562 1.705-.687 4.219c-3.493 7.367-7.782 13.172-12.876 17.422q-7.629 6.375-17.53 6.375m-13.438-28.25q3.293-.56 6.656-2.375 3.356-1.828 5.64-4.219c1.52-1.594 2.282-3.148 2.282-4.672q-.001-2.624-2-3.015-1.988-.406-3.594-.172-3.985.563-7.578 4.156-3.581 3.58-4.484 8.031-.237 1.143.453 1.828.684.674 1.937.563.218-.124.688-.125m0 0" fill="#562230"/><g transform="translate(299.953 103.063)" fill="#562230"/><path d="M340.507 134.61c-1.594 0-2.68-.89-3.25-2.672q-.86-2.673-.86-6.547c0-4.937.188-10.086.563-15.437.383-5.356.805-10.664 1.266-15.938q.684-7.92.906-14.984c.082-1.063-.2-1.836-.844-2.328q-.972-.749-1.547.5a119 119 0 0 1-1.14 2.687 53 53 0 0 1-1.251 2.672q-1.141 2.393-2.734 2.969-1.594.563-2.953-.297-1.37-.856-1.828-2.563-.452-1.699.578-3.875a271 271 0 0 0 3.125-6.89 146 146 0 0 1 2.735-5.922q1.418-2.905 3.468-6.313 1.484-2.28 2.797-3.14c.875-.57 2.031-.86 3.469-.86q3.076.002 3.984 2.453.922 2.457.922 5.188v3.297c0 1.148.242 1.777.735 1.89.5.106 1.085-.332 1.765-1.312q4.325-6.715 8.719-8.766 4.39-2.062 8.14-2.062 4.437 0 7.907 2.344 3.481 2.332 5.468 6.375 2 4.048 2 9.047 0 3.08-.515 6.265a38.6 38.6 0 0 1-1.64 6.5q-.798 2.611 0 2.61h.905q3.874.002 8.766-2.563 4.904-2.562 7.75-8.14 1.032-2.047 2.625-2.563 1.594-.514 3.016.125c.945.418 1.61 1.156 1.984 2.219q.576 1.593-.453 3.984-3.533 8.081-10.594 11.61-7.066 3.531-15.14 3.53h-1.72q-.908.001-1.812-.109-1.721-.107-2.968.907-3.532 2.86-6.438 4.109-2.893 1.249-5.172 1.25-2.97 0-4.968-1.64a10.04 10.04 0 0 1-2.954-4.11q-.97-2.45-.968-4.734-.001-3.295 1.703-5 1.371-1.137 2.906-1.594a11.1 11.1 0 0 1 3.25-.469q2.046 0 4.203.469 2.169.456 4.344.797 1.936.328 2.734-1.375c.907-1.75 1.586-3.645 2.047-5.688q.687-3.075.688-6.047 0-1.81-.75-4.093c-.493-1.52-1.266-2.829-2.328-3.922-1.063-1.102-2.47-1.657-4.22-1.657q-3.642.002-6.78 2.5-3.13 2.501-5.579 6.438a52 52 0 0 0-4.093 8.031q-1.658 4.096-2.453 7.406-1.706 7.172-2.391 11.954-.692 4.779-.75 8.375a425 425 0 0 1-.156 7.125q0 .794.28 1.421c.188.414.43.891.735 1.422q.92 1.248 1.14 3.235.235 1.998.235 4.968-.002 3.529-1.937 5.235-1.94 1.701-4.672 1.703m0 0" fill="#562230"/><path d="M452.816 78.797q.919-1.81 2.453-2.203a4.2 4.2 0 0 1 2.969.282q1.419.673 2.047 2.156.621 1.487-.282 3.531-1.593 3.643-4.968 7.297-3.364 3.645-8.204 5.86-4.829 2.22-11.093 1.874-1.706-.107-2.844 1.25-2.52 3.189-6.282 5.016c-2.5 1.219-5.54 1.828-9.11 1.828-4.093 0-7.527-1.008-10.297-3.016q-4.157-3.029-6.311-8.156c-1.445-3.413-2.172-7.21-2.172-11.39q.001-4.78 1.484-9.5 1.469-4.735 4.25-8.485 2.795-3.764 6.672-5.594a9 9 0 0 0 1.313-.672c.344-.226.742-.5 1.203-.812q3.06-2.156 7.062-2.156 5.343 0 9.391 3.14 4.043 3.13 6.375 7.97 2.344 4.844 2.344 9.843 0 2.52-.235 5.015a53 53 0 0 1-.687 5.016c-.149.762.047 1.387.578 1.875q.797.736 2.39.406 4.67-.796 7.454-3.984c1.863-2.133 3.363-4.266 4.5-6.39m-25.844 7.985q1.015.674 1.86.281.857-.405 1.093-1.547.34-1.811.563-3.687a32 32 0 0 0 .234-3.938q0-3.076-1.312-6.312c-.875-2.164-2.075-3.97-3.594-5.407-1.512-1.445-3.258-2.172-5.235-2.172h-.109q-.11 0-.906.516a4.9 4.9 0 0 0-1.375 1.297q-.223.344-.797.906-.563.58-1.031 1.032-.457.455-.672 1.374-.235.908-.235 1.47 0 2.859 1.938 6.046a32.7 32.7 0 0 0 4.61 5.922q2.683 2.736 4.968 4.219M406.8 83.36c0 2.812.567 5.305 1.703 7.469q1.719 3.236 4.39 5.124 2.685 1.875 5.532 1.875 2.39 0 4.219-1.032 1.248-.684 1.125-1.656-.112-.966-1.25-1.64-3.75-2.514-7.11-6.094a41.3 41.3 0 0 1-5.765-7.813q-.797-1.248-1.594-1.078-.798.174-1.016 1.766a19 19 0 0 0-.187 1.547q-.047.736-.047 1.53m0 0" fill="#562230"/><path d="M460.8 57.735q.452-1.593-.578-3.203c-.836-1.282-1.309-2.336-1.422-3.172a16 16 0 0 1-.172-2.172q0-2.843 1.828-4.437c1.219-1.07 2.547-1.61 3.984-1.61q1.936 0 3.594 1.438 1.654 1.424 1.766 4.718.105.909.281 1.594.171.69.735 1.375 2.624 2.847 5.359 4.563a103 103 0 0 1 5.125 3.406c1.594 1.137 2.883 2.578 3.875 4.328q1.483 2.626 1.484 7.063-.002 2.625-.297 4.5-.282 1.875-.687 3.984-.394 2.11-.735 5.406-.454 5.126 1.141 8.781 1.594 3.643 5.813 3.641c2.351 0 4.5-.945 6.437-2.844q2.906-2.857 5.406-7.297a88 88 0 0 0 4.453-9q1.015-2.388 2.61-2.89 1.593-.516 2.953.281c.914.531 1.547 1.387 1.89 2.563q.515 1.769-.39 3.812-3.205 7.066-6.625 12.469-3.409 5.409-7.516 8.421-4.096 3.03-9.453 3.03c-3.718 0-6.758-.968-9.11-2.905q-3.532-2.905-4.951-7.625-1.426-4.735-.969-10.313.575-6.153 1.203-9.453.623-3.31.625-5.25c0-1.29-.555-2.426-1.656-3.406q-1.66-1.483-6.313-4.219-2.406-1.483-3.203 1.14-1.815 5.238-3.187 8.548a214 214 0 0 1-2.328 5.468 136 136 0 0 0-1.767 4.095q-.797 2.05-2.39 2.5c-1.063.305-2.102.21-3.126-.281q-1.545-.734-2.171-2.328-.622-1.606.515-3.657a106 106 0 0 0 4.203-9.328q1.936-4.904 3.766-11.734m0 0" fill="#562230"/><g transform="translate(511.49 103.063)" fill="#562230"/><path d="M585.184 78.579q.92-1.717 2.39-2.11 1.482-.405 2.906.344 1.42.736 1.985 2.281.574 1.536-.328 3.469-3.081 6.375-6.391 11.563-3.299 5.173-7.234 8.203c-2.618 2.007-5.633 3.015-9.047 3.015q-4.784 0-9.11-2.562-4.33-2.56-7.172-8.594c-1.898-4.031-3-9.46-3.312-16.297q-.111-1.483-.516-1.594-.391-.106-.953 1.141a38 38 0 0 1-1.265 2.672q-.676 1.313-1.25 2.562c-.68 1.45-1.547 2.309-2.61 2.578a4 4 0 0 1-3.015-.406q-1.435-.797-1.938-2.39-.514-1.606.625-3.657 2.268-4.324 4.547-8.703a212 212 0 0 0 4.328-8.828q.575-1.266.281-2.062c-.187-.532-.586-.754-1.187-.672h-1.094q-.504.002-.844.11c-1.898.23-3.257.667-4.093 1.312a40 40 0 0 0-2.344 1.937c-.719.649-1.836 1.043-3.36 1.188-1.132.156-2.003-.18-2.609-1.016q-.92-1.266-1.156-2.39-.217-2.404 1.828-4.329 2.05-1.936 5.25-3.25 3.186-1.312 6.031-1.656a50 50 0 0 1 5.688-.344q2.169.237 2.515-2.047.797-5.013 1.938-9.218c.758-2.813 1.707-5.07 2.844-6.782q1.698-2.561 3.984-2.562 2.843.001 3.922 2.281c.726 1.512 1.094 3.258 1.094 5.234q-.001 2.955-.97 6.032a219 219 0 0 1-2 6.047q-.455 1.127-.062 1.937.405.797 1.547.797h1.188q.64.001 1.203-.125 2.841-.34 4.547-1.875a46 46 0 0 0 3.14-3.062q1.419-1.548 3.141-1.782 1.935-.218 3.125.86c.8.718 1.273 1.648 1.422 2.78q.234 1.832-1.36 3.72-1.594 1.875-4.109 3.468a33.3 33.3 0 0 1-4.953 2.625q-2.454 1.018-4.047 1.25a24 24 0 0 1-3.297.22q-1.703 0-3.297-.11-2.285-.342-2.625 1.812a158 158 0 0 0-.75 7.016 84 84 0 0 0-.28 6.781q0 6.035 1.077 10.938c.727 3.261 1.907 5.859 3.532 7.797q2.45 2.906 6.437 2.906 2.73 0 5.063-1.828c1.562-1.22 3.003-2.79 4.328-4.72a61 61 0 0 0 3.656-6.03 289 289 0 0 0 3.016-5.875m0 0" fill="#562230"/><g clip-path="url(#a927a34ee3)"><path d="M600.798 47.016q-2.175 0-4.39-2.156-2.22-2.168-2.11-6.047.235-2.953 1.828-4.312 1.594-1.374 3.532-1.376 2.169 0 3.922 1.547c1.175 1.024 1.765 2.516 1.765 4.485q-.002.346-.062.687-.048.346-.047.688c.156 2.199-.227 3.828-1.14 4.89q-1.363 1.594-3.298 1.594m27.797 31.781c.531-1.132 1.285-1.797 2.266-1.984a4.3 4.3 0 0 1 2.843.39q1.372.693 2.063 2.11.687 1.423-.11 3.25-2.736 6.375-6.328 11.563-3.597 5.173-8.203 8.203-4.61 3.012-10.422 3.014-7.407 0-11.733-5.514c-2.887-3.688-4.746-9.102-5.578-16.25q-.345-2.954-.797-2.157a5 5 0 0 0-.234.563q-.112.345-.219.578-.69 1.595-2.11 1.766-1.421.174-2.843-.625-1.418-.798-2.156-2.11c-.5-.875-.52-1.804-.063-2.797q1.94-4.09 2.906-7.172.95-3.075 1.688-5.812c.5-1.82 1.094-3.797 1.781-5.922q1.249-3.638 3.405-4.828 2.169-1.2 4.22-.297 2.042.907 3.015 3.531.967 2.625-.156 6.61-.471 1.252-.579 2.843-.454 7.97.344 14.75.794 6.785 3.125 10.891 2.343 4.095 6.438 4.094 3.654.001 6.78-2.734c2.095-1.82 4.032-4.157 5.813-7a83 83 0 0 0 4.844-8.954m0 0" fill="#562230"/></g></g></g><g clip-path="url(#120191bd2a)"><g clip-path="url(#b08a0a21d5)"><g clip-path="url(#64409acb12)" fill="#562230"><path d="M325.309 64.254a50.3 50.3 0 0 1-17.344 3.547c-10.117.277-19.969-2.434-28.485-7.832l4.43-6.992c7.121 4.515 15.363 6.78 23.832 6.55a42.24 42.24 0 0 0 29.652-13.234 42.3 42.3 0 0 0 8.727-13.73c2.07-5.286 3.04-10.872 2.887-16.598a43.5 43.5 0 0 0-.746-6.887l8.129-1.555c.515 2.692.816 5.457.89 8.22.184 6.839-.976 13.515-3.453 19.839a50.5 50.5 0 0 1-10.422 16.402 50.5 50.5 0 0 1-18.097 12.27m0 0"/><path d="M325.332 64.313a50.6 50.6 0 0 1-17.367 3.554c-10.13.274-19.992-2.437-28.52-7.844-.015-.007-.023-.023-.027-.039q-.008-.029.008-.05l4.43-6.989a.064.064 0 0 1 .09-.02c7.109 4.505 15.34 6.766 23.792 6.54a42.22 42.22 0 0 0 29.61-13.215 42.2 42.2 0 0 0 8.715-13.71 42.05 42.05 0 0 0 2.878-16.571 43 43 0 0 0-.742-6.88c-.008-.034.016-.066.051-.073l8.129-1.555a.06.06 0 0 1 .047.008.06.06 0 0 1 .027.043 51 51 0 0 1 .89 8.226 50.6 50.6 0 0 1-13.895 36.29 50.5 50.5 0 0 1-15.835 11.312c-.75.344-1.515.672-2.281.972m-45.766-4.364c8.497 5.367 18.313 8.063 28.395 7.79a50.4 50.4 0 0 0 19.601-4.512A50.5 50.5 0 0 0 343.36 51.94a50.5 50.5 0 0 0 10.41-16.382 50.3 50.3 0 0 0 3.446-19.817 51 51 0 0 0-.875-8.144l-8.004 1.53c.426 2.24.672 4.54.734 6.837a42.2 42.2 0 0 1-2.89 16.62 42.3 42.3 0 0 1-8.739 13.75 42.4 42.4 0 0 1-13.257 9.474 42.2 42.2 0 0 1-16.442 3.78c-8.457.231-16.691-2.023-23.812-6.523Zm0 0"/></g></g></g></svg>